<svg width="25" height="26" viewBox="0 0 25 26" fill="none" xmlns="http://www.w3.org/2000/svg">
<g clip-path="url(#clip0_1102_265)">
<g clip-path="url(#clip1_1102_265)">
<g clip-path="url(#clip2_1102_265)">
<path d="M19.0894 25.1135H4.85954C3.59245 25.1135 2.54836 24.0972 2.5204 22.8301L1.18384 15.7707V15.6453C0.79411 14.5036 0.598999 13.3202 0.598999 12.0947C0.598999 5.92677 5.69497 0.900635 11.9746 0.900635C18.24 0.900635 23.3502 5.9269 23.3502 12.0947C23.3502 13.3061 23.1553 14.5036 22.7653 15.6453V15.7707L21.4288 22.8301C21.3871 24.0972 20.3565 25.1135 19.0894 25.1135ZM2.29795 15.6734L3.63449 22.7185V22.7742C3.63449 23.4566 4.17761 23.9995 4.85966 23.9995H19.0895C19.7718 23.9995 20.3147 23.4564 20.3147 22.7742V22.7185L21.6513 15.6734V15.6317L21.6372 15.5062L21.679 15.3948C22.055 14.3505 22.2358 13.2368 22.2358 12.1088C22.2358 6.55347 17.6413 2.02853 11.9746 2.02853C6.32178 2.02853 1.71343 6.55365 1.71343 12.1088C1.71343 13.2366 1.89455 14.3366 2.2703 15.3948L2.31202 15.5062L2.29803 15.6317L2.29795 15.6734Z" fill="#222222"/>
<path d="M7.37982 10.2433C6.25208 10.2433 5.33301 9.3244 5.33301 8.19647C5.33301 7.06872 6.25189 6.14966 7.37982 6.14966C8.50757 6.14966 9.42663 7.06854 9.42663 8.19647C9.42663 9.32421 8.50775 10.2433 7.37982 10.2433ZM7.37982 7.27759C7.04652 7.27759 6.73853 7.45558 6.57189 7.74425C6.40525 8.03271 6.40525 8.38846 6.57189 8.67709C6.73855 8.96553 7.04652 9.14352 7.37982 9.14352C7.71288 9.14352 8.02087 8.96553 8.18751 8.67709C8.35415 8.38841 8.35415 8.03265 8.18751 7.74425C8.02085 7.45558 7.71288 7.27759 7.37982 7.27759ZM12.5729 13.2229C11.863 13.2229 11.2781 12.6382 11.2781 11.9281C11.2781 11.2181 11.8629 10.6332 12.5729 10.6332C12.8792 10.6332 13.1298 10.8838 13.1298 11.1901C13.1298 11.4964 12.8792 11.747 12.5729 11.747C12.4755 11.747 12.3918 11.8304 12.3918 11.9281C12.3918 12.0255 12.4753 12.1092 12.5729 12.1092C12.8792 12.1092 13.1298 12.3598 13.1298 12.666C13.1298 12.9723 12.8792 13.2229 12.5729 13.2229ZM13.0187 3.268C12.3087 3.268 11.7238 2.68316 11.7238 1.97312C11.7238 1.66684 11.9744 1.41626 12.2807 1.41626C12.587 1.41626 12.8375 1.66684 12.8375 1.97312C12.8375 2.07055 12.9209 2.15424 13.0187 2.15424C13.325 2.15424 13.5756 2.40483 13.5756 2.71111C13.5756 3.0174 13.325 3.268 13.0187 3.268ZM21.9296 18.6252C20.6488 18.6252 19.9941 17.7201 19.4791 16.9962C18.9639 16.2721 18.6159 15.8266 17.9337 15.8266C17.2514 15.8266 16.9033 16.2721 16.3883 16.9962C15.8731 17.7201 15.2188 18.6252 13.9377 18.6252C12.6569 18.6252 12.0023 17.7201 11.4872 16.9962C10.972 16.2721 10.6241 15.8266 9.94178 15.8266C9.25949 15.8266 8.91146 16.2721 8.39637 16.9962C7.88121 17.7201 7.22694 18.6252 5.94583 18.6252C4.66497 18.6252 4.0104 17.7201 3.49531 16.9962C2.98016 16.2721 2.63218 15.8266 1.94989 15.8266V14.7127C3.23075 14.7127 3.88532 15.6178 4.40041 16.3419C4.91551 17.0659 5.26355 17.5113 5.94583 17.5113C6.62813 17.5113 6.97615 17.0658 7.49125 16.3419C8.00635 15.6178 8.66068 14.7127 9.94178 14.7127C11.2226 14.7127 11.8772 15.6178 12.3923 16.3419C12.9073 17.0659 13.2554 17.5113 13.9377 17.5113C14.62 17.5113 14.9681 17.0658 15.4832 16.3419C15.9983 15.6178 16.6526 14.7127 17.9337 14.7127C19.2145 14.7127 19.8691 15.6178 20.3842 16.3419C20.8992 17.0659 21.2473 17.5113 21.9296 17.5113V18.6252Z" fill="#222222"/>
</g>
</g>
</g>
<defs>
<clipPath id="clip0_1102_265">
<rect width="25" height="25" fill="white" transform="translate(0 0.5)"/>
</clipPath>
<clipPath id="clip1_1102_265">
<rect width="25" height="25" fill="white" transform="translate(0 0.5)"/>
</clipPath>
<clipPath id="clip2_1102_265">
<rect width="23.8095" height="25" fill="white" transform="translate(0.595215 0.5)"/>
</clipPath>
</defs>
</svg>
