<svg width="25" height="26" viewBox="0 0 25 26" fill="none" xmlns="http://www.w3.org/2000/svg">
<g clip-path="url(#clip0_1102_250)">
<g clip-path="url(#clip1_1102_250)">
<path d="M15.1972 6.55286H9.80241C4.88313 6.55286 0.881104 10.5548 0.881104 15.4742V15.8741C0.881104 17.8446 2.48435 19.4474 4.45437 19.4474H20.5458C22.5158 19.4474 24.119 17.8444 24.119 15.8741V15.4742C24.119 10.5549 20.1169 6.55286 15.1972 6.55286ZM23.2217 15.8738C23.2217 17.3495 22.0213 18.5498 20.5457 18.5498H4.45426C2.97859 18.5498 1.77825 17.3495 1.77825 15.8738V15.4739C1.77825 11.5735 4.57672 8.31793 8.27009 7.60043V9.45503C8.27009 9.70293 8.47072 9.90377 8.71883 9.90377C8.96674 9.90377 9.16757 9.70314 9.16757 9.45503V7.48223C9.37778 7.46562 9.58819 7.44986 9.80247 7.44986H11.8596V9.45499C11.8596 9.70289 12.0602 9.90373 12.3083 9.90373C12.5562 9.90373 12.757 9.7031 12.757 9.45499V7.44986H15.1979C15.2827 7.44986 15.3649 7.45987 15.4488 7.46243V9.45501C15.4488 9.70292 15.6495 9.90375 15.8976 9.90375C16.1455 9.90375 16.3463 9.70313 16.3463 9.45501V7.54165C20.2265 8.10196 23.222 11.4406 23.222 15.4739L23.2217 15.8738Z" fill="#222222"/>
<path d="M18.5657 17.082H13.1821C12.9342 17.082 12.7334 17.2826 12.7334 17.5307C12.7334 17.7786 12.934 17.9795 13.1821 17.9795H18.5657C18.8136 17.9795 19.0144 17.7789 19.0144 17.5307C19.0144 17.2826 18.8138 17.082 18.5657 17.082Z" fill="#222222"/>
</g>
</g>
<defs>
<clipPath id="clip0_1102_250">
<rect width="25" height="25" fill="white" transform="translate(0 0.5)"/>
</clipPath>
<clipPath id="clip1_1102_250">
<rect width="25" height="13" fill="white" transform="translate(0 6.5)"/>
</clipPath>
</defs>
</svg>
