<svg width="63" height="51" viewBox="0 0 63 51" fill="none" xmlns="http://www.w3.org/2000/svg">
<path d="M0.839966 0.5H57.34C59.8252 0.5 61.84 2.51472 61.84 5V46C61.84 48.4853 59.8252 50.5 57.34 50.5H0.839966V0.5Z" fill="#FFA53B"/>
<path d="M0.839966 0.5H57.34C59.8252 0.5 61.84 2.51472 61.84 5V46C61.84 48.4853 59.8252 50.5 57.34 50.5H0.839966V0.5Z" stroke="#FFA53B"/>
<path d="M30.5066 31.3333C34.1885 31.3333 37.1733 28.3486 37.1733 24.6667C37.1733 20.9848 34.1885 18 30.5066 18C26.8247 18 23.84 20.9848 23.84 24.6667C23.84 28.3486 26.8247 31.3333 30.5066 31.3333Z" stroke="white" stroke-width="1.66667" stroke-linecap="round" stroke-linejoin="round"/>
<path d="M38.84 33L35.215 29.375" stroke="white" stroke-width="1.66667" stroke-linecap="round" stroke-linejoin="round"/>
</svg>
