<svg width="56" height="56" viewBox="0 0 56 56" fill="none" xmlns="http://www.w3.org/2000/svg">
<g clip-path="url(#clip0_1102_679)" filter="url(#filter0_f_1102_679)">
<g clip-path="url(#clip1_1102_679)">
<g clip-path="url(#clip2_1102_679)">
<path d="M17.7647 13.788C17.2728 13.788 16.8736 13.3888 16.8736 12.8969V6.03373C16.8736 5.54185 17.2728 5.14264 17.7647 5.14264C18.2565 5.14264 18.6557 5.54185 18.6557 6.03373V12.8969C18.6557 13.3892 18.257 13.788 17.7647 13.788Z" fill="black"/>
<path d="M23.0113 13.788C22.5195 13.788 22.1203 13.3888 22.1203 12.8969V6.03373C22.1203 5.54185 22.5195 5.14264 23.0113 5.14264C23.5032 5.14264 23.9024 5.54185 23.9024 6.03373V12.8969C23.9024 13.3892 23.5032 13.788 23.0113 13.788Z" fill="black"/>
<path d="M28.3829 13.788C27.891 13.788 27.4918 13.3888 27.4918 12.8969V6.03373C27.4918 5.54185 27.891 5.14264 28.3829 5.14264C28.8748 5.14264 29.274 5.54185 29.274 6.03373V12.8969C29.274 13.3892 28.8748 13.788 28.3829 13.788Z" fill="black"/>
<path d="M35.8921 49.6463H10.255C9.76313 49.6463 9.36392 49.247 9.36392 48.7552C9.36392 48.2633 9.76313 47.8641 10.255 47.8641H35.8921C36.384 47.8641 36.7832 48.2633 36.7832 48.7552C36.7832 49.247 36.3844 49.6463 35.8921 49.6463Z" fill="black"/>
<path d="M38.9775 36.3276H36.1946V34.5454H38.9775C42.3217 34.5454 45.0422 31.824 45.0422 28.4789C45.0422 25.1342 42.3217 22.4128 38.9775 22.4128H36.1946V20.6306H38.9775C43.3046 20.6306 46.8244 24.1513 46.8244 28.4789C46.8244 32.8069 43.3046 36.3276 38.9775 36.3276Z" fill="black"/>
<path d="M23.0738 46.503C15.5142 46.503 9.36392 40.3522 9.36392 32.7927V16.136H36.7832V32.7927C36.7832 40.3527 30.6329 46.503 23.0738 46.503ZM11.1461 17.9182V32.7927C11.1461 39.3702 16.4966 44.7208 23.0738 44.7208C29.6509 44.7208 35.001 39.3698 35.001 32.7927V17.9182H11.1461Z" fill="black"/>
</g>
</g>
</g>
<defs>
<filter id="filter0_f_1102_679" x="0.800003" y="0.0900269" width="55" height="55" filterUnits="userSpaceOnUse" color-interpolation-filters="sRGB">
<feFlood flood-opacity="0" result="BackgroundImageFix"/>
<feBlend mode="normal" in="SourceGraphic" in2="BackgroundImageFix" result="shape"/>
<feGaussianBlur stdDeviation="2.5" result="effect1_foregroundBlur_1102_679"/>
</filter>
<clipPath id="clip0_1102_679">
<rect width="45" height="45" fill="white" transform="translate(5.8 5.09003)"/>
</clipPath>
<clipPath id="clip1_1102_679">
<rect width="45" height="45" fill="white" transform="translate(5.8 5.09003)"/>
</clipPath>
<clipPath id="clip2_1102_679">
<rect width="37.8713" height="45" fill="white" transform="translate(9.36436 5.09003)"/>
</clipPath>
</defs>
</svg>
