<svg width="25" height="26" viewBox="0 0 25 26" fill="none" xmlns="http://www.w3.org/2000/svg">
<g clip-path="url(#clip0_1102_229)">
<g clip-path="url(#clip1_1102_229)">
<g clip-path="url(#clip2_1102_229)">
<path d="M6.64703 5.33213C6.37376 5.33213 6.15198 5.11035 6.15198 4.83709V1.02422C6.15198 0.750957 6.37376 0.529175 6.64703 0.529175C6.92029 0.529175 7.14208 0.750957 7.14208 1.02422V4.83709C7.14208 5.1106 6.92054 5.33213 6.64703 5.33213Z" fill="black"/>
<path d="M9.56188 5.33213C9.28862 5.33213 9.06683 5.11035 9.06683 4.83709V1.02422C9.06683 0.750957 9.28862 0.529175 9.56188 0.529175C9.83515 0.529175 10.0569 0.750957 10.0569 1.02422V4.83709C10.0569 5.1106 9.83515 5.33213 9.56188 5.33213Z" fill="black"/>
<path d="M12.5461 5.33213C12.2728 5.33213 12.051 5.11035 12.051 4.83709V1.02422C12.051 0.750957 12.2728 0.529175 12.5461 0.529175C12.8193 0.529175 13.0411 0.750957 13.0411 1.02422V4.83709C13.0411 5.1106 12.8193 5.33213 12.5461 5.33213Z" fill="black"/>
<path d="M16.7178 25.2535H2.47503C2.20176 25.2535 1.97998 25.0317 1.97998 24.7585C1.97998 24.4852 2.20176 24.2634 2.47503 24.2634H16.7178C16.9911 24.2634 17.2129 24.4852 17.2129 24.7585C17.2129 25.0317 16.9914 25.2535 16.7178 25.2535Z" fill="black"/>
<path d="M18.432 17.8542H16.8859V16.8641H18.432C20.2899 16.8641 21.8013 15.3522 21.8013 13.4938C21.8013 11.6356 20.2899 10.1238 18.432 10.1238H16.8859V9.13367H18.432C20.8359 9.13367 22.7914 11.0896 22.7914 13.4938C22.7914 15.8983 20.8359 17.8542 18.432 17.8542Z" fill="black"/>
<path d="M9.59656 23.5071C5.39681 23.5071 1.97998 20.0901 1.97998 15.8903V6.6366H17.2129V15.8903C17.2129 20.0903 13.7961 23.5071 9.59656 23.5071ZM2.97008 7.6267V15.8903C2.97008 19.5445 5.9426 22.517 9.59656 22.517C13.2505 22.517 16.2228 19.5443 16.2228 15.8903V7.6267H2.97008Z" fill="black"/>
</g>
</g>
</g>
<defs>
<clipPath id="clip0_1102_229">
<rect width="25" height="25" fill="white" transform="translate(0 0.5)"/>
</clipPath>
<clipPath id="clip1_1102_229">
<rect width="25" height="25" fill="white" transform="translate(0 0.5)"/>
</clipPath>
<clipPath id="clip2_1102_229">
<rect width="21.0396" height="25" fill="white" transform="translate(1.98022 0.5)"/>
</clipPath>
</defs>
</svg>
