<svg width="51" height="51" viewBox="0 0 51 51" fill="none" xmlns="http://www.w3.org/2000/svg">
<g clip-path="url(#clip0_1102_826)" filter="url(#filter0_f_1102_826)">
<g clip-path="url(#clip1_1102_826)">
<g clip-path="url(#clip2_1102_826)">
<path d="M45.3852 33.3066C45.1983 33.6555 44.8998 33.7605 44.5166 33.7492C43.9392 33.7306 43.3608 33.744 42.7525 33.744C42.6905 35.0346 42.2113 36.0936 41.2032 36.8779C40.4534 37.4614 39.592 37.73 38.6418 37.6971C37.0119 37.6415 35.0113 36.4302 34.8409 33.7728C30.2024 33.7728 25.5628 33.7728 20.8892 33.7728C20.8282 35.083 20.317 36.1647 19.248 36.9479C18.4919 37.5016 17.6367 37.7445 16.702 37.693C15.1723 37.6086 13.1696 36.4878 12.9796 33.744C12.8474 33.744 12.7111 33.744 12.5747 33.744C11.6452 33.744 10.7156 33.7492 9.78603 33.743C8.88952 33.7368 8.37413 33.2171 8.3669 32.3227C8.3638 31.9275 8.36587 31.5323 8.36587 31.0938C7.78437 31.0938 7.24523 31.0949 6.70608 31.0928C6.55115 31.0928 6.39416 31.099 6.24233 31.0774C5.93351 31.0321 5.75793 30.8314 5.7321 30.5329C5.70422 30.2129 5.86534 29.9875 6.17933 29.899C6.3012 29.864 6.43444 29.8609 6.56251 29.8609C8.40821 29.8588 10.255 29.8588 12.1006 29.8598C12.1905 29.8598 12.2824 29.8588 12.3713 29.8732C12.7142 29.9288 12.9383 30.1912 12.9228 30.5093C12.9073 30.8304 12.6677 31.0794 12.3144 31.0856C11.5656 31.1 10.8168 31.0918 10.068 31.0928C9.9296 31.0928 9.7912 31.0928 9.63007 31.0928C9.63007 31.5724 9.63007 32.0036 9.63007 32.4688C9.72509 32.4812 9.82218 32.5059 9.9203 32.5059C10.9273 32.509 11.9344 32.5007 12.9414 32.5131C13.1614 32.5152 13.245 32.4277 13.3339 32.2393C14.0455 30.7244 15.2508 29.8794 16.9282 29.8753C18.621 29.8722 19.8398 30.713 20.5514 32.2507C20.6413 32.4452 20.7435 32.5121 20.9553 32.5121C25.0474 32.5059 29.1406 32.5079 33.2327 32.5069C33.3205 32.5069 33.4083 32.4925 33.5385 32.4822C33.5385 32.3289 33.5385 32.192 33.5385 32.0541C33.5385 30.7552 33.5385 29.4554 33.5385 28.1565C33.5385 28.0536 33.5333 27.9497 33.5416 27.8478C33.5715 27.4855 33.8287 27.2272 34.1551 27.222C34.5021 27.2169 34.7727 27.4814 34.7748 27.8704C34.783 29.2598 34.7789 30.6492 34.7789 32.0386C34.7789 32.1282 34.7624 32.2229 34.7851 32.3073C34.8047 32.3783 34.8646 32.4843 34.9152 32.4905C34.9834 32.4977 35.0671 32.4308 35.129 32.3783C35.1631 32.3495 35.1652 32.2846 35.1879 32.2383C35.9078 30.7264 37.11 29.8815 38.7864 29.8763C40.4802 29.8712 41.6969 30.7172 42.4117 32.2507C42.5025 32.4462 42.5996 32.5213 42.8124 32.5131C43.2359 32.4987 43.6604 32.509 44.1138 32.509C44.1138 31.5992 44.1138 30.7192 44.1138 29.7734C43.8979 29.7734 43.6717 29.7785 43.4455 29.7724C42.3073 29.7415 41.5162 28.9408 41.4996 27.8046C41.4935 27.4063 41.4935 27.0069 41.4996 26.6086C41.5079 26.128 41.7289 25.9078 42.2185 25.9016C42.799 25.8944 43.3794 25.8995 44.0115 25.8995C43.9175 25.4909 43.7141 25.1688 43.4001 24.9836C43.0448 24.7736 42.6327 24.5348 42.2412 24.5287C39.8151 24.4875 37.3868 24.507 34.9597 24.507C34.9111 24.507 34.8626 24.5225 34.7768 24.5369C34.7768 24.7623 34.7851 24.9774 34.7748 25.1925C34.7562 25.563 34.5114 25.811 34.1726 25.8172C33.838 25.8234 33.5777 25.5774 33.5426 25.2131C33.5312 25.0978 33.5374 24.9815 33.5374 24.8662C33.5374 21.3927 33.5374 17.9192 33.5374 14.4457C33.5374 14.2934 33.5374 14.14 33.5374 13.962C25.5628 13.962 17.6161 13.962 9.60632 13.962C9.60632 14.1081 9.60632 14.2563 9.60632 14.4045C9.60632 17.8904 9.60632 21.3773 9.60632 24.8631C9.60632 24.9918 9.61251 25.1215 9.59909 25.2491C9.56397 25.5939 9.35843 25.7904 9.02069 25.8121C8.69741 25.8326 8.48051 25.6536 8.39685 25.3448C8.3607 25.211 8.36587 25.0649 8.36587 24.9239C8.36483 21.3474 8.3638 17.771 8.36483 14.1946C8.36793 13.1952 8.86473 12.7002 9.86659 12.7002C17.677 12.7002 25.4884 12.7002 33.2988 12.7002C34.2873 12.7002 34.7779 13.186 34.781 14.1627C34.782 14.5342 34.781 14.9047 34.781 15.3143C34.9442 15.3215 35.0805 15.3339 35.2168 15.3339C36.5461 15.3349 37.8774 15.3617 39.2057 15.3277C40.8758 15.2855 42.3342 16.4331 42.0429 18.6921C42.0161 18.898 41.7971 19.0781 41.6174 19.3467C41.9118 20.522 42.2288 21.8054 42.5614 23.0837C42.5872 23.1825 42.7019 23.307 42.7979 23.3317C44.184 23.6878 45.0248 24.5585 45.3305 25.9489C45.3387 25.985 45.3666 26.0158 45.3842 26.0498C45.3852 28.4694 45.3852 30.888 45.3852 33.3066ZM41.292 23.2494C41.2704 23.129 41.2569 23.0291 41.2332 22.9314C40.9584 21.8229 40.6734 20.7165 40.41 19.605C40.3429 19.322 40.2313 19.2139 39.9225 19.218C38.3495 19.2355 36.7754 19.2252 35.2013 19.2273C35.0753 19.2273 34.9504 19.2386 34.8151 19.2448C34.8151 20.5992 34.8151 21.9248 34.8151 23.2504C36.9882 23.2494 39.1262 23.2494 41.292 23.2494ZM38.8153 36.4652C40.283 36.459 41.4976 35.2425 41.4966 33.779C41.4955 32.3145 40.2819 31.1072 38.808 31.1021C37.3228 31.0969 36.0886 32.332 36.1071 33.8047C36.1257 35.2734 37.3466 36.4724 38.8153 36.4652ZM16.9447 36.4652C18.4165 36.4641 19.6239 35.2621 19.6322 33.7893C19.6415 32.3258 18.4382 31.1175 16.9581 31.1021C15.476 31.0866 14.2428 32.3124 14.249 33.7944C14.2562 35.259 15.475 36.4662 16.9447 36.4652ZM34.8047 16.5761C34.8047 17.0722 34.8047 17.5034 34.8047 17.9521C36.8177 17.9521 38.808 17.9521 40.7973 17.9521C40.82 17.1525 40.2375 16.5874 39.3906 16.5782C38.462 16.5689 37.5335 16.5761 36.606 16.5761C36.0142 16.5761 35.4244 16.5761 34.8047 16.5761ZM44.1231 27.1623C43.6583 27.1623 43.2152 27.1623 42.7762 27.1623C42.6234 28.349 42.9467 28.668 44.1231 28.4951C44.1231 28.067 44.1231 27.6347 44.1231 27.1623Z" fill="#4A5568"/>
<path d="M20.9316 24.3238C22.4809 22.7759 24.0033 21.2557 25.5257 19.7356C25.817 19.4444 26.1041 19.1469 26.4037 18.8639C26.698 18.585 27.0451 18.5737 27.3022 18.8155C27.5656 19.0636 27.5687 19.4454 27.2743 19.7398C25.3161 21.6993 23.3537 23.6558 21.3861 25.6061C21.0742 25.9159 20.7519 25.9056 20.4328 25.5907C19.3596 24.5317 18.2927 23.4665 17.2278 22.3981C16.9221 22.0904 16.9076 21.7374 17.1659 21.475C17.4365 21.2002 17.7907 21.2177 18.1202 21.5419C18.9548 22.3652 19.7831 23.1958 20.6145 24.0232C20.7034 24.1118 20.7984 24.1972 20.9316 24.3238Z" fill="#4A5568"/>
<path d="M26.8703 31.0939C25.4243 31.0939 23.9793 31.0939 22.5333 31.0928C22.4042 31.0928 22.2741 31.0969 22.1471 31.0784C21.8176 31.03 21.641 30.8129 21.6275 30.501C21.6141 30.2046 21.7701 29.9803 22.0706 29.9C22.2049 29.864 22.3516 29.8599 22.492 29.8599C25.4222 29.8578 28.3514 29.8578 31.2816 29.8588C31.3714 29.8588 31.4634 29.8568 31.5522 29.8681C31.9157 29.9175 32.1543 30.1882 32.1326 30.5175C32.112 30.8376 31.8713 31.0743 31.516 31.0867C31.0523 31.1021 30.5865 31.0928 30.1227 31.0928C29.0382 31.0949 27.9548 31.0939 26.8703 31.0939Z" fill="#4A5568"/>
<path d="M11.6473 28.4541C10.3707 28.4541 9.0931 28.4551 7.8165 28.4531C7.329 28.452 7.046 28.2205 7.0491 27.8366C7.0522 27.4599 7.34656 27.2211 7.82786 27.2201C10.3821 27.218 12.9363 27.2201 15.4906 27.218C15.7839 27.218 16.0617 27.289 16.1568 27.5741C16.2177 27.7563 16.2146 28.0486 16.1051 28.1741C15.9698 28.3306 15.6951 28.4386 15.4782 28.4428C14.2016 28.4664 12.9239 28.4541 11.6473 28.4541Z" fill="#4A5568"/>
<path d="M38.8059 32.5132C39.5196 32.5153 40.0887 33.0823 40.0846 33.7873C40.0815 34.4851 39.4938 35.0676 38.7976 35.0656C38.0984 35.0635 37.52 34.48 37.521 33.7801C37.5231 33.071 38.0912 32.5111 38.8059 32.5132Z" fill="#4A5568"/>
<path d="M16.9302 32.513C17.649 32.5068 18.2119 33.0585 18.2171 33.7727C18.2222 34.4818 17.6583 35.0582 16.9539 35.0654C16.2609 35.0726 15.6659 34.489 15.6566 33.7943C15.6463 33.0955 16.2196 32.5181 16.9302 32.513Z" fill="#4A5568"/>
</g>
</g>
</g>
<defs>
<filter id="filter0_f_1102_826" x="0.72998" y="0.200195" width="50" height="50" filterUnits="userSpaceOnUse" color-interpolation-filters="sRGB">
<feFlood flood-opacity="0" result="BackgroundImageFix"/>
<feBlend mode="normal" in="SourceGraphic" in2="BackgroundImageFix" result="shape"/>
<feGaussianBlur stdDeviation="2.5" result="effect1_foregroundBlur_1102_826"/>
</filter>
<clipPath id="clip0_1102_826">
<rect width="40" height="40" fill="white" transform="translate(5.72998 5.2002)"/>
</clipPath>
<clipPath id="clip1_1102_826">
<rect width="40" height="40" fill="white" transform="translate(5.72998 5.2002)"/>
</clipPath>
<clipPath id="clip2_1102_826">
<rect width="40" height="25" fill="white" transform="translate(5.72998 12.7002)"/>
</clipPath>
</defs>
</svg>
