<svg width="51" height="51" viewBox="0 0 51 51" fill="none" xmlns="http://www.w3.org/2000/svg">
<g clip-path="url(#clip0_1102_837)" filter="url(#filter0_f_1102_837)">
<g clip-path="url(#clip1_1102_837)">
<g clip-path="url(#clip2_1102_837)">
<path d="M38.8126 12.7122C38.8319 13.1493 38.858 13.5852 38.8705 14.0222C38.8818 14.3971 39.0597 14.632 39.4236 14.7235C40.0676 14.885 40.7149 15.0352 41.3565 15.2068C41.683 15.2938 42.0107 15.3931 42.3202 15.5275C43.4844 16.03 43.9481 16.9741 43.5694 18.1746C43.3756 18.7889 43.0922 19.3784 42.8133 19.9621C42.1252 21.3974 42.1308 21.428 43.3938 22.4285C43.8699 22.8057 44.3517 23.1851 44.7677 23.6233C45.737 24.6442 45.745 25.7666 44.761 26.7773C44.2122 27.342 43.5671 27.814 42.9618 28.3233C42.2271 28.9398 42.1966 29.0529 42.5911 29.9404C42.8949 30.6225 43.2475 31.2865 43.498 31.9878C44.0127 33.4288 43.5229 34.4564 42.0764 34.9612C41.3588 35.2118 40.6015 35.3497 39.8635 35.5382C38.9521 35.7708 38.8875 35.8374 38.8466 36.7612C38.8138 37.4941 38.841 38.2305 38.7877 38.9611C38.6811 40.4235 37.7697 41.2682 36.4297 41.1665C36.0215 41.1361 35.6157 41.0604 35.2132 40.9848C34.685 40.8853 34.1589 40.7724 33.6363 40.6493C33.1659 40.5387 32.8382 40.6945 32.6274 41.1248C32.3677 41.6566 32.1183 42.1953 31.8293 42.7114C31.5969 43.1281 31.3532 43.5505 31.0436 43.9107C30.4202 44.6345 29.571 44.8209 28.7004 44.4222C28.2559 44.2189 27.8478 43.9253 27.4454 43.6419C27.0407 43.3585 26.67 43.0265 26.2709 42.7339C25.618 42.2552 25.4457 42.254 24.8029 42.7249C24.4038 43.0174 24.0319 43.3483 23.6295 43.634C23.2385 43.9118 22.8451 44.1997 22.4142 44.4019C21.4994 44.8322 20.6027 44.6413 19.9713 43.8553C19.613 43.4092 19.3489 42.8853 19.0666 42.3827C18.8319 41.9649 18.6278 41.5301 18.4181 41.0998C18.214 40.681 17.8886 40.5454 17.4397 40.6448C16.763 40.795 16.0873 40.952 15.4048 41.0694C15.0183 41.1361 14.6135 41.1766 14.2247 41.144C13.2089 41.0581 12.5344 40.4777 12.3678 39.4726C12.2533 38.7826 12.2431 38.07 12.2397 37.3665C12.2306 35.7754 12.2419 35.781 10.6764 35.4129C10.0857 35.274 9.48827 35.1396 8.91918 34.9352C7.57353 34.4518 7.06564 33.431 7.53159 32.0804C7.78779 31.3373 8.16303 30.6361 8.48272 29.9145C8.86136 29.0596 8.82962 28.9342 8.11201 28.3312C7.51684 27.8321 6.88313 27.3691 6.34011 26.818C5.30281 25.7656 5.30394 24.626 6.34464 23.5736C6.89787 23.0134 7.54406 22.5437 8.14943 22.0332C8.81715 21.4709 8.85569 21.3162 8.49972 20.5132C8.19137 19.8177 7.8286 19.1424 7.57126 18.4286C7.04524 16.9639 7.53385 15.9374 9.0042 15.4281C9.72295 15.1797 10.4791 15.0419 11.2182 14.8533C12.1036 14.6264 12.1739 14.5541 12.2136 13.6563C12.2465 12.9234 12.2215 12.1871 12.2725 11.4565C12.3836 9.87551 13.3257 9.09743 14.906 9.2578C15.2291 9.29054 15.5499 9.35152 15.8685 9.41476C16.3957 9.51865 16.9217 9.62933 17.4454 9.74903C17.8978 9.85292 18.2174 9.70499 18.4215 9.29054C18.6267 8.87271 18.8319 8.45488 19.0507 8.04495C19.283 7.61019 19.4985 7.16073 19.783 6.76097C20.5267 5.71865 21.5742 5.48602 22.6841 6.12971C23.1942 6.42558 23.6681 6.79372 24.1306 7.163C25.5159 8.27081 25.5454 8.27193 26.9205 7.17316C27.383 6.80388 27.8547 6.43348 28.3649 6.13535C29.4849 5.48038 30.5505 5.71865 31.2954 6.78243C31.5934 7.20703 31.818 7.68471 32.0639 8.14433C32.2771 8.54183 32.4743 8.94725 32.6783 9.35039C32.8643 9.71741 33.1636 9.84163 33.5593 9.75919C34.2519 9.61351 34.9412 9.45767 35.6372 9.32894C35.9694 9.26683 36.3129 9.22053 36.6495 9.23069C37.9137 9.27022 38.6675 10.0404 38.7889 11.4012C38.8274 11.8359 38.8308 12.2741 38.85 12.7111C38.8364 12.7111 38.8251 12.7122 38.8126 12.7122ZM14.0717 37.5834C14.0717 38.017 14.0626 38.4404 14.0739 38.8628C14.0841 39.24 14.2644 39.4365 14.6702 39.354C15.2801 39.2298 15.8912 39.1169 16.5 38.9893C18.5813 38.5534 19.4247 38.9633 20.3419 40.865C20.5437 41.284 20.741 41.7064 20.9575 42.1173C21.3906 42.9395 21.5039 42.9654 22.2363 42.4178C22.6331 42.1219 23.0162 41.8091 23.4051 41.5019C24.9899 40.2496 26.0453 40.245 27.6302 41.485C28.0985 41.8508 28.5575 42.2281 29.0417 42.5714C29.5438 42.927 29.6526 42.9045 29.9542 42.3579C30.3147 41.7041 30.6163 41.0174 30.9779 40.3636C31.7171 39.0232 32.5617 38.6257 34.0706 38.9001C34.7666 39.0266 35.4514 39.2073 36.1474 39.3292C36.8479 39.4523 36.9761 39.3427 36.9988 38.6358C37.0203 37.973 36.9965 37.3089 37.0214 36.646C37.0838 35.0098 37.6778 34.2621 39.257 33.8341C39.8715 33.6682 40.4972 33.5484 41.1129 33.3881C41.9642 33.1657 42.0209 33.0482 41.6706 32.2544C41.3747 31.5835 41.0414 30.9297 40.7569 30.2544C40.275 29.1093 40.4916 28.103 41.4279 27.2664C41.5969 27.1149 41.7646 26.9636 41.9393 26.8202C42.3655 26.4701 42.8053 26.136 43.2214 25.7746C43.7893 25.28 43.7883 25.1116 43.2101 24.6125C42.7498 24.215 42.2646 23.8468 41.7953 23.4618C40.4281 22.3416 40.1957 21.3907 40.9076 19.7758C41.1751 19.1694 41.4823 18.5811 41.742 17.9713C41.9959 17.375 41.9324 17.244 41.301 17.069C40.5516 16.8612 39.7898 16.7008 39.0405 16.4976C37.8445 16.1735 37.145 15.4157 37.0645 14.1555C37.0316 13.6495 37.0293 13.1414 37.0147 12.6343C37.0033 12.2673 37.001 11.9003 36.9841 11.5344C36.967 11.1584 36.7947 10.9596 36.3877 11.042C35.7778 11.1663 35.1657 11.2758 34.558 11.4068C32.497 11.8529 31.6377 11.4339 30.7161 9.53108C30.4769 9.03646 30.2399 8.53845 29.9724 8.05851C29.6549 7.49048 29.5279 7.46451 28.994 7.85185C28.5133 8.19966 28.0577 8.58248 27.5871 8.94499C26.0397 10.1375 24.9979 10.1341 23.4629 8.93595C23.4074 8.89191 23.354 8.84561 23.2985 8.8027C22.8723 8.4752 22.4562 8.13416 22.0163 7.82588C21.5118 7.47128 21.4042 7.49161 21.1037 8.03705C20.7433 8.69203 20.4417 9.3775 20.0812 10.0313C19.3431 11.3718 18.5043 11.767 16.9886 11.4949C16.2925 11.3707 15.6078 11.1888 14.9117 11.0669C14.2088 10.9438 14.083 11.0522 14.0603 11.7603C14.0399 12.4231 14.0637 13.0872 14.0376 13.75C13.973 15.3931 13.3858 16.1294 11.8021 16.5619C11.2296 16.7178 10.6457 16.8352 10.0698 16.9798C9.05976 17.2339 9.02347 17.3163 9.43953 18.2581C9.76943 19.0045 10.1277 19.742 10.4099 20.5065C10.7455 21.4145 10.5029 22.2286 9.83858 22.9174C9.61298 23.1513 9.36811 23.3669 9.11984 23.5758C8.70832 23.9214 8.2764 24.2433 7.87168 24.5956C7.26064 25.1275 7.26064 25.2754 7.88415 25.8118C8.42944 26.2827 9.01667 26.7073 9.5495 27.1917C10.6163 28.1641 10.8045 29.0065 10.2648 30.3469C10.0177 30.9602 9.7082 31.5497 9.43612 32.1538C9.02347 33.0708 9.06995 33.1622 10.0449 33.413C10.8113 33.6094 11.5889 33.7709 12.3406 34.0137C13.3257 34.331 13.8699 35.047 13.9753 36.0736C14.024 36.5782 14.0399 37.0853 14.0717 37.5834Z" fill="#4A5568"/>
<path d="M19.18 32.5535C18.8806 32.3265 18.5826 32.1819 18.4057 31.9471C18.1881 31.6579 18.2345 31.3011 18.4545 30.9985C18.5451 30.8743 18.6585 30.7647 18.7684 30.6552C22.8462 26.592 26.924 22.53 31.0029 18.468C31.123 18.3483 31.2433 18.2253 31.3816 18.1293C31.7296 17.8898 32.2171 17.943 32.513 18.2366C32.8099 18.5302 32.8654 19.0135 32.6274 19.3635C32.5333 19.5025 32.4086 19.6222 32.2896 19.7418C28.2028 23.8152 24.116 27.8884 20.0211 31.955C19.8035 32.1718 19.5144 32.3186 19.18 32.5535Z" fill="#4A5568"/>
<path d="M24.1682 20.6928C24.1625 22.4363 22.7171 23.857 20.9621 23.8422C19.2345 23.8288 17.8071 22.3889 17.8163 20.669C17.8253 18.9458 19.2526 17.524 20.9837 17.5149C22.7261 17.5059 24.1738 18.9491 24.1682 20.6928ZM19.6449 20.6758C19.6426 21.4166 20.2389 22.0275 20.978 22.0411C21.7183 22.0536 22.369 21.4053 22.3588 20.6678C22.3486 19.9316 21.7353 19.3354 20.9916 19.3365C20.2343 19.3376 19.6471 19.9226 19.6449 20.6758Z" fill="#4A5568"/>
<path d="M26.891 29.7213C26.8887 27.9913 28.3058 26.5661 30.0369 26.556C31.7918 26.5458 33.2361 27.9676 33.2418 29.7112C33.2474 31.4446 31.7873 32.8946 30.0482 32.8833C28.3159 32.8709 26.8932 31.4469 26.891 29.7213ZM31.4142 29.719C31.4154 28.9782 30.8169 28.3674 30.0788 28.3572C29.342 28.3459 28.689 28.9986 28.7014 29.7338C28.7139 30.4689 29.3283 31.0652 30.0709 31.0618C30.8213 31.0584 31.4121 30.4689 31.4142 29.719Z" fill="#4A5568"/>
</g>
</g>
</g>
<defs>
<filter id="filter0_f_1102_837" x="0.560059" y="0.200195" width="50" height="50" filterUnits="userSpaceOnUse" color-interpolation-filters="sRGB">
<feFlood flood-opacity="0" result="BackgroundImageFix"/>
<feBlend mode="normal" in="SourceGraphic" in2="BackgroundImageFix" result="shape"/>
<feGaussianBlur stdDeviation="2.5" result="effect1_foregroundBlur_1102_837"/>
</filter>
<clipPath id="clip0_1102_837">
<rect width="40" height="40" fill="white" transform="translate(5.56006 5.2002)"/>
</clipPath>
<clipPath id="clip1_1102_837">
<rect width="40" height="40" fill="white" transform="translate(5.56006 5.2002)"/>
</clipPath>
<clipPath id="clip2_1102_837">
<rect width="40" height="38.8571" fill="white" transform="translate(5.56006 5.77173)"/>
</clipPath>
</defs>
</svg>
