<svg width="35" height="36" viewBox="0 0 35 36" fill="none" xmlns="http://www.w3.org/2000/svg">
<g clip-path="url(#clip0_1102_283)" filter="url(#filter0_f_1102_283)">
<g clip-path="url(#clip1_1102_283)">
<g clip-path="url(#clip2_1102_283)">
<path d="M17.4173 29.2576C17.4173 29.4809 17.2362 29.6621 17.0128 29.6621H12.1149C11.4154 29.6621 10.8462 29.0929 10.8462 28.3933V16.1214C10.8462 14.2011 12.0079 12.4666 13.7652 11.7187V7.72232C13.6154 7.58134 13.5252 7.38224 13.5252 7.168V6.26117C13.5252 5.93791 13.7306 5.64902 14.0364 5.5423C14.1176 5.51422 14.2014 5.50012 14.2863 5.50012H16.9723C17.0573 5.50012 17.141 5.51422 17.2214 5.54207C17.528 5.64913 17.7334 5.93802 17.7334 6.26123V7.16805C17.7334 7.38229 17.6432 7.58134 17.4934 7.72238V11.7188C18.467 12.1334 19.2802 12.8611 19.8032 13.7922C19.9125 13.9869 19.8433 14.2335 19.6486 14.3429C19.4537 14.4522 19.2073 14.383 19.0978 14.1883C18.6233 13.3431 17.8616 12.6994 16.9531 12.3758C16.792 12.3184 16.6845 12.1658 16.6845 11.9948V7.92911H16.5926C16.3692 7.92911 16.1881 7.74803 16.1881 7.52467C16.1881 7.30129 16.3692 7.12021 16.5926 7.12021H16.9245V6.30896H14.3341V7.12021H14.6661C14.8895 7.12021 15.0706 7.30129 15.0706 7.52467C15.0706 7.74803 14.8895 7.92911 14.6661 7.92911H14.5741V11.9947C14.5741 12.1657 14.4666 12.3183 14.3055 12.3757C12.7202 12.9406 11.655 14.446 11.655 16.1214V28.3933C11.655 28.6468 11.8613 28.8531 12.1149 28.8531H17.0128C17.2362 28.8531 17.4173 29.0342 17.4173 29.2576ZM13.9694 13.6593C13.0993 14.1552 12.5587 15.0816 12.5587 16.0768V27.0798C12.5587 27.3032 12.7398 27.4843 12.9632 27.4843C13.1865 27.4843 13.3676 27.3032 13.3676 27.0798V16.0768C13.3676 15.3715 13.7517 14.7145 14.37 14.3621C14.564 14.2514 14.6316 14.0045 14.521 13.8105C14.4105 13.6164 14.1635 13.5486 13.9694 13.6593ZM22.2461 20.8672C22.0243 20.8937 21.866 21.095 21.8924 21.3168C21.9359 21.6813 21.8126 22.0479 21.5452 22.3491C21.2129 22.7234 20.7143 22.9468 20.2114 22.9468C19.9881 22.9468 19.8069 23.128 19.8069 23.3514C19.8069 23.5747 19.9881 23.7558 20.2114 23.7558C20.9419 23.7558 21.6667 23.4306 22.1501 22.8861C22.5732 22.4095 22.7669 21.8182 22.6956 21.2209C22.6692 20.9991 22.468 20.8405 22.2461 20.8672ZM23.2784 23.9836C22.6032 24.7443 21.63 25.2343 20.6159 25.3384V29.6911H21.9036C22.1269 29.6911 22.308 29.8722 22.308 30.0955C22.308 30.3189 22.1269 30.5 21.9036 30.5H20.2183C20.216 30.5001 20.2137 30.5001 20.2114 30.5001C20.2091 30.5001 20.2069 30.5001 20.2045 30.5H18.5193C18.2959 30.5 18.1148 30.3189 18.1148 30.0955C18.1148 29.8722 18.2959 29.6911 18.5193 29.6911H19.807V25.3384C18.7928 25.2343 17.8197 24.7443 17.1444 23.9835C16.4834 23.2388 16.1804 22.3172 16.2914 21.3884L16.5864 18.9181C16.587 18.9127 16.5876 18.9074 16.5883 18.9021L16.9217 16.1105C16.946 15.9072 17.1185 15.7541 17.3233 15.7541H23.0996C23.3044 15.7541 23.4769 15.9072 23.5012 16.1105L24.1316 21.3884C24.2424 22.3172 23.9394 23.2389 23.2784 23.9836ZM23.3283 21.4843L22.7405 16.563H17.6823L17.4198 18.7611C18.508 19.4193 20.3216 19.3839 21.8476 18.651C22.0488 18.5543 22.2906 18.6391 22.3873 18.8404C22.484 19.0418 22.3992 19.2834 22.1978 19.3801C20.548 20.1726 18.6448 20.2483 17.317 19.6221L17.0946 21.4843C17.0114 22.1803 17.2439 22.8771 17.7493 23.4465C18.3629 24.1376 19.2832 24.5503 20.2114 24.5503C21.1395 24.5503 22.0599 24.1376 22.6735 23.4465C23.1788 22.8772 23.4115 22.1803 23.3283 21.4843Z" fill="#222222"/>
</g>
</g>
</g>
<defs>
<filter id="filter0_f_1102_283" x="0" y="0.5" width="35" height="35" filterUnits="userSpaceOnUse" color-interpolation-filters="sRGB">
<feFlood flood-opacity="0" result="BackgroundImageFix"/>
<feBlend mode="normal" in="SourceGraphic" in2="BackgroundImageFix" result="shape"/>
<feGaussianBlur stdDeviation="2.5" result="effect1_foregroundBlur_1102_283"/>
</filter>
<clipPath id="clip0_1102_283">
<rect width="25" height="25" fill="white" transform="translate(5 5.5)"/>
</clipPath>
<clipPath id="clip1_1102_283">
<rect width="25" height="25" fill="white" transform="translate(5 5.5)"/>
</clipPath>
<clipPath id="clip2_1102_283">
<rect width="13.7097" height="25" fill="white" transform="translate(10.6451 5.5)"/>
</clipPath>
</defs>
</svg>
