<svg width="25" height="26" viewBox="0 0 25 26" fill="none" xmlns="http://www.w3.org/2000/svg">
<g clip-path="url(#clip0_1102_258)">
<g clip-path="url(#clip1_1102_258)">
<g clip-path="url(#clip2_1102_258)">
<path d="M1.66356 16.4887C1.73784 16.2413 1.98517 16.0927 2.23252 16.167L4.23667 16.7113L6.21594 15.6229L3.79142 14.2127C3.56877 14.089 3.49449 13.8168 3.61816 13.5942C3.74182 13.3715 4.01405 13.2973 4.23669 13.4209L7.13141 15.1032L11.6095 12.6292L7.40343 9.78402L4.5583 11.4416C4.48401 11.491 4.40994 11.5159 4.33566 11.5159C4.1873 11.5159 4.03874 11.4416 3.93976 11.2933C3.8161 11.0706 3.89038 10.7984 4.11302 10.6747L6.58713 9.23972L4.63256 7.92835L2.45533 8.54689C2.40595 8.54689 2.38106 8.57159 2.33167 8.57159C2.13373 8.57159 1.96047 8.44791 1.88639 8.24997C1.81211 8.00264 1.96068 7.7551 2.20801 7.68101L3.64304 7.28511L2.45558 6.49334C2.25763 6.34498 2.18335 6.07276 2.33191 5.85015C2.48027 5.6522 2.7525 5.57792 2.97512 5.72648L4.01425 6.4193L3.71733 5.15757C3.66795 4.91023 3.8163 4.6627 4.06363 4.61332C4.31097 4.56392 4.5585 4.71228 4.60788 4.95961L5.12744 7.18621L7.00773 8.44795L7.18098 5.6769C7.20568 5.42957 7.40362 5.23161 7.65095 5.2563C7.89829 5.28101 8.09623 5.47895 8.07154 5.72628L7.8736 9.04159L12.0299 11.8126V6.2954L9.16005 4.48941C8.93741 4.36574 8.88782 4.06882 9.01169 3.87086C9.13536 3.64822 9.43228 3.59864 9.63023 3.72251L12.0301 5.2069V3.25234L10.3231 1.71836C10.1251 1.54511 10.1251 1.27309 10.2984 1.07516C10.4716 0.877215 10.7436 0.877215 10.9416 1.05047L12.0301 2.03998L12.0299 1.39678C12.0299 1.14945 12.2278 0.951505 12.4751 0.951505C12.7225 0.951505 12.9204 1.14945 12.9204 1.39678V2.03998L13.9842 1.07513C14.1824 0.877181 14.4793 0.902079 14.6523 1.07513C14.8256 1.24838 14.8006 1.5451 14.6277 1.71833L12.9453 3.2523V5.20686L15.4935 3.69777C15.7161 3.5741 15.9884 3.64837 16.1121 3.84612C16.2358 4.06876 16.1615 4.34099 15.9637 4.46466L12.9453 6.24599V11.887L16.8792 9.70983L16.6318 6.4688C16.6072 6.22147 16.805 5.99884 17.0524 5.97393C17.2998 5.94924 17.5224 6.1472 17.5473 6.39453L17.7453 9.21495L19.9967 7.97786L20.6896 5.85022C20.7638 5.60289 21.0359 5.47902 21.2585 5.5533C21.5059 5.62758 21.6298 5.8996 21.5555 6.12226L21.1596 7.33464L22.1244 6.81508C22.3471 6.69141 22.6193 6.76568 22.743 6.98833C22.8666 7.21097 22.7923 7.4832 22.5697 7.60688L21.6296 8.12643L23.1385 8.49742C23.386 8.54702 23.5343 8.79435 23.4603 9.04168C23.4109 9.23963 23.2129 9.38798 23.015 9.38798H22.916L20.4419 8.81902L18.24 10.0314L20.6152 11.4911C20.8379 11.6147 20.8874 11.9117 20.7636 12.1096C20.6893 12.258 20.5162 12.3323 20.3677 12.3323C20.2934 12.3323 20.1944 12.3076 20.1203 12.258L17.2999 10.5261L13.3661 12.7033L16.8297 15.0289L19.9224 13.4704C20.145 13.3468 20.4173 13.4457 20.5409 13.6683C20.6646 13.8909 20.5656 14.1632 20.343 14.2869L17.7205 15.5982L20.1204 17.2063L22.5944 16.7611C22.8418 16.7117 23.0893 16.8846 23.1141 17.1323C23.1635 17.3795 22.9904 17.6271 22.7429 17.6518L21.2088 17.924L22.2727 18.6415C22.4706 18.7899 22.5449 19.0621 22.3963 19.2848C22.2974 19.4083 22.1737 19.4826 22.0252 19.4826C21.9261 19.4826 21.8518 19.458 21.7778 19.4083L20.8129 18.7651L21.2583 20.2992C21.3325 20.5464 21.184 20.794 20.9366 20.8681C20.8872 20.8681 20.8623 20.8929 20.8129 20.8929C20.615 20.8929 20.4417 20.7692 20.3677 20.5712L19.6255 17.9981L17.3246 16.4642L17.5472 19.4082C17.5719 19.6555 17.374 19.8782 17.1267 19.9031H17.1019C16.8547 19.9031 16.6567 19.7298 16.6567 19.4825L16.3844 15.8208L12.9455 13.4951V18.6906L15.9392 20.2246C16.1618 20.3483 16.2609 20.6205 16.1372 20.8432C16.0135 21.0658 15.7412 21.1648 15.5186 21.0411L12.9455 19.7298V21.9563L14.8505 24.1088C15.0237 24.3068 14.9988 24.5788 14.8011 24.752C14.6031 24.9252 14.3311 24.9004 14.1579 24.7026L12.9455 23.3173V24.6286C12.9455 24.8759 12.7476 25.0738 12.5003 25.0738C12.2529 25.0738 12.055 24.8759 12.055 24.6286V23.3668L10.9169 24.7029C10.8179 24.8018 10.6943 24.8512 10.5706 24.8512C10.4716 24.8512 10.3726 24.8265 10.2737 24.7523C10.0757 24.579 10.051 24.307 10.2243 24.109L12.0552 21.9565V19.804L9.63067 21.0411C9.55638 21.0658 9.48231 21.0905 9.43272 21.0905C9.25947 21.0905 9.11111 20.9915 9.03682 20.8432C8.91316 20.6205 9.01213 20.3483 9.23478 20.2246L12.0799 18.7896L12.0797 13.4458L7.65118 15.895L7.79954 19.2104C7.79954 19.4577 7.62627 19.6804 7.35426 19.6804H7.32957C7.08224 19.6804 6.88429 19.4824 6.88429 19.235L6.76062 16.3652L4.73198 17.4786L4.11344 19.8784C4.06405 20.0764 3.8661 20.2248 3.66816 20.2248C3.64346 20.2248 3.59387 20.2248 3.54449 20.2C3.29716 20.1258 3.1486 19.8784 3.22288 19.6558L3.59348 18.0969L2.65333 18.6164C2.57905 18.6658 2.50498 18.6658 2.43069 18.6658C2.28234 18.6658 2.10909 18.5915 2.0348 18.4432C1.91114 18.2206 1.98542 17.9483 2.20806 17.8246L3.09882 17.3298L1.98545 17.0329C1.73812 16.9834 1.58927 16.7361 1.66356 16.4887Z" fill="#222222"/>
</g>
</g>
</g>
<defs>
<clipPath id="clip0_1102_258">
<rect width="25" height="25" fill="white" transform="translate(0 0.5)"/>
</clipPath>
<clipPath id="clip1_1102_258">
<rect width="25" height="25" fill="white" transform="translate(0 0.5)"/>
</clipPath>
<clipPath id="clip2_1102_258">
<rect width="22.619" height="25" fill="white" transform="translate(1.19049 0.5)"/>
</clipPath>
</defs>
</svg>
