<svg width="56" height="56" viewBox="0 0 56 56" fill="none" xmlns="http://www.w3.org/2000/svg">
<g clip-path="url(#clip0_1102_708)" filter="url(#filter0_f_1102_708)">
<g clip-path="url(#clip1_1102_708)">
<g clip-path="url(#clip2_1102_708)">
<path d="M8.79431 33.8697C8.92802 33.4244 9.37321 33.157 9.81844 33.2907L13.4259 34.2704L16.9886 32.3112L12.6245 29.773C12.2237 29.5503 12.09 29.0603 12.3126 28.6596C12.5352 28.2588 13.0252 28.1251 13.426 28.3478L18.6364 31.3758L26.697 26.9226L19.1261 21.8013L14.0048 24.785C13.8711 24.8739 13.7378 24.9187 13.6041 24.9187C13.337 24.9187 13.0696 24.785 12.8915 24.518C12.6689 24.1172 12.8026 23.6272 13.2034 23.4046L17.6567 20.8216L14.1385 18.4611L10.2195 19.5745C10.1306 19.5745 10.0858 19.6189 9.99692 19.6189C9.64061 19.6189 9.32875 19.3963 9.19542 19.04C9.06171 18.5948 9.32914 18.1492 9.77432 18.0159L12.3574 17.3033L10.22 15.8781C9.86364 15.611 9.72994 15.121 9.99735 14.7203C10.2644 14.364 10.7544 14.2303 11.1551 14.4977L13.0256 15.7448L12.4911 13.4737C12.4022 13.0285 12.6692 12.5829 13.1144 12.494C13.5596 12.4051 14.0052 12.6722 14.0941 13.1174L15.0293 17.1252L18.4138 19.3964L18.7257 14.4085C18.7701 13.9633 19.1264 13.607 19.5716 13.6514C20.0168 13.6959 20.3731 14.0522 20.3287 14.4974L19.9724 20.4649L27.4537 25.4528V15.5218L22.288 12.271C21.8872 12.0484 21.798 11.5139 22.021 11.1576C22.2436 10.7569 22.778 10.6676 23.1343 10.8906L27.4541 13.5625V10.0443L24.3814 7.28312C24.0251 6.97126 24.0251 6.48162 24.337 6.12536C24.6488 5.76905 25.1385 5.76905 25.4947 6.08091L27.454 7.86203L27.4537 6.70427C27.4537 6.25907 27.81 5.90277 28.2552 5.90277C28.7004 5.90277 29.0567 6.25908 29.0567 6.70427V7.86203L30.9715 6.1253C31.3283 5.76899 31.8627 5.8138 32.174 6.1253C32.486 6.43715 32.441 6.97124 32.1297 7.28305L29.1014 10.0442V13.5624L33.6882 10.846C34.0889 10.6234 34.579 10.7571 34.8016 11.1131C35.0243 11.5138 34.8905 12.0039 34.5346 12.2265L29.1015 15.4329V25.5867L36.1825 21.6678L35.7372 15.8339C35.6928 15.3887 36.049 14.988 36.4943 14.9431C36.9395 14.8987 37.3403 15.255 37.385 15.7002L37.7414 20.777L41.794 18.5502L43.0411 14.7205C43.1748 14.2753 43.6645 14.0523 44.0652 14.186C44.5105 14.3197 44.7335 14.8093 44.5998 15.2101L43.8871 17.3924L45.6239 16.4572C46.0246 16.2346 46.5147 16.3683 46.7373 16.7691C46.9598 17.1698 46.826 17.6598 46.4253 17.8824L44.7331 18.8176L47.4492 19.4854C47.8947 19.5747 48.1617 20.0199 48.0284 20.4651C47.9395 20.8214 47.5831 21.0884 47.227 21.0884H47.0487L42.5954 20.0643L38.632 22.2466L42.9072 24.874C43.3081 25.0966 43.3973 25.6311 43.1744 25.9874C43.0407 26.2544 42.7291 26.3881 42.4617 26.3881C42.328 26.3881 42.1499 26.3437 42.0164 26.2544L36.9398 23.137L29.8589 27.0561L36.0933 31.2421L41.6603 28.4367C42.061 28.2143 42.551 28.3923 42.7735 28.7931C42.9961 29.1938 42.818 29.6838 42.4173 29.9065L37.6968 32.2668L42.0166 35.1614L46.4699 34.36C46.9152 34.2711 47.3607 34.5824 47.4053 35.0281C47.4942 35.4732 47.1826 35.9189 46.7371 35.9633L43.9758 36.4533L45.8907 37.7448C46.247 38.0118 46.3808 38.5019 46.1133 38.9026C45.9353 39.1251 45.7126 39.2588 45.4452 39.2588C45.2669 39.2588 45.1332 39.2144 44.9999 39.1251L43.2631 37.9673L44.0648 40.7286C44.1985 41.1736 43.931 41.6193 43.4858 41.7526C43.3968 41.7526 43.352 41.7972 43.2631 41.7972C42.907 41.7972 42.595 41.5746 42.4617 41.2182L41.1258 36.5866L36.9841 33.8256L37.3848 39.1248C37.4294 39.5699 37.073 39.9708 36.628 40.0156H36.5834C36.1383 40.0156 35.782 39.7036 35.782 39.2586L35.2919 32.6676L29.1018 28.4813V37.8331L34.4905 40.5944C34.8912 40.8171 35.0695 41.3069 34.8468 41.7078C34.6242 42.1086 34.1341 42.2866 33.7334 42.064L29.1018 39.7036V43.7114L32.5308 47.5859C32.8426 47.9423 32.7978 48.4319 32.4419 48.7437C32.0855 49.0555 31.5959 49.0107 31.2841 48.6548L29.1019 46.1611V48.5215C29.1019 48.9668 28.7456 49.3229 28.3004 49.3229C27.8552 49.3229 27.4989 48.9668 27.4989 48.5215V46.2503L25.4503 48.6552C25.2722 48.8333 25.0496 48.9222 24.827 48.9222C24.6488 48.9222 24.4707 48.8778 24.2925 48.7441C23.9362 48.4323 23.8918 47.9427 24.2036 47.5863L27.4993 43.7118V39.8373L23.1351 42.064C23.0014 42.1086 22.8681 42.1529 22.7788 42.1529C22.4669 42.1529 22.1999 41.9748 22.0662 41.7078C21.8436 41.3069 22.0217 40.8171 22.4225 40.5944L27.5437 38.0114L27.5434 28.3926L19.572 32.8011L19.8391 38.7687C19.8391 39.214 19.5272 39.6147 19.0376 39.6147H18.9931C18.5479 39.6147 18.1916 39.2583 18.1916 38.8131L17.969 33.6475L14.3175 35.6515L13.2041 39.9713C13.1152 40.3276 12.7589 40.5946 12.4026 40.5946C12.3581 40.5946 12.2689 40.5946 12.18 40.5501C11.7348 40.4166 11.4674 39.9713 11.6011 39.5706L12.2682 36.7645L10.5759 37.6996C10.4422 37.7886 10.3089 37.7886 10.1752 37.7886C9.90812 37.7886 9.59626 37.6548 9.46255 37.3878C9.23995 36.9871 9.37366 36.4971 9.77441 36.2744L11.3778 35.3836L9.37373 34.8492C8.92853 34.7603 8.6606 34.315 8.79431 33.8697Z" fill="#222222"/>
</g>
</g>
</g>
<defs>
<filter id="filter0_f_1102_708" x="0.799988" y="0.0900269" width="55" height="55" filterUnits="userSpaceOnUse" color-interpolation-filters="sRGB">
<feFlood flood-opacity="0" result="BackgroundImageFix"/>
<feBlend mode="normal" in="SourceGraphic" in2="BackgroundImageFix" result="shape"/>
<feGaussianBlur stdDeviation="2.5" result="effect1_foregroundBlur_1102_708"/>
</filter>
<clipPath id="clip0_1102_708">
<rect width="45" height="45" fill="white" transform="translate(5.79999 5.09003)"/>
</clipPath>
<clipPath id="clip1_1102_708">
<rect width="45" height="45" fill="white" transform="translate(5.79999 5.09003)"/>
</clipPath>
<clipPath id="clip2_1102_708">
<rect width="40.7143" height="45" fill="white" transform="translate(7.94284 5.09003)"/>
</clipPath>
</defs>
</svg>
