<svg width="25" height="26" viewBox="0 0 25 26" fill="none" xmlns="http://www.w3.org/2000/svg">
<g clip-path="url(#clip0_1102_273)">
<g clip-path="url(#clip1_1102_273)">
<g clip-path="url(#clip2_1102_273)">
<path d="M11.1174 24.2235C11.1057 24.2235 11.0942 24.2235 11.0804 24.2213C8.36507 24.0336 6.12156 22.9307 4.41194 20.9425C1.62491 17.6975 0.399671 12.23 0.958917 5.54761C0.982106 5.26161 1.21316 5.02514 1.515 5.06524C5.27181 5.28481 9.38842 7.47562 12.2603 10.7829C14.8744 13.7915 16.1575 17.3139 15.879 20.7072C15.8548 20.9954 15.6111 21.2043 15.3091 21.1896C15.019 21.1654 14.8026 20.9088 14.8257 20.6208C15.0811 17.5149 13.8865 14.2668 11.4625 11.4745C8.90442 8.52702 5.31116 6.52711 1.96862 6.16217C1.54746 12.2375 2.71799 17.3535 5.20944 20.2559C6.72695 22.0224 8.72686 23.0039 11.1495 23.1685C11.4398 23.1896 11.6592 23.4407 11.6403 23.7309C11.6254 24.0096 11.394 24.2235 11.1174 24.2235Z" fill="#222222"/>
<path d="M13.8833 25.1583C13.6416 25.1583 13.4243 24.9916 13.3694 24.7457C12.0967 19.0795 6.01796 11.7125 3.44126 9.22405C3.23132 9.0235 3.22484 8.69008 3.42644 8.47906C3.62908 8.27016 3.96456 8.26493 4.17244 8.46424C6.82117 11.0255 13.0732 18.6165 14.3974 24.5132C14.4617 24.7992 14.2823 25.0779 13.9986 25.1465C13.9605 25.1548 13.9214 25.1583 13.8833 25.1583Z" fill="#222222"/>
<path d="M15.4051 19.561C15.1602 19.561 14.9418 19.3902 14.8892 19.1409C14.8289 18.8559 15.0125 18.5762 15.2975 18.516C23.2458 16.8529 23.2998 6.02032 23.0265 1.94029C18.436 2.43833 13.6493 5.95679 11.4891 10.4838C11.3636 10.7477 11.0469 10.8573 10.7854 10.7328C10.5226 10.6073 10.4108 10.2929 10.5363 10.03C12.933 5.00581 18.3771 1.1421 23.4819 0.843681C23.7626 0.816314 24.0158 1.04214 24.038 1.32605C24.8863 11.4424 21.6994 18.2543 15.5132 19.55C15.4761 19.5564 15.4408 19.561 15.4051 19.561Z" fill="#222222"/>
<path d="M13.8823 14.6285C13.7916 14.6285 13.6998 14.6063 13.6164 14.5566C13.3653 14.4078 13.2809 14.0869 13.4286 13.8327C15.8559 9.69072 19.2024 5.80478 20.8602 4.2009C21.0712 4.00138 21.4049 4.00347 21.6062 4.21572C21.8078 4.42255 21.8037 4.76037 21.5935 4.96172C19.9778 6.5225 16.7127 10.3162 14.3384 14.3695C14.2391 14.533 14.0627 14.6285 13.8823 14.6285Z" fill="#222222"/>
</g>
</g>
</g>
<defs>
<clipPath id="clip0_1102_273">
<rect width="25" height="25" fill="white" transform="translate(0 0.5)"/>
</clipPath>
<clipPath id="clip1_1102_273">
<rect width="25" height="25" fill="white" transform="translate(0 0.5)"/>
</clipPath>
<clipPath id="clip2_1102_273">
<rect width="25" height="25" fill="white" transform="translate(0 0.5)"/>
</clipPath>
</defs>
</svg>
