<svg width="149" height="53" viewBox="0 0 149 53" fill="none" xmlns="http://www.w3.org/2000/svg">
<g clip-path="url(#clip0_1102_937)" filter="url(#filter0_f_1102_937)">
<g clip-path="url(#clip1_1102_937)">
<g clip-path="url(#clip2_1102_937)">
<path d="M138.865 47.4401H10.6006C7.77877 47.4401 5.46997 45.1276 5.46997 42.3011V11.4663C5.46997 8.63975 7.77872 6.32715 10.6006 6.32715H138.865C141.686 6.32715 143.996 8.63975 143.996 11.4663V42.301C143.996 45.1276 141.686 47.4401 138.865 47.4401Z" fill="black"/>
<path d="M138.865 6.32715H10.6006C7.77877 6.32715 5.46997 8.63975 5.46997 11.4663V42.301C5.46997 45.1276 7.77872 47.4401 10.6006 47.4401H138.865C141.686 47.4401 143.996 45.1276 143.996 42.3011V11.4663C143.996 8.63975 141.686 6.32715 138.865 6.32715ZM138.865 7.14938C141.241 7.14938 143.175 9.08626 143.175 11.4663V42.301C143.175 44.6815 141.241 46.6184 138.865 46.6184H10.6006C8.22451 46.6184 6.29087 44.6814 6.29087 42.3011V11.4663C6.29087 9.08626 8.22446 7.14943 10.6006 7.14943L138.865 7.14938Z" fill="#A6A6A6"/>
<path d="M33.2881 26.7267C33.3001 25.786 33.5481 24.8637 34.009 24.0456C34.4698 23.2275 35.1284 22.54 35.9238 22.0473C35.4185 21.3202 34.752 20.7218 33.9771 20.2997C33.2023 19.8775 32.3405 19.6433 31.46 19.6155C29.5819 19.4168 27.7611 20.748 26.804 20.748C25.8285 20.748 24.3549 19.6352 22.7681 19.6681C21.7418 19.7017 20.7415 20.0023 19.8649 20.5411C18.9882 21.08 18.2649 21.8383 17.7656 22.7425C15.6025 26.5163 17.216 32.0623 19.288 35.1129C20.3246 36.6065 21.5361 38.275 23.1215 38.2158C24.6728 38.1509 25.2523 37.2189 27.1247 37.2189C28.98 37.2189 29.5236 38.2158 31.141 38.1782C32.8058 38.1509 33.8546 36.6779 34.8548 35.17C35.5997 34.1056 36.1729 32.9293 36.553 31.6846C35.586 31.2724 34.7607 30.5825 34.1801 29.7009C33.5995 28.8192 33.2893 27.7848 33.2881 26.7267ZM30.233 17.6094C31.1407 16.5114 31.5879 15.1001 31.4795 13.6753C30.0929 13.8221 28.812 14.4899 27.8921 15.5458C27.4423 16.0616 27.0979 16.6616 26.8783 17.3117C26.6589 17.9617 26.5686 18.649 26.6129 19.3342C27.3065 19.3413 27.9927 19.1898 28.6198 18.891C29.2468 18.5923 29.7983 18.1541 30.233 17.6094ZM51.9001 34.5845H46.8092L45.5867 38.2221H43.4303L48.2524 24.7636H50.4927L55.3147 38.2221H53.1217L51.9001 34.5845ZM47.3365 32.9059H51.3718L49.3826 27.0023H49.3269L47.3365 32.9059ZM65.7285 33.3166C65.7285 36.3657 64.1089 38.3247 61.6648 38.3247C61.0458 38.3574 60.43 38.2137 59.8882 37.9101C59.3464 37.6064 58.9003 37.1552 58.6012 36.608H58.5549V41.4681H56.5561V28.4098H58.4907V30.0419H58.5276C58.8405 29.4974 59.2941 29.0484 59.84 28.743C60.386 28.4376 61.0039 28.2869 61.6281 28.3073C64.0994 28.3073 65.7285 30.276 65.7285 33.3166ZM63.6741 33.3166C63.6741 31.33 62.6553 30.0239 61.1009 30.0239C59.5736 30.0239 58.5465 31.3574 58.5465 33.3165C58.5465 35.2936 59.5736 36.6177 61.1009 36.6177C62.6553 36.6177 63.6741 35.3212 63.6741 33.3166ZM76.4464 33.3166C76.4464 36.3657 74.8263 38.3247 72.3822 38.3247C71.7632 38.3574 71.1474 38.2137 70.6056 37.9101C70.0638 37.6064 69.6177 37.1552 69.3184 36.608H69.2723V41.4681H67.2735V28.4098H69.2081V30.0419H69.245C69.5579 29.4974 70.0115 29.0484 70.5574 28.743C71.1034 28.4376 71.7213 28.2869 72.3454 28.3073C74.8169 28.3073 76.4464 30.276 76.4464 33.3166ZM74.3915 33.3166C74.3915 31.33 73.3727 30.0239 71.8182 30.0239C70.291 30.0239 69.2639 31.3574 69.2639 33.3165C69.2639 35.2936 70.291 36.6177 71.8182 36.6177C73.3727 36.6177 74.3915 35.3212 74.3915 33.3166ZM83.5287 34.4722C83.6768 35.8068 84.9634 36.6832 86.7216 36.6832C88.4063 36.6832 89.6183 35.8068 89.6183 34.6035C89.6183 33.5587 88.8874 32.9334 87.1565 32.5047L85.4256 32.0845C82.9731 31.4876 81.8346 30.3318 81.8346 28.4563C81.8346 26.1343 83.8428 24.5393 86.6933 24.5393C89.5166 24.5393 91.4512 26.1343 91.5164 28.4563H89.4987C89.378 27.1133 88.276 26.3025 86.666 26.3025C85.0559 26.3025 83.9541 27.1229 83.9541 28.3166C83.9541 29.2682 84.6577 29.828 86.3792 30.2566L87.8507 30.6208C90.591 31.2738 91.7285 32.383 91.7285 34.3515C91.7285 36.8694 89.7392 38.4464 86.5735 38.4464C83.6115 38.4464 81.6118 36.9064 81.4826 34.4722H83.5287ZM96.0442 26.0879V28.4098H97.896V30.0049H96.0442V35.4142C96.0442 36.2545 96.4149 36.6461 97.229 36.6461C97.4488 36.6423 97.6682 36.6267 97.8864 36.5996V38.1851C97.5205 38.254 97.1485 38.2851 96.7763 38.2781C94.8049 38.2781 94.036 37.532 94.036 35.6291V30.0049H92.6202V28.4098H94.036V26.0879H96.0442ZM98.9672 33.3166C98.9672 30.2292 100.772 28.2892 103.586 28.2892C106.409 28.2892 108.205 30.2292 108.205 33.3166C108.205 36.4123 106.418 38.3437 103.585 38.3437C100.754 38.3437 98.9672 36.4123 98.9672 33.3166ZM106.168 33.3166C106.168 31.1987 105.205 29.9486 103.585 29.9486C101.966 29.9486 101.003 31.2081 101.003 33.3166C101.003 35.4429 101.966 36.6832 103.585 36.6832C105.205 36.6832 106.168 35.4429 106.168 33.3166ZM109.853 28.4098H111.759V30.08H111.805C111.934 29.5583 112.237 29.0974 112.664 28.7745C113.091 28.4517 113.614 28.2866 114.148 28.3073C114.378 28.3064 114.607 28.3316 114.832 28.3824V30.2663C114.541 30.1768 114.238 30.1356 113.934 30.1445C113.644 30.1327 113.354 30.1843 113.086 30.2957C112.817 30.4073 112.575 30.576 112.377 30.7905C112.18 31.005 112.03 31.26 111.939 31.5383C111.849 31.8165 111.819 32.1111 111.852 32.402V38.2221H109.853V28.4098ZM124.048 35.3401C123.779 37.1214 122.057 38.3437 119.855 38.3437C117.022 38.3437 115.264 36.4314 115.264 33.363C115.264 30.2853 117.032 28.2892 119.771 28.2892C122.465 28.2892 124.159 30.1541 124.159 33.1291V33.8192H117.282V33.9409C117.25 34.302 117.295 34.6658 117.413 35.0082C117.532 35.3504 117.721 35.6635 117.969 35.9263C118.217 36.1892 118.517 36.3959 118.85 36.5329C119.183 36.6697 119.542 36.7336 119.901 36.7203C120.373 36.7648 120.847 36.6547 121.253 36.406C121.658 36.1572 121.972 35.7835 122.15 35.3401H124.048ZM117.291 32.4116H122.159C122.177 32.0869 122.128 31.7619 122.016 31.4572C121.903 31.1524 121.729 30.8744 121.505 30.6405C121.281 30.4067 121.011 30.222 120.713 30.0982C120.414 29.9745 120.093 29.9142 119.771 29.9212C119.445 29.9192 119.123 29.9822 118.821 30.1066C118.52 30.231 118.247 30.4142 118.016 30.6458C117.785 30.8772 117.603 31.1525 117.478 31.4556C117.354 31.7587 117.29 32.0836 117.291 32.4116ZM47.0866 14.6335C47.5056 14.6032 47.9261 14.6669 48.3177 14.8202C48.7093 14.9735 49.0623 15.2125 49.3511 15.5199C49.64 15.8273 49.8576 16.1954 49.9882 16.5978C50.1187 17.0002 50.159 17.4268 50.1061 17.8468C50.1061 19.9127 48.998 21.1002 47.0866 21.1002H44.7685V14.6334L47.0866 14.6335ZM45.7652 20.1857H46.9752C47.2746 20.2037 47.5743 20.1542 47.8523 20.0408C48.1304 19.9275 48.3798 19.753 48.5826 19.5303C48.7853 19.3074 48.9362 19.0419 49.0242 18.7529C49.1123 18.464 49.1352 18.1589 49.0915 17.8599C49.132 17.562 49.1068 17.2588 49.0174 16.972C48.928 16.6851 48.7768 16.4218 48.5744 16.2008C48.3722 15.9798 48.1239 15.8066 47.8474 15.6936C47.571 15.5806 47.2731 15.5307 46.9752 15.5473H45.7652V20.1857ZM51.2321 18.6579C51.2016 18.3372 51.2381 18.0137 51.3389 17.708C51.4399 17.4023 51.6031 17.1212 51.8181 16.8828C52.0333 16.6444 52.2953 16.4539 52.5877 16.3235C52.8801 16.1932 53.1963 16.1258 53.516 16.1258C53.8357 16.1258 54.1519 16.1932 54.4443 16.3235C54.7367 16.4539 54.9987 16.6444 55.2139 16.8828C55.4289 17.1212 55.5921 17.4023 55.6929 17.708C55.7939 18.0137 55.8303 18.3372 55.7998 18.6579C55.8309 18.979 55.7951 19.3032 55.6945 19.6095C55.5939 19.9156 55.4308 20.1973 55.2156 20.4363C55.0005 20.6752 54.7382 20.8663 54.4455 20.9968C54.1528 21.1275 53.8362 21.1951 53.516 21.1951C53.1958 21.1951 52.8792 21.1275 52.5865 20.9968C52.2938 20.8663 52.0315 20.6752 51.8163 20.4363C51.6012 20.1973 51.4381 19.9156 51.3375 19.6095C51.2369 19.3032 51.201 18.979 51.2321 18.6579ZM54.8168 18.6579C54.8168 17.6001 54.3452 16.9815 53.5177 16.9815C52.6868 16.9815 52.2194 17.6001 52.2194 18.6579C52.2194 19.7244 52.6869 20.3382 53.5177 20.3382C54.3452 20.3382 54.8168 19.72 54.8168 18.6579ZM61.8718 21.1001H60.8801L59.8793 17.5059H59.8036L58.807 21.1001H57.825L56.49 16.2199H57.4594L58.327 19.9438H58.3984L59.3942 16.2199H60.311L61.3068 19.9438H61.3823L62.2457 16.2199H63.2015L61.8718 21.1001ZM64.3242 16.22H65.2443V16.9952H65.3157C65.4369 16.7168 65.6413 16.4833 65.9003 16.3275C66.1594 16.1716 66.4603 16.1011 66.761 16.1257C66.9966 16.1079 67.2333 16.1437 67.4533 16.2305C67.6734 16.3173 67.8713 16.4529 68.0322 16.6272C68.1932 16.8015 68.3132 17.0101 68.3834 17.2375C68.4535 17.4649 68.4719 17.7053 68.4373 17.9408V21.1001H67.4815V18.1827C67.4815 17.3985 67.1433 17.0085 66.4365 17.0085C66.2764 17.001 66.1168 17.0284 65.9682 17.0889C65.8198 17.1494 65.686 17.2416 65.5763 17.359C65.4663 17.4765 65.3831 17.6165 65.3319 17.7694C65.2808 17.9224 65.2631 18.0847 65.28 18.2452V21.1001H64.3242V16.22ZM69.9602 14.3148H70.9159V21.1001H69.9602V14.3148ZM72.2447 18.6579C72.2142 18.3372 72.2507 18.0136 72.3515 17.7078C72.4525 17.4021 72.6157 17.121 72.8308 16.8825C73.0458 16.6441 73.308 16.4536 73.6004 16.3232C73.8929 16.1928 74.209 16.1255 74.5288 16.1255C74.8486 16.1255 75.1649 16.1928 75.4573 16.3232C75.7497 16.4536 76.0118 16.6441 76.227 16.8825C76.4419 17.121 76.6052 17.4021 76.7062 17.7078C76.8071 18.0136 76.8435 18.3372 76.813 18.6579C76.844 18.979 76.8079 19.303 76.7073 19.6092C76.6066 19.9154 76.4433 20.1969 76.2282 20.4358C76.0131 20.6746 75.7508 20.8655 75.4582 20.9961C75.1655 21.1266 74.8489 21.1942 74.5288 21.1942C74.2088 21.1942 73.8922 21.1266 73.5995 20.9961C73.3069 20.8655 73.0446 20.6746 72.8294 20.4358C72.6143 20.1969 72.4511 19.9154 72.3505 19.6092C72.2498 19.303 72.2137 18.979 72.2447 18.6579ZM75.8294 18.6579C75.8294 17.6001 75.3578 16.9815 74.5301 16.9815C73.6994 16.9815 73.232 17.6001 73.232 18.6579C73.232 19.7244 73.6995 20.3382 74.5301 20.3382C75.3578 20.3382 75.8294 19.72 75.8294 18.6579ZM77.8192 19.72C77.8192 18.8416 78.4683 18.3351 79.6205 18.2632L80.9323 18.1869V17.7657C80.9323 17.2503 80.5941 16.9593 79.9408 16.9593C79.4073 16.9593 79.0375 17.1566 78.9316 17.5017H78.0062C78.1037 16.6634 78.8863 16.1258 79.985 16.1258C81.1992 16.1258 81.8839 16.7349 81.8839 17.7657V21.1001H80.9638V20.4143H80.8881C80.7347 20.6603 80.5191 20.8609 80.2636 20.9956C80.008 21.1301 79.7216 21.194 79.4336 21.1806C79.2302 21.2019 79.0248 21.1801 78.8303 21.1164C78.636 21.0528 78.4569 20.9489 78.3048 20.8113C78.1527 20.6736 78.0309 20.5054 77.9473 20.3176C77.8636 20.1296 77.82 19.9261 77.8192 19.72ZM80.9323 19.303V18.895L79.7497 18.9711C79.0827 19.0161 78.7802 19.2449 78.7802 19.675C78.7802 20.1143 79.1583 20.37 79.6783 20.37C79.8305 20.3855 79.9844 20.37 80.1307 20.3243C80.2771 20.2787 80.4128 20.2039 80.5297 20.1044C80.6468 20.0049 80.7426 19.8826 80.8118 19.7449C80.881 19.6073 80.9219 19.457 80.9323 19.303ZM83.1401 18.6579C83.1401 17.1159 83.9267 16.1391 85.1503 16.1391C85.4531 16.125 85.7535 16.198 86.0164 16.3497C86.2795 16.5013 86.4942 16.7252 86.6355 16.9952H86.7069V14.3147H87.6626V21.1001H86.7468V20.3289H86.6712C86.519 20.5972 86.2968 20.8183 86.0287 20.9684C85.7606 21.1185 85.4569 21.1918 85.1505 21.1805C83.9184 21.1805 83.1401 20.2037 83.1401 18.6579ZM84.1274 18.6579C84.1274 19.693 84.6116 20.3159 85.4213 20.3159C86.2268 20.3159 86.7248 19.6841 86.7248 18.6622C86.7248 17.6451 86.2217 17.0042 85.4213 17.0042C84.6168 17.0042 84.1274 17.6313 84.1274 18.6579ZM91.6171 18.6579C91.5867 18.3372 91.6231 18.0137 91.724 17.708C91.825 17.4023 91.9882 17.1212 92.2032 16.8828C92.4182 16.6444 92.6804 16.4539 92.9728 16.3235C93.2651 16.1932 93.5813 16.1258 93.9011 16.1258C94.2207 16.1258 94.537 16.1932 94.8292 16.3235C95.1216 16.4539 95.3838 16.6444 95.5988 16.8828C95.8139 17.1212 95.9771 17.4023 96.078 17.708C96.179 18.0137 96.2153 18.3372 96.1849 18.6579C96.216 18.979 96.1801 19.3032 96.0795 19.6095C95.9788 19.9156 95.8157 20.1973 95.6007 20.4363C95.3856 20.6752 95.1232 20.8663 94.8305 20.9968C94.5378 21.1275 94.2211 21.1951 93.9011 21.1951C93.5809 21.1951 93.2643 21.1275 92.9715 20.9968C92.6788 20.8663 92.4165 20.6752 92.2014 20.4363C91.9863 20.1973 91.8232 19.9156 91.7226 19.6095C91.622 19.3032 91.586 18.979 91.6171 18.6579ZM95.2018 18.6579C95.2018 17.6001 94.7303 16.9815 93.9026 16.9815C93.0718 16.9815 92.6045 17.6001 92.6045 18.6579C92.6045 19.7244 93.072 20.3382 93.9026 20.3382C94.7303 20.3382 95.2018 19.72 95.2018 18.6579ZM97.4673 16.22H98.3874V16.9952H98.4588C98.58 16.7168 98.7844 16.4833 99.0435 16.3275C99.3025 16.1716 99.6034 16.1011 99.9041 16.1257C100.14 16.1079 100.376 16.1437 100.597 16.2305C100.816 16.3173 101.014 16.4529 101.175 16.6272C101.336 16.8015 101.456 17.0101 101.526 17.2375C101.597 17.4649 101.615 17.7053 101.58 17.9408V21.1001H100.625V18.1827C100.625 17.3985 100.286 17.0085 99.5796 17.0085C99.4195 17.001 99.2599 17.0284 99.1113 17.0889C98.9629 17.1494 98.8291 17.2416 98.7194 17.359C98.6096 17.4765 98.5262 17.6165 98.475 17.7694C98.4239 17.9224 98.4062 18.0847 98.4231 18.2452V21.1001H97.4674L97.4673 16.22ZM106.981 15.005V16.2422H108.031V17.0534H106.981V19.5628C106.981 20.074 107.19 20.2979 107.666 20.2979C107.788 20.2975 107.909 20.29 108.03 20.2756V21.0779C107.859 21.1089 107.685 21.1254 107.51 21.1272C106.448 21.1272 106.024 20.7503 106.024 19.8095V17.0534H105.256V16.2421H106.024V15.0051L106.981 15.005ZM109.336 14.3148H110.283V17.0042H110.359C110.486 16.7232 110.696 16.4884 110.96 16.332C111.225 16.1755 111.53 16.105 111.836 16.1299C112.07 16.1171 112.304 16.1565 112.522 16.2454C112.74 16.3344 112.935 16.4706 113.094 16.6444C113.254 16.8181 113.373 17.0252 113.444 17.2508C113.514 17.4764 113.535 17.7149 113.504 17.9494V21.1001H112.547V18.1869C112.547 17.4074 112.186 17.0127 111.511 17.0127C111.347 16.9991 111.182 17.0219 111.027 17.0794C110.872 17.1369 110.732 17.2277 110.616 17.3456C110.5 17.4634 110.411 17.6054 110.355 17.7616C110.299 17.9178 110.277 18.0845 110.292 18.2499V21.1001H109.336V14.3148ZM119.077 19.7824C118.947 20.2284 118.665 20.6143 118.282 20.8724C117.898 21.1305 117.437 21.2445 116.978 21.1944C116.659 21.2029 116.342 21.1413 116.049 21.0139C115.756 20.8865 115.494 20.6964 115.281 20.4567C115.068 20.2171 114.909 19.9336 114.816 19.626C114.723 19.3183 114.697 18.9941 114.741 18.6754C114.698 18.3559 114.724 18.0308 114.817 17.7222C114.91 17.4137 115.068 17.1289 115.28 16.8871C115.492 16.6453 115.753 16.4522 116.045 16.3209C116.337 16.1895 116.654 16.123 116.974 16.1257C118.321 16.1257 119.134 17.0534 119.134 18.5859V18.922H115.715V18.976C115.7 19.155 115.722 19.3353 115.78 19.5052C115.838 19.675 115.931 19.8308 116.052 19.9624C116.174 20.094 116.321 20.1987 116.485 20.2696C116.649 20.3404 116.826 20.3761 117.004 20.374C117.233 20.4017 117.465 20.3603 117.67 20.2548C117.875 20.1495 118.044 19.985 118.156 19.7824H119.077ZM115.715 18.2097H118.161C118.173 18.0459 118.151 17.8814 118.096 17.7267C118.041 17.5721 117.955 17.4307 117.842 17.3116C117.73 17.1925 117.594 17.0985 117.444 17.0354C117.293 16.9724 117.132 16.9417 116.969 16.9455C116.803 16.9434 116.639 16.9747 116.486 17.0375C116.333 17.1003 116.194 17.1933 116.077 17.3111C115.96 17.429 115.868 17.5692 115.806 17.7235C115.743 17.8778 115.712 18.0431 115.715 18.2097Z" fill="white"/>
</g>
</g>
</g>
<defs>
<filter id="filter0_f_1102_937" x="0" y="0.360107" width="149" height="52.0801" filterUnits="userSpaceOnUse" color-interpolation-filters="sRGB">
<feFlood flood-opacity="0" result="BackgroundImageFix"/>
<feBlend mode="normal" in="SourceGraphic" in2="BackgroundImageFix" result="shape"/>
<feGaussianBlur stdDeviation="2.5" result="effect1_foregroundBlur_1102_937"/>
</filter>
<clipPath id="clip0_1102_937">
<rect width="139" height="42.08" fill="white" transform="translate(5 5.36011)"/>
</clipPath>
<clipPath id="clip1_1102_937">
<rect width="139" height="42.08" fill="white" transform="translate(5 5.36011)"/>
</clipPath>
<clipPath id="clip2_1102_937">
<rect width="138.992" height="42.08" fill="white" transform="translate(5.00427 5.36011)"/>
</clipPath>
</defs>
</svg>
