<svg width="149" height="53" viewBox="0 0 149 53" fill="none" xmlns="http://www.w3.org/2000/svg">
<g clip-path="url(#clip0_1102_913)" filter="url(#filter0_f_1102_913)">
<g clip-path="url(#clip1_1102_913)">
<g clip-path="url(#clip2_1102_913)">
<path d="M138.399 47.3349H10.1348C7.31303 47.3349 5.00424 45.0223 5.00424 42.1958V11.3611C5.00424 8.53452 7.31299 6.22192 10.1348 6.22192H138.399C141.221 6.22192 143.53 8.53452 143.53 11.3611V42.1958C143.53 45.0223 141.221 47.3349 138.399 47.3349Z" fill="black"/>
<path d="M138.399 6.22192H10.1348C7.31303 6.22192 5.00424 8.53452 5.00424 11.3611V42.1958C5.00424 45.0223 7.31299 47.3349 10.1348 47.3349H138.399C141.221 47.3349 143.53 45.0223 143.53 42.1958V11.3611C143.53 8.53452 141.221 6.22192 138.399 6.22192ZM138.399 7.04415C140.776 7.04415 142.709 8.98103 142.709 11.3611V42.1958C142.709 44.5762 140.776 46.513 138.399 46.513H10.1348C7.75877 46.513 5.82514 44.5762 5.82514 42.1958V11.3611C5.82514 8.98103 7.75874 7.0442 10.1348 7.0442L138.399 7.04415Z" fill="#A6A6A6"/>
<path d="M53.661 16.7499C53.661 17.611 53.4063 18.2967 52.8965 18.8083C52.3173 19.4166 51.5625 19.7209 50.6345 19.7209C49.746 19.7209 48.9903 19.4126 48.3691 18.7951C47.7467 18.178 47.4361 17.4127 47.4361 16.4997C47.4361 15.5863 47.7467 14.8215 48.3691 14.2039C48.9903 13.5869 49.746 13.2781 50.6345 13.2781C51.0755 13.2781 51.4977 13.3645 51.8985 13.5367C52.2992 13.7094 52.6207 13.9386 52.8612 14.2256L52.32 14.768C51.9125 14.2802 51.3513 14.0365 50.6345 14.0365C49.9865 14.0365 49.4261 14.2646 48.9531 14.7211C48.4802 15.178 48.2436 15.7706 48.2436 16.4997C48.2436 17.2289 48.4802 17.8214 48.9531 18.2784C49.4261 18.7349 49.9865 18.9629 50.6345 18.9629C51.3221 18.9629 51.8953 18.7336 52.3542 18.2744C52.6521 17.9752 52.8242 17.5593 52.8704 17.0252H50.6345V16.2845H53.618C53.6468 16.4456 53.661 16.6001 53.661 16.7499Z" fill="white"/>
<path d="M53.6607 16.7499H53.5581C53.5573 17.5914 53.312 18.245 52.8237 18.7356L52.8226 18.7365C52.2617 19.3238 51.5405 19.6168 50.6343 19.6181C49.7695 19.6168 49.0456 19.3214 48.441 18.7223C47.8379 18.1221 47.5396 17.3894 47.5385 16.4997C47.5396 15.6096 47.8379 14.8773 48.441 14.2775C49.0456 13.678 49.7695 13.3821 50.6343 13.3808C51.0621 13.3808 51.4694 13.4645 51.8576 13.631C52.2464 13.7989 52.5536 14.0189 52.7824 14.292L52.8609 14.2256L52.7885 14.153L52.2473 14.6957L52.3198 14.768L52.3988 14.7022C51.9723 14.1903 51.3736 13.9322 50.6344 13.9337C49.9623 13.9329 49.371 14.1735 48.882 14.6473C48.3882 15.1226 48.1401 15.7485 48.1408 16.4997C48.1401 17.2509 48.3882 17.8768 48.882 18.3521C49.371 18.826 49.9623 19.0665 50.6343 19.0657C51.3447 19.0669 51.95 18.8256 52.4265 18.347C52.7448 18.0273 52.9252 17.5846 52.9724 17.0341L52.9819 16.9225H50.7369V16.3873H53.6177V16.2845L53.5167 16.3026C53.5448 16.4584 53.5581 16.6065 53.5581 16.7499H53.7632C53.7632 16.5937 53.7488 16.4331 53.7187 16.2661L53.7036 16.1817H50.5317V17.128H52.8701V17.0252L52.768 17.0164C52.7227 17.5336 52.5583 17.9231 52.2814 18.2017C51.8406 18.6417 51.2994 18.8589 50.6344 18.8602C50.0103 18.8593 49.4809 18.644 49.0243 18.2045C48.5722 17.7664 48.3473 17.2071 48.3461 16.4997C48.3473 15.7923 48.5722 15.233 49.0243 14.795C49.4809 14.3553 50.0103 14.1401 50.6344 14.1393C51.3282 14.141 51.8522 14.3706 52.2413 14.8343L52.3135 14.9202L52.9336 14.2983L53.0001 14.2317L52.9396 14.1597C52.6874 13.8587 52.3515 13.6198 51.9387 13.4424C51.5251 13.2644 51.0886 13.1753 50.6344 13.1753C49.7222 13.1745 48.9349 13.4957 48.2964 14.1313C47.6555 14.7657 47.3324 15.5631 47.3333 16.4997C47.3324 17.4359 47.6555 18.2338 48.2968 18.8686C48.9349 19.5037 49.7222 19.8246 50.6344 19.8237C51.5844 19.8246 52.3724 19.5084 52.9705 18.8793L52.8963 18.8083L52.9688 18.8809C53.5003 18.349 53.7639 17.6303 53.7632 16.7499H53.6607ZM58.3904 14.1738H55.5866V16.1292H58.1151V16.8702H55.5866V18.8256H58.3904V19.5832H54.7962V13.4162H58.3904V14.1738Z" fill="white"/>
<path d="M58.3909 14.1746V14.0718H55.4844V16.2327H58.0129V16.7679L55.4844 16.7682V18.9291H58.2882V19.4811H54.8993V13.5198H58.2882V14.1746H58.3909H58.4934V13.3142H54.6941V19.6867H58.4934V18.7235H55.6896V16.9738H58.2181V16.0272H55.6896V14.2774H58.4934V14.1746H58.3909ZM61.7269 19.584H60.9353V14.1746H59.2158V13.4169H63.4465V14.1746H61.7269V19.584Z" fill="white"/>
<path d="M61.7267 19.584V19.4811H61.0376V14.0718H59.3181V13.5198H63.3436V14.0718H61.624V19.5839L61.7267 19.584L61.8293 19.5839V14.2774H63.5489V13.3142H59.1129V14.2773H60.8324V19.6867H61.8293V19.5839L61.7267 19.584ZM66.5074 19.584V13.4169H67.2982V19.5839L66.5074 19.584Z" fill="white"/>
<path d="M66.5071 19.584H66.6097V13.5198H67.1953V19.4811H66.5071V19.584V19.6867H67.4006V13.3142H66.4046V19.6867H66.5071V19.584ZM70.8072 19.584H70.0155V14.1746H68.296V13.4169H72.5267V14.1746H70.8072V19.584Z" fill="white"/>
<path d="M70.8077 19.5832V19.4805H70.1187V14.0711H68.3992V13.5191H72.4247V14.0711H70.7052V19.5832H70.8077H70.9103V14.2766H72.6299V13.3135H68.194V14.2766H69.9134V19.6859H70.9103V19.5832H70.8077ZM76.606 18.27C77.0618 18.7321 77.6194 18.9629 78.2788 18.9629C78.9382 18.9629 79.4961 18.7321 79.951 18.27C80.4071 17.8078 80.6357 17.2171 80.6357 16.4997C80.6357 15.7823 80.4071 15.1916 79.951 14.7295C79.4961 14.2674 78.9382 14.0365 78.2788 14.0365C77.6194 14.0365 77.0618 14.2674 76.606 14.7295C76.1511 15.1916 75.9227 15.7823 75.9227 16.4997C75.9227 17.2171 76.1511 17.8078 76.606 18.27ZM80.5362 18.7863C79.9309 19.4097 79.1782 19.7209 78.2788 19.7209C77.3784 19.7209 76.6261 19.4097 76.0222 18.7863C75.4165 18.1635 75.115 17.4011 75.115 16.4997C75.115 15.5983 75.4165 14.8358 76.0222 14.2132C76.6261 13.5896 77.3784 13.2781 78.2788 13.2781C79.1734 13.2781 79.9241 13.5913 80.5322 14.2172C81.1395 14.8431 81.4433 15.6039 81.4433 16.4997C81.4433 17.4011 81.1402 18.1635 80.5362 18.7863Z" fill="white"/>
<path d="M76.6055 18.27L76.5325 18.3422C77.0052 18.8228 77.5948 19.0669 78.2781 19.0657C78.9611 19.0669 79.5515 18.8228 80.0233 18.3422C80.4991 17.8612 80.7383 17.2388 80.7375 16.4997C80.7383 15.7606 80.4991 15.1383 80.0233 14.6572C79.5515 14.1766 78.9611 13.9325 78.2781 13.9337C77.5948 13.9325 77.0052 14.1766 76.5325 14.6572C76.058 15.1383 75.8182 15.7606 75.8194 16.4997C75.8182 17.2388 76.058 17.8612 76.5325 18.3422L76.6055 18.27L76.6785 18.1977C76.2431 17.754 76.0255 17.1959 76.0247 16.4997C76.0255 15.8036 76.2431 15.2455 76.6785 14.8018C77.1176 14.3582 77.6423 14.1405 78.2781 14.1393C78.9134 14.1405 79.4393 14.3582 79.8774 14.8018C80.3135 15.2455 80.5312 15.8036 80.532 16.4997C80.5312 17.1958 80.3135 17.754 79.8774 18.1977C79.4393 18.6413 78.9134 18.8589 78.2781 18.86C77.6423 18.8589 77.1176 18.6413 76.6785 18.1977L76.6055 18.27ZM80.5355 18.7862L80.4622 18.7148C79.8739 19.3186 79.1543 19.617 78.2781 19.6181C77.4015 19.617 76.682 19.3186 76.0947 18.7148C75.5076 18.1089 75.2179 17.3782 75.217 16.4997C75.2179 15.6212 75.5076 14.8905 76.0947 14.2847C76.682 13.6808 77.4015 13.3821 78.2781 13.3809C79.1487 13.3821 79.8665 13.682 80.4581 14.2891C81.0474 14.8977 81.3388 15.6273 81.34 16.4997C81.3388 17.3782 81.0482 18.1089 80.4622 18.7148L80.5355 18.7862L80.6094 18.8576C81.2314 18.2177 81.546 17.4239 81.5452 16.4997C81.546 15.5807 81.2301 14.7886 80.6053 14.1458C79.98 13.5005 79.1968 13.1742 78.2781 13.1753C77.3547 13.1742 76.5691 13.499 75.9477 14.1418C75.3245 14.7822 75.011 15.5755 75.0118 16.4997C75.011 17.4239 75.3245 18.2177 75.9477 18.858C76.5691 19.5008 77.3547 19.8246 78.2781 19.8237C79.2012 19.8246 79.9868 19.5004 80.6094 18.8576L80.5355 18.7862ZM82.5528 19.5832V13.4162H83.5157L86.5078 18.2137H86.5419L86.5078 17.0252V13.4162H87.2995V19.5832H86.4738L83.3433 14.5532H83.3093L83.3433 15.742V19.5832H82.5528Z" fill="white"/>
<path d="M82.5534 19.584H82.656V13.5198H83.4592L86.4514 18.3173H86.6477L86.6109 17.0245V13.5198H87.1973V19.4811H86.5312L83.4007 14.4512H83.2043L83.2412 15.7445V19.4811H82.5534V19.584V19.6867H83.4463V15.7412L83.4123 14.5512L83.3098 14.554V14.6568H83.3438V14.554L83.2567 14.6086L86.4173 19.6867H87.4026V13.3142H86.4057V17.0272L86.4398 18.2172L86.5424 18.2145V18.1117H86.5084V18.2145L86.5953 18.1599L83.573 13.3142H82.4508V19.6867H82.5534V19.584ZM114.733 37.0569H116.648V24.208H114.733V37.0569ZM131.979 28.8365L129.784 34.4071H129.718L127.44 28.8364H125.378L128.794 36.6225L126.846 40.9535H128.844L134.108 28.8364L131.979 28.8365ZM121.121 35.5976C120.493 35.5976 119.618 35.2835 119.618 34.5063C119.618 33.5145 120.708 33.1344 121.648 33.1344C122.49 33.1344 122.886 33.3162 123.397 33.5644C123.249 34.7544 122.226 35.5976 121.121 35.5976ZM121.351 28.5553C119.965 28.5553 118.53 29.1672 117.936 30.5226L119.635 31.2333C119.998 30.5226 120.674 30.291 121.384 30.291C122.374 30.291 123.381 30.8864 123.397 31.9443V32.0764C123.051 31.8781 122.309 31.5806 121.401 31.5806C119.569 31.5806 117.704 32.5886 117.704 34.4733C117.704 36.1926 119.206 37.3002 120.889 37.3002C122.176 37.3002 122.886 36.7217 123.332 36.0441H123.397V37.0357H125.246V32.1093C125.246 29.8285 123.546 28.5553 121.351 28.5553ZM109.518 30.4005H106.795V25.9962H109.518C110.95 25.9962 111.762 27.1834 111.762 28.1983C111.762 29.1941 110.95 30.4005 109.518 30.4005ZM109.469 24.208H104.881V37.0569H106.795V32.1889H109.469C111.591 32.1889 113.677 30.6499 113.677 28.1983C113.677 25.7469 111.591 24.208 109.469 24.208ZM84.4513 35.5999C83.1285 35.5999 82.021 34.4907 82.021 32.967C82.021 31.4272 83.1285 30.301 84.4513 30.301C85.7572 30.301 86.7821 31.4272 86.7821 32.967C86.7821 34.4907 85.7572 35.5999 84.4513 35.5999ZM86.6498 29.556H86.5837C86.154 29.0427 85.3271 28.5791 84.2858 28.5791C82.1036 28.5791 80.1035 30.4998 80.1035 32.967C80.1035 35.4177 82.1036 37.322 84.2858 37.322C85.3271 37.322 86.154 36.8582 86.5837 36.3287H86.6498V36.9578C86.6498 38.6304 85.7572 39.5246 84.3191 39.5246C83.1453 39.5246 82.4179 38.6798 82.1201 37.9679L80.4508 38.6633C80.9301 39.8225 82.2031 41.2465 84.3191 41.2465C86.5673 41.2465 88.4684 39.9217 88.4684 36.6929V28.844H86.6498V29.556ZM89.7907 37.0569H91.7083V24.2075H89.7907V37.0569ZM94.5352 32.818C94.4856 31.1289 95.8412 30.2681 96.8164 30.2681C97.5773 30.2681 98.2218 30.6488 98.4363 31.1957L94.5352 32.818ZM100.486 31.3609C100.123 30.3837 99.0149 28.5791 96.7503 28.5791C94.502 28.5791 92.6342 30.3508 92.6342 32.9505C92.6342 35.4012 94.4856 37.322 96.9651 37.322C98.9657 37.322 100.123 36.0966 100.602 35.3847L99.1145 34.3909C98.6189 35.1197 97.9406 35.5999 96.9651 35.5999C95.9899 35.5999 95.2957 35.1527 94.8491 34.2753L100.684 31.8576L100.486 31.3609ZM53.9949 29.9204V31.7748H58.4252C58.293 32.818 57.9457 33.5797 57.4167 34.1095C56.7722 34.7555 55.7637 35.4674 53.9949 35.4674C51.2671 35.4674 49.1348 33.2652 49.1348 30.533C49.1348 27.801 51.2671 25.5984 53.9949 25.5984C55.4663 25.5984 56.5405 26.1781 57.3341 26.9231L58.6401 25.6152C57.5326 24.5552 56.0612 23.7438 53.9949 23.7438C50.2587 23.7438 47.1179 26.7908 47.1179 30.533C47.1179 34.2753 50.2587 37.322 53.9949 37.322C56.0118 37.322 57.5326 36.66 58.7227 35.4177C59.9459 34.1923 60.3263 32.4703 60.3263 31.0795C60.3263 30.6488 60.2934 30.2517 60.227 29.9204H53.9949ZM65.3632 35.5999C64.0405 35.5999 62.8997 34.507 62.8997 32.9505C62.8997 31.3774 64.0405 30.301 65.3632 30.301C66.6854 30.301 67.8261 31.3774 67.8261 32.9505C67.8261 34.5071 66.6854 35.5999 65.3632 35.5999ZM65.3632 28.5791C62.9493 28.5791 60.982 30.4169 60.982 32.9505C60.982 35.4674 62.9493 37.322 65.3632 37.322C67.7765 37.322 69.7437 35.4674 69.7437 32.9505C69.7437 30.4169 67.7765 28.5791 65.3632 28.5791ZM74.9195 35.5999C73.5973 35.5999 72.4565 34.507 72.4565 32.9505C72.4565 31.3774 73.5973 30.301 74.9195 30.301C76.242 30.301 77.3826 31.3774 77.3826 32.9505C77.3826 34.5071 76.242 35.5999 74.9195 35.5999ZM74.9195 28.5791C72.5058 28.5791 70.539 30.4169 70.539 32.9505C70.539 35.4674 72.5058 37.322 74.9195 37.322C77.333 37.322 79.3003 35.4674 79.3003 32.9505C79.3003 30.4169 77.333 28.5791 74.9195 28.5791Z" fill="white"/>
<path d="M15.7871 14.0451C15.4428 14.3563 15.2372 14.8753 15.2372 15.5644V15.4086V38.1452V37.9955C15.2372 38.6318 15.4135 39.1231 15.7121 39.4396L15.7883 39.5127C16.03 39.7311 16.3399 39.8474 16.695 39.847C17.0421 39.847 17.4325 39.7362 17.8446 39.5022L32.7389 31.0255L37.855 28.1135C38.5048 27.7437 38.8695 27.2668 38.9304 26.7808V26.7789C38.8695 26.2919 38.5048 25.8153 37.855 25.4455L32.7384 22.5338L17.8446 14.0571C17.4317 13.8227 17.041 13.7114 16.693 13.7114C16.3383 13.7114 16.0287 13.827 15.7871 14.0451Z" fill="#00C1FF"/>
<path d="M15.7884 39.512L15.7121 39.439C15.4135 39.1226 15.2372 38.6312 15.2372 37.9949V38.1446V15.4136V15.5637C15.2372 14.8747 15.4428 14.3556 15.7871 14.0444L28.5004 26.7786L15.7884 39.512Z" fill="url(#paint0_linear_1102_913)"/>
<path d="M32.7389 31.0251L28.5006 26.7788L32.7385 22.5334L37.8551 25.445C38.5048 25.8148 38.8695 26.2914 38.9306 26.7784V26.7803C38.8695 27.2663 38.5048 27.7433 37.8551 28.113L32.7389 31.0251Z" fill="url(#paint1_linear_1102_913)"/>
<path d="M16.6955 39.8472C16.3404 39.8476 16.0305 39.7315 15.7888 39.5131L28.5009 26.7793L32.7394 31.0256L17.845 39.5024C17.433 39.7364 17.0425 39.8472 16.6955 39.8472Z" fill="url(#paint2_linear_1102_913)"/>
<path d="M28.5004 26.7794L15.787 14.0451C16.0287 13.8271 16.3381 13.7114 16.6928 13.7114C17.0408 13.7114 17.4316 13.8226 17.8445 14.0571L32.7384 22.5339L28.5004 26.7794Z" fill="url(#paint3_linear_1102_913)"/>
<path d="M16.6955 39.9966C16.3404 39.9966 16.0301 39.8806 15.7884 39.6622C15.7874 39.6611 15.786 39.6606 15.7848 39.6597L15.7187 39.5951C15.7167 39.593 15.7147 39.5908 15.7123 39.5883L15.7885 39.5121C16.0302 39.7304 16.34 39.8464 16.6952 39.846C17.0422 39.846 17.4327 39.7352 17.8448 39.5012L32.739 31.0244L32.8344 31.1201L32.7378 31.175L17.8446 39.6513C17.4691 39.8645 17.112 39.9757 16.7893 39.9943C16.7581 39.9957 16.7268 39.9966 16.6955 39.9966Z" fill="url(#paint4_linear_1102_913)"/>
<path d="M15.7115 39.5893C15.4133 39.2728 15.2372 38.7817 15.2372 38.1451V37.9954C15.2372 38.6317 15.4133 39.123 15.7115 39.4395L15.7877 39.5125L15.7115 39.5893Z" fill="url(#paint5_linear_1102_913)"/>
<path d="M32.8342 31.1208L32.7388 31.0251L37.8548 28.1132C38.5047 27.7435 38.8695 27.2665 38.9304 26.7805C38.9304 26.9589 38.8906 27.1372 38.8117 27.3106C38.6526 27.6604 38.3337 27.9908 37.855 28.2633L32.8342 31.1208Z" fill="url(#paint6_linear_1102_913)"/>
<path d="M38.9308 26.7787C38.8699 26.2918 38.505 25.8151 37.8553 25.4453L32.7388 22.5336L32.8342 22.438L37.8553 25.2955C38.5716 25.7035 38.9304 26.241 38.9308 26.7787Z" fill="url(#paint7_linear_1102_913)"/>
<path d="M15.2372 15.5645V15.4074C15.2372 15.3508 15.2387 15.2954 15.2417 15.2416V15.2392L15.2419 15.2368V15.2308C15.2728 14.6827 15.4425 14.2552 15.7115 13.9697L15.7865 14.0452C15.4425 14.3564 15.2372 14.8755 15.2372 15.5645Z" fill="url(#paint8_linear_1102_913)"/>
<path d="M32.7385 22.533L17.8448 14.0561C17.4318 13.8217 17.0411 13.7105 16.6931 13.7105C16.3384 13.7105 16.0289 13.8261 15.7873 14.0441L15.7123 13.9687C15.7357 13.9438 15.76 13.9198 15.7853 13.8968C15.786 13.896 15.7873 13.8952 15.7881 13.8944C16.0278 13.678 16.334 13.5624 16.6856 13.5603H16.6931C17.0411 13.5603 17.4318 13.6715 17.8448 13.9061L32.8344 22.437L32.7385 22.533Z" fill="url(#paint9_linear_1102_913)"/>
</g>
</g>
</g>
<defs>
<filter id="filter0_f_1102_913" x="0" y="0.360107" width="149" height="52.0801" filterUnits="userSpaceOnUse" color-interpolation-filters="sRGB">
<feFlood flood-opacity="0" result="BackgroundImageFix"/>
<feBlend mode="normal" in="SourceGraphic" in2="BackgroundImageFix" result="shape"/>
<feGaussianBlur stdDeviation="2.5" result="effect1_foregroundBlur_1102_913"/>
</filter>
<linearGradient id="paint0_linear_1102_913" x1="23.3618" y1="15.1734" x2="12.4052" y2="26.147" gradientUnits="userSpaceOnUse">
<stop stop-color="#00A0FF"/>
<stop offset="0.00657" stop-color="#00A1FF"/>
<stop offset="0.2601" stop-color="#00BEFF"/>
<stop offset="0.5122" stop-color="#00D2FF"/>
<stop offset="0.7604" stop-color="#00DFFF"/>
<stop offset="1" stop-color="#00E3FF"/>
</linearGradient>
<linearGradient id="paint1_linear_1102_913" x1="39.7222" y1="26.7055" x2="14.8932" y2="26.7055" gradientUnits="userSpaceOnUse">
<stop stop-color="#FFE000"/>
<stop offset="0.4087" stop-color="#FFBD00"/>
<stop offset="0.7754" stop-color="#FFA500"/>
<stop offset="1" stop-color="#FF9C00"/>
</linearGradient>
<linearGradient id="paint2_linear_1102_913" x1="30.4892" y1="30.8164" x2="11.9224" y2="49.2764" gradientUnits="userSpaceOnUse">
<stop stop-color="#FF3A44"/>
<stop offset="1" stop-color="#C31162"/>
</linearGradient>
<linearGradient id="paint3_linear_1102_913" x1="12.5104" y1="12.1572" x2="20.7851" y2="20.397" gradientUnits="userSpaceOnUse">
<stop stop-color="#32A071"/>
<stop offset="0.0685" stop-color="#2DA771"/>
<stop offset="0.4762" stop-color="#15CF74"/>
<stop offset="0.8009" stop-color="#06E775"/>
<stop offset="1" stop-color="#00F076"/>
</linearGradient>
<linearGradient id="paint4_linear_1102_913" x1="30.4796" y1="33.7608" x2="15.6103" y2="48.6533" gradientUnits="userSpaceOnUse">
<stop stop-color="#CC2E36"/>
<stop offset="1" stop-color="#9C0E4E"/>
</linearGradient>
<linearGradient id="paint5_linear_1102_913" x1="16.9288" y1="15.1737" x2="7.27612" y2="24.83" gradientUnits="userSpaceOnUse">
<stop stop-color="#008DE0"/>
<stop offset="0.00657" stop-color="#008DE0"/>
<stop offset="0.2601" stop-color="#00A7E0"/>
<stop offset="0.5122" stop-color="#00B8E0"/>
<stop offset="0.7604" stop-color="#00C4E0"/>
<stop offset="1" stop-color="#00C7E0"/>
</linearGradient>
<linearGradient id="paint6_linear_1102_913" x1="39.722" y1="26.7796" x2="14.8931" y2="26.7796" gradientUnits="userSpaceOnUse">
<stop stop-color="#E0C500"/>
<stop offset="0.4087" stop-color="#E0A600"/>
<stop offset="0.7754" stop-color="#E09100"/>
<stop offset="1" stop-color="#E08900"/>
</linearGradient>
<linearGradient id="paint7_linear_1102_913" x1="39.7224" y1="26.7798" x2="14.8936" y2="26.7798" gradientUnits="userSpaceOnUse">
<stop stop-color="#FFE840"/>
<stop offset="0.4087" stop-color="#FFCE40"/>
<stop offset="0.7754" stop-color="#FFBC40"/>
<stop offset="1" stop-color="#FFB540"/>
</linearGradient>
<linearGradient id="paint8_linear_1102_913" x1="16.9183" y1="15.1916" x2="7.62166" y2="24.0888" gradientUnits="userSpaceOnUse">
<stop stop-color="#40B8FF"/>
<stop offset="0.00657" stop-color="#40B9FF"/>
<stop offset="0.2601" stop-color="#40CEFF"/>
<stop offset="0.5122" stop-color="#40DDFF"/>
<stop offset="0.7604" stop-color="#40E7FF"/>
<stop offset="1" stop-color="#40EAFF"/>
</linearGradient>
<linearGradient id="paint9_linear_1102_913" x1="12.4921" y1="14.8493" x2="19.1319" y2="21.4995" gradientUnits="userSpaceOnUse">
<stop stop-color="#65B895"/>
<stop offset="0.0685" stop-color="#62BD95"/>
<stop offset="0.4762" stop-color="#50DB97"/>
<stop offset="0.8009" stop-color="#44ED98"/>
<stop offset="1" stop-color="#40F498"/>
</linearGradient>
<clipPath id="clip0_1102_913">
<rect width="139" height="42.08" fill="white" transform="translate(5 5.36011)"/>
</clipPath>
<clipPath id="clip1_1102_913">
<rect width="139" height="42.08" fill="white" transform="translate(5 5.36011)"/>
</clipPath>
<clipPath id="clip2_1102_913">
<rect width="138.992" height="42.08" fill="white" transform="translate(5.00424 5.36011)"/>
</clipPath>
</defs>
</svg>
