<svg width="25" height="25" viewBox="0 0 25 25" fill="none" xmlns="http://www.w3.org/2000/svg">
<g clip-path="url(#clip0_1102_88)">
<path d="M21.75 5.0901C21.2393 4.5791 20.6328 4.17374 19.9654 3.89718C19.2979 3.62062 18.5825 3.47827 17.86 3.47827C17.1375 3.47827 16.4221 3.62062 15.7547 3.89718C15.0872 4.17374 14.4808 4.5791 13.97 5.0901L12.91 6.1501L11.85 5.0901C10.8183 4.05841 9.41906 3.47881 7.96003 3.47881C6.501 3.47881 5.10172 4.05841 4.07003 5.0901C3.03834 6.12179 2.45874 7.52106 2.45874 8.9801C2.45874 10.4391 3.03834 11.8384 4.07003 12.8701L5.13003 13.9301L12.91 21.7101L20.69 13.9301L21.75 12.8701C22.261 12.3593 22.6664 11.7529 22.9429 11.0855C23.2195 10.418 23.3619 9.70258 23.3619 8.9801C23.3619 8.25761 23.2195 7.5422 22.9429 6.87474C22.6664 6.20728 22.261 5.60085 21.75 5.0901Z" stroke="#4A5568" stroke-width="1.5" stroke-linecap="round" stroke-linejoin="round"/>
</g>
<defs>
<clipPath id="clip0_1102_88">
<rect width="24" height="24" fill="white" transform="translate(0.910034 0.47998)"/>
</clipPath>
</defs>
</svg>
