<svg width="78" height="15" viewBox="0 0 78 15" fill="none" xmlns="http://www.w3.org/2000/svg">
<path d="M6.99999 2.05664L8.80249 5.70831L12.8333 6.29747L9.91666 9.13831L10.605 13.1516L6.99999 11.2558L3.39499 13.1516L4.08332 9.13831L1.16666 6.29747L5.19749 5.70831L6.99999 2.05664Z" fill="#FFB321" stroke="#FFB321" stroke-width="1.16667" stroke-linecap="round" stroke-linejoin="round"/>
<path d="M23 2.05664L24.8025 5.70831L28.8333 6.29747L25.9167 9.13831L26.605 13.1516L23 11.2558L19.395 13.1516L20.0833 9.13831L17.1667 6.29747L21.1975 5.70831L23 2.05664Z" fill="#FFB321" stroke="#FFB321" stroke-width="1.16667" stroke-linecap="round" stroke-linejoin="round"/>
<path d="M39 2.05664L40.8025 5.70831L44.8333 6.29747L41.9167 9.13831L42.605 13.1516L39 11.2558L35.395 13.1516L36.0833 9.13831L33.1667 6.29747L37.1975 5.70831L39 2.05664Z" fill="#FFB321" stroke="#FFB321" stroke-width="1.16667" stroke-linecap="round" stroke-linejoin="round"/>
<path d="M55 2.05664L56.8025 5.70831L60.8333 6.29747L57.9167 9.13831L58.605 13.1516L55 11.2558L51.395 13.1516L52.0833 9.13831L49.1667 6.29747L53.1975 5.70831L55 2.05664Z" fill="#FFB321" stroke="#FFB321" stroke-width="1.16667" stroke-linecap="round" stroke-linejoin="round"/>
<path d="M71 2.05664L72.8025 5.70831L76.8333 6.29747L73.9167 9.13831L74.605 13.1516L71 11.2558L67.395 13.1516L68.0833 9.13831L65.1667 6.29747L69.1975 5.70831L71 2.05664Z" stroke="#FFB321" stroke-width="1.16667" stroke-linecap="round" stroke-linejoin="round"/>
</svg>
