<svg width="51" height="51" viewBox="0 0 51 51" fill="none" xmlns="http://www.w3.org/2000/svg">
<g clip-path="url(#clip0_1102_846)" filter="url(#filter0_f_1102_846)">
<g clip-path="url(#clip1_1102_846)">
<g clip-path="url(#clip2_1102_846)">
<path d="M45.4295 27.9143C45.4275 24.497 45.4563 17.3838 45.3955 17.2495C45.341 16.6655 45.001 16.2474 44.5807 15.8741C42.8573 14.345 41.135 12.8149 39.4116 11.2859C38.8944 10.8281 38.398 10.3469 37.8159 9.96436C36.8414 9.32446 35.7835 9.12608 34.6524 9.43128C33.8932 9.63678 33.2659 10.0834 32.688 10.5971C30.7163 12.349 28.7519 14.1069 26.771 15.8466C26.1395 16.401 25.849 17.0664 25.8552 17.8945C25.8685 19.8783 25.8603 21.8611 25.8613 23.8449C25.8613 24.5295 25.8613 24.5295 25.1588 24.5295H21.8882C21.9531 24.381 22.0004 24.2793 22.0427 24.1765C22.6453 22.676 22.9584 21.1306 22.6711 19.5192C22.4218 18.1234 21.6513 17.1295 20.2503 16.6788C19.6476 16.4855 19.3458 16.6574 19.2078 17.2576C19.0975 17.7399 18.9719 18.22 18.8843 18.7064C18.5671 20.4643 17.8882 21.975 16.1854 22.8652C15.0924 23.4369 14.2663 24.3016 13.6317 25.3474C13.5328 25.5103 13.4164 25.6639 13.2959 25.8114C13.0075 26.1664 12.6212 26.3475 12.17 26.4096C11.9691 26.4371 11.864 26.4259 11.8414 26.1594C11.7796 25.4289 11.214 24.909 10.4888 24.8988C9.4206 24.8835 8.35236 24.8835 7.28412 24.8988C6.51153 24.91 5.91509 25.5011 5.91406 26.2651C5.90788 30.7526 5.90788 35.2411 5.91406 39.7285C5.91509 40.4814 6.47754 41.0704 7.24292 41.0887C8.33588 41.1152 9.4309 41.1162 10.5249 41.0887C11.2892 41.0694 11.8321 40.4834 11.8558 39.7265C11.862 39.5302 11.8568 39.3348 11.8568 39.108C12.0526 39.1751 12.2009 39.2158 12.342 39.2738C14.5918 40.2128 16.9333 40.5994 19.3778 40.5272C21.4225 40.4661 23.4704 40.5149 25.5173 40.5139C26.0694 40.5139 26.6267 40.5495 27.1552 40.3389C27.2355 40.3064 27.3004 40.3287 27.3746 40.3563C27.7671 40.5017 28.1771 40.516 28.5912 40.516C32.8394 40.5109 37.0876 40.5098 41.3359 40.5078C41.9024 40.5078 42.468 40.5139 43.0345 40.5058C44.2532 40.4895 45.0618 39.874 45.4048 38.7143C45.4141 38.6817 45.4677 28.3253 45.4677 28.3253C45.3924 28.194 45.4295 28.0515 45.4295 27.9143ZM10.6269 39.518C10.6279 39.813 10.5208 39.8883 10.2447 39.8842C9.35673 39.872 8.46773 39.8679 7.57977 39.8863C7.25116 39.8934 7.13681 39.8079 7.13888 39.462C7.15536 37.3012 7.14711 35.1394 7.14711 32.9785C7.14711 30.8299 7.15432 28.6813 7.13991 26.5327C7.13682 26.1908 7.24498 26.1004 7.57977 26.1084C8.46773 26.1288 9.3557 26.1237 10.2437 26.1104C10.5239 26.1054 10.6269 26.1837 10.6269 26.4747C10.6186 30.8228 10.6186 35.1709 10.6269 39.518ZM22.9853 36.8098C24.003 36.819 25.0197 36.8118 26.0364 36.8149C26.19 36.8159 26.3465 36.822 26.497 36.8515C27.0995 36.9685 27.5199 37.4792 27.5106 38.0683C27.5013 38.6471 27.0903 39.1384 26.5042 39.2524C26.3414 39.284 26.1714 39.2911 26.0055 39.2921C23.6878 39.2942 21.37 39.2544 19.0533 39.3054C16.9477 39.3511 14.9359 39.0022 12.9941 38.2117C12.6284 38.0632 12.103 38.0326 11.9269 37.7682C11.7353 37.4813 11.8589 36.9848 11.8589 36.5799C11.8568 33.7192 11.861 30.8584 11.8527 27.9976C11.8517 27.7393 11.8847 27.6364 12.1916 27.6182C13.0683 27.5674 13.8501 27.2244 14.3147 26.4798C15.1254 25.1796 16.2173 24.2101 17.5225 23.4206C19.0152 22.5173 19.6312 21.0544 19.9722 19.4408C20.07 18.981 20.1874 18.5263 20.3069 18.0217C21.164 18.5069 21.4576 19.2791 21.5101 20.1428C21.6111 21.8092 21.2557 23.3718 20.2884 24.7686C20.1349 24.9894 20.1071 25.2153 20.2379 25.4482C20.3811 25.7015 20.6222 25.7524 20.8972 25.7524C23.1501 25.7484 25.403 25.7534 27.6569 25.7484C28.1977 25.7473 28.6447 25.9121 28.925 26.3913C29.4102 27.2244 28.7931 28.2164 27.7712 28.2255C26.3167 28.2398 24.8611 28.2296 23.4066 28.2296C23.2778 28.2296 23.1491 28.2265 23.0203 28.2316C22.6072 28.2469 22.3651 28.4636 22.3579 28.8196C22.3497 29.1879 22.6021 29.4321 23.0275 29.4474C23.3623 29.4595 23.6971 29.4504 24.0319 29.4504C25.642 29.4514 27.251 29.4443 28.8601 29.4554C29.5224 29.4595 30.0374 29.9295 30.0952 30.5369C30.1549 31.1707 29.7634 31.7293 29.1423 31.8757C28.995 31.9104 28.8363 31.9093 28.6829 31.9104C26.8163 31.9124 24.9487 31.9104 23.0821 31.9124C22.635 31.9134 22.3795 32.1209 22.359 32.4821C22.3363 32.8829 22.6031 33.1301 23.079 33.1311C24.7787 33.1342 26.4784 33.126 28.1781 33.1342C29.1022 33.1393 29.7068 33.9999 29.3793 34.8199C29.1845 35.3062 28.7333 35.59 28.1224 35.591C26.5134 35.5951 24.9033 35.5931 23.2943 35.5931C23.1779 35.5931 23.0614 35.5849 22.9472 35.5982C22.5763 35.6399 22.3486 35.8871 22.3579 36.2279C22.3672 36.5687 22.6041 36.8057 22.9853 36.8098ZM43.0706 39.284C42.6081 39.2993 42.1445 39.287 41.681 39.287C37.3936 39.2891 33.1073 39.2891 28.8209 39.2972C28.5273 39.2982 28.4037 39.2891 28.5593 38.9432C28.8755 38.2382 28.7848 37.5301 28.4171 36.8251C30.4722 36.5402 31.2932 34.4048 30.2507 32.9694C30.1292 32.8035 30.1961 32.7526 30.3259 32.6499C31.7938 31.4769 31.6651 29.5185 30.054 28.5368C29.8922 28.4392 29.8902 28.3873 29.9746 28.2275C30.9152 26.4473 29.7717 24.5652 27.7352 24.5295C27.0975 24.5184 27.0975 24.5184 27.0975 23.8845C27.0964 21.914 27.1057 19.9434 27.0892 17.9738C27.0841 17.4519 27.2469 17.0593 27.6486 16.7073C29.6811 14.9279 31.6805 13.113 33.7202 11.3418C35.0171 10.2156 36.2316 10.2319 37.5697 11.3052C37.6593 11.3774 37.75 11.4486 37.8355 11.5249C39.8174 13.2839 41.7963 15.0449 43.7813 16.7998C44.0914 17.0745 44.2294 17.397 44.2294 17.806C44.2274 24.5693 44.2305 31.3324 44.2305 38.0957C44.2305 38.8303 43.8123 39.2595 43.0706 39.284Z" fill="#4A5568"/>
<path d="M38.1509 31.3986C38.1406 30.6152 37.7368 30.1605 37.1156 29.8583C36.5789 29.5968 35.9949 29.4992 35.4139 29.3904C34.8565 29.2866 34.3157 29.136 33.8089 28.8746C31.8733 27.8776 31.7157 25.4268 33.5101 24.1897C33.9057 23.9171 34.3394 23.7309 34.8112 23.6404C34.9987 23.6047 35.0646 23.5254 35.0481 23.3382C35.0317 23.149 35.0327 22.9557 35.0502 22.7665C35.0842 22.4084 35.351 22.1795 35.695 22.1937C36.0226 22.2079 36.309 22.446 36.2658 22.7827C36.1885 23.3891 36.409 23.6251 37.0157 23.7848C37.9654 24.0341 38.6227 24.7086 39.0389 25.5927C39.2253 25.9874 39.114 26.3424 38.77 26.496C38.4362 26.6456 38.1014 26.5225 37.9273 26.1237C37.3598 24.8287 35.7331 24.4034 34.4434 25.0555C33.8336 25.3637 33.4823 25.847 33.4978 26.5469C33.5122 27.2255 33.9439 27.5957 34.5104 27.8593C35.0883 28.1278 35.7198 28.1929 36.3338 28.3211C37.0054 28.4616 37.644 28.6833 38.2065 29.0841C39.9422 30.3243 39.7496 32.7242 37.8408 33.6795C37.4236 33.888 36.9848 34.0274 36.5263 34.0956C36.3338 34.124 36.2616 34.1861 36.2791 34.3784C36.2946 34.5554 36.2894 34.7344 36.2791 34.9125C36.2596 35.2624 36.0319 35.4923 35.7033 35.5086C35.3561 35.5259 35.011 35.2878 35.0667 34.948C35.1841 34.2349 34.8101 34.0772 34.2189 33.9022C33.0765 33.5655 32.3142 32.7832 31.9763 31.6346C31.8743 31.2867 32.0432 30.957 32.3471 30.8533C32.683 30.7394 33.0538 30.8899 33.1403 31.2582C33.3927 32.3315 34.4929 32.9927 35.8496 32.9388C36.448 32.9154 37.0209 32.7821 37.5277 32.4454C37.9232 32.1839 38.1725 31.833 38.1509 31.3986Z" fill="#4A5568"/>
<path d="M35.6734 13.1353C34.4435 13.1332 33.47 14.0895 33.4689 15.3001C33.4689 16.5057 34.4589 17.4864 35.6693 17.4793C36.8787 17.4732 37.8738 16.4782 37.8614 15.2849C37.8501 14.0956 36.8756 13.1373 35.6734 13.1353ZM35.6652 16.2575C35.1326 16.2605 34.6968 15.8159 34.7071 15.2778C34.7175 14.7538 35.1429 14.35 35.6765 14.3571C36.2049 14.3642 36.6283 14.7894 36.6242 15.3073C36.6191 15.82 36.1813 16.2544 35.6652 16.2575Z" fill="#4A5568"/>
</g>
</g>
</g>
<defs>
<filter id="filter0_f_1102_846" x="0.910034" y="0.200195" width="50" height="50" filterUnits="userSpaceOnUse" color-interpolation-filters="sRGB">
<feFlood flood-opacity="0" result="BackgroundImageFix"/>
<feBlend mode="normal" in="SourceGraphic" in2="BackgroundImageFix" result="shape"/>
<feGaussianBlur stdDeviation="2.5" result="effect1_foregroundBlur_1102_846"/>
</filter>
<clipPath id="clip0_1102_846">
<rect width="40" height="40" fill="white" transform="translate(5.91003 5.2002)"/>
</clipPath>
<clipPath id="clip1_1102_846">
<rect width="40" height="40" fill="white" transform="translate(5.91003 5.2002)"/>
</clipPath>
<clipPath id="clip2_1102_846">
<rect width="40" height="31.8182" fill="white" transform="translate(5.91003 9.29102)"/>
</clipPath>
</defs>
</svg>
