<svg width="56" height="56" viewBox="0 0 56 56" fill="none" xmlns="http://www.w3.org/2000/svg">
<g clip-path="url(#clip0_1102_691)" filter="url(#filter0_f_1102_691)">
<g clip-path="url(#clip1_1102_691)">
<g clip-path="url(#clip2_1102_691)">
<path d="M43.2019 16.5804C36.4137 10.5368 28.7979 7.39124 20.6846 7.39124H19.36C16.297 7.55687 14.0617 8.7984 12.5719 10.6199C9.34328 12.4413 7.43915 16.0008 7.6874 19.8915C7.93566 23.7822 10.2536 26.9283 13.896 28.3356C16.0483 29.1633 17.8699 29.9915 19.0288 31.4811C20.3534 33.137 21.5123 35.5376 22.3401 38.6005C23.7473 43.2365 27.5553 46.7135 32.2743 47.4585C33.0193 47.5411 33.6814 47.624 34.3439 47.624C38.2346 47.624 41.7947 45.8027 44.1126 42.4913L44.3607 42.16C45.1885 41.0012 45.851 39.6766 46.3473 38.3521C50.7354 31.5643 49.4934 22.2099 43.2019 16.5804ZM19.5256 9.12967H20.7672C28.4661 9.12967 35.669 12.1102 42.1254 17.905C47.9202 23.1203 49.079 31.8134 44.6915 38.1042L44.4433 38.3523C42.5392 41.0016 39.5588 42.5742 36.2476 42.5742C32.3568 42.5742 27.7205 40.2563 26.1478 35.1236C25.237 31.9779 23.9955 29.4945 22.5879 27.7561C21.1807 26.0176 19.111 25.1068 16.8757 24.2792C12.488 22.6233 11.4947 18.65 11.9912 15.7521C12.1568 14.5105 12.7363 13.1859 13.647 12.027C13.647 12.027 13.647 11.9444 13.7296 11.9444C14.972 10.3708 16.8764 9.21223 19.5256 9.12967ZM32.6049 45.9692C28.4655 45.3071 25.1543 42.3265 23.9954 38.2703C23.0021 35.0418 21.8431 32.3925 20.3528 30.5716C18.9457 28.75 16.793 27.8397 14.558 26.9289C11.495 25.6874 9.59096 23.2038 9.42528 19.8922C9.34267 18.0708 9.75654 16.4153 10.5842 14.9252C10.5842 15.0908 10.5016 15.1734 10.5016 15.339C9.83951 19.0641 11.4949 23.783 16.3794 25.687C18.4491 26.5148 20.2701 27.26 21.3465 28.6675C22.6711 30.2403 23.7474 32.5582 24.5751 35.5388C26.1474 40.6715 30.8664 44.1483 36.247 44.1483C38.3168 44.1483 40.2209 43.6515 41.9593 42.6582C39.5584 45.3899 36.1644 46.5487 32.6049 45.9692Z" fill="#222222"/>
<path d="M17.7041 22.1261C20.1051 23.0368 22.5886 24.1128 24.2441 26.2655C25.817 28.2521 27.1413 30.9844 28.1347 34.3782C29.3763 38.5176 33.0193 40.3385 36.1648 40.3385C37.6551 40.3385 40.5525 39.9247 42.6221 37.0273L42.7878 36.779C46.5129 31.398 45.6027 23.8653 40.5525 19.3948C34.4265 13.9308 27.7205 11.199 20.6018 11.199H19.4428C16.0486 11.3646 14.3931 13.8482 14.0619 15.9179C13.8136 18.0702 14.5585 20.8841 17.7041 22.1261ZM15.8 16.2482C15.9657 15.5031 16.5451 13.0196 19.6082 12.8539H20.6845C27.39 12.8539 33.764 15.5031 39.559 20.6359C43.9467 24.6097 44.7743 31.0666 41.5457 35.8689L41.3801 36.1172C39.7243 38.3523 37.4894 38.7663 36.3303 38.7663C33.8469 38.7663 30.8664 37.2762 29.873 33.9648C28.7966 30.3223 27.3894 27.4249 25.6511 25.2727C23.6644 22.7891 21.0152 21.6301 18.3661 20.6368C15.5513 19.4774 15.7173 16.9935 15.8 16.2482Z" fill="#222222"/>
<path d="M36.4961 35.5376C38.8971 35.5376 40.8838 33.551 40.8838 31.1501C40.8838 28.7491 38.8971 26.7625 36.4961 26.7625C34.0952 26.7625 32.1084 28.7491 32.1084 31.1501C32.1084 33.5506 34.0956 35.5376 36.4961 35.5376ZM36.4961 28.4183C37.9863 28.4183 39.2278 29.6599 39.2278 31.1501C39.2278 32.6402 37.9863 33.8818 36.4961 33.8818C35.006 33.8818 33.7644 32.6402 33.7644 31.1501C33.7644 29.6599 35.006 28.4183 36.4961 28.4183Z" fill="#222222"/>
</g>
</g>
</g>
<defs>
<filter id="filter0_f_1102_691" x="0.799999" y="0.0900269" width="55" height="55" filterUnits="userSpaceOnUse" color-interpolation-filters="sRGB">
<feFlood flood-opacity="0" result="BackgroundImageFix"/>
<feBlend mode="normal" in="SourceGraphic" in2="BackgroundImageFix" result="shape"/>
<feGaussianBlur stdDeviation="2.5" result="effect1_foregroundBlur_1102_691"/>
</filter>
<clipPath id="clip0_1102_691">
<rect width="45" height="45" fill="white" transform="translate(5.8 5.09003)"/>
</clipPath>
<clipPath id="clip1_1102_691">
<rect width="45" height="45" fill="white" transform="translate(5.8 5.09003)"/>
</clipPath>
<clipPath id="clip2_1102_691">
<rect width="45" height="41.087" fill="white" transform="translate(5.8 7.04657)"/>
</clipPath>
</defs>
</svg>
