<svg width="25" height="26" viewBox="0 0 25 26" fill="none" xmlns="http://www.w3.org/2000/svg">
<g clip-path="url(#clip0_1102_241)">
<g clip-path="url(#clip1_1102_241)">
<path d="M20.7788 6.88351C17.0076 3.526 12.7767 1.77844 8.26927 1.77844H7.53338C5.8317 1.87046 4.58987 2.5602 3.76219 3.57212C1.96851 4.58403 0.910663 6.56155 1.04858 8.72305C1.1865 10.8846 2.47425 12.6324 4.49783 13.4142C5.69353 13.874 6.7055 14.3341 7.34935 15.1617C8.08524 16.0816 8.72909 17.4153 9.18896 19.1169C9.97072 21.6925 12.0863 23.6241 14.708 24.038C15.1219 24.0839 15.4897 24.13 15.8577 24.13C18.0193 24.13 19.9971 23.1181 21.2848 21.2785L21.4226 21.0944C21.8825 20.4506 22.2506 19.7148 22.5263 18.9789C24.9642 15.2079 24.2742 10.0111 20.7788 6.88351ZM7.62537 2.74424H8.31514C12.5923 2.74424 16.5939 4.40006 20.1808 7.6194C23.4001 10.5168 24.0439 15.3463 21.6064 18.8412L21.4685 18.979C20.4107 20.4509 18.7549 21.3246 16.9154 21.3246C14.7538 21.3246 12.1781 20.0368 11.3044 17.1853C10.7984 15.4377 10.1086 14.058 9.32663 13.0923C8.54487 12.1264 7.39505 11.6204 6.15316 11.1606C3.71558 10.2407 3.16372 8.03333 3.43956 6.42338C3.53158 5.73361 3.85351 4.99772 4.35949 4.35387C4.35949 4.35387 4.35949 4.30798 4.40537 4.30798C5.09559 3.43374 6.15358 2.79011 7.62537 2.74424ZM14.8917 23.2106C12.592 22.8428 10.7524 21.1869 10.1086 18.9335C9.55672 17.1399 8.91287 15.668 8.08493 14.6564C7.30316 13.6444 6.10722 13.1387 4.86559 12.6327C3.1639 11.943 2.10611 10.5632 2.01407 8.72342C1.96818 7.71151 2.1981 6.79184 2.65791 5.96396C2.65791 6.05598 2.61202 6.10186 2.61202 6.19387C2.2442 8.26338 3.16387 10.885 5.87748 11.9428C7.02732 12.4026 8.03898 12.8166 8.63696 13.5986C9.37285 14.4724 9.97083 15.7601 10.4306 17.416C11.3042 20.2675 13.9258 22.199 16.915 22.199C18.0649 22.199 19.1227 21.923 20.0885 21.3712C18.7547 22.8888 16.8692 23.5326 14.8917 23.2106Z" fill="#222222"/>
<path d="M6.61341 9.96441C7.94728 10.4704 9.32701 11.0681 10.2467 12.2641C11.1205 13.3678 11.8563 14.8857 12.4082 16.7711C13.0979 19.0708 15.1218 20.0825 16.8693 20.0825C17.6973 20.0825 19.307 19.8526 20.4567 18.2429L20.5488 18.105C22.6183 15.1155 22.1126 10.9307 19.307 8.44702C15.9036 5.41146 12.178 3.8938 8.22321 3.8938H7.57936C5.69364 3.98582 4.77396 5.36559 4.58992 6.51542C4.45202 7.71113 4.86581 9.27445 6.61341 9.96441ZM5.55556 6.69895C5.64759 6.28499 5.96952 4.90527 7.67119 4.81322H8.26917C11.9945 4.81322 15.5355 6.28501 18.755 9.13653C21.1926 11.3442 21.6524 14.9314 19.8587 17.5993L19.7667 17.7372C18.8468 18.979 17.6052 19.209 16.9613 19.209C15.5816 19.209 13.9258 18.3811 13.3739 16.5415C12.7759 14.5179 11.9941 12.9082 11.0284 11.7125C9.92465 10.3328 8.45287 9.68887 6.98114 9.13702C5.41737 8.49292 5.50963 7.11296 5.55556 6.69895Z" fill="#222222"/>
<path d="M17.0534 17.4153C18.3873 17.4153 19.491 16.3116 19.491 14.9778C19.491 13.6439 18.3873 12.5402 17.0534 12.5402C15.7196 12.5402 14.6158 13.6439 14.6158 14.9778C14.6158 16.3114 15.7198 17.4153 17.0534 17.4153ZM17.0534 13.4601C17.8813 13.4601 18.571 14.1498 18.571 14.9778C18.571 15.8056 17.8813 16.4954 17.0534 16.4954C16.2256 16.4954 15.5358 15.8056 15.5358 14.9778C15.5358 14.1498 16.2256 13.4601 17.0534 13.4601Z" fill="#222222"/>
</g>
</g>
<defs>
<clipPath id="clip0_1102_241">
<rect width="25" height="25" fill="white" transform="translate(0 0.5)"/>
</clipPath>
<clipPath id="clip1_1102_241">
<rect width="25" height="22.8261" fill="white" transform="translate(0 1.58691)"/>
</clipPath>
</defs>
</svg>
