<svg width="56" height="56" viewBox="0 0 56 56" fill="none" xmlns="http://www.w3.org/2000/svg">
<g clip-path="url(#clip0_1102_715)" filter="url(#filter0_f_1102_715)">
<g clip-path="url(#clip1_1102_715)">
<path fill-rule="evenodd" clip-rule="evenodd" d="M41.6706 48.6002H14.9303C14.5788 48.6002 14.2936 48.3149 14.2936 47.9634V19.9819C14.2894 19.8998 14.3012 19.8149 14.3321 19.732C14.3418 19.705 14.3536 19.679 14.3667 19.654L18.1137 12.1599V7.21671C18.1137 6.86492 18.3986 6.58002 18.7504 6.58002H37.8502C38.202 6.58002 38.4869 6.86492 38.4869 7.21671V12.1599L42.2399 19.6655C42.284 19.7539 42.3071 19.8513 42.3071 19.95V47.9636C42.3071 48.315 42.022 48.6002 41.6706 48.6002ZM19.3872 7.85318V11.673H37.2137V7.85318H19.3872ZM33.637 19.3134L36.8205 12.9467H19.1439L15.9604 19.3134H33.637ZM37.8505 13.7339L34.6675 20.1005V47.327H41.034V20.1005L37.8505 13.7339ZM15.5672 20.5868V47.327H33.3937V20.5868H15.5672ZM19.3871 25.0437H29.5741C29.9259 25.0437 30.2108 25.3286 30.2108 25.6803V32.0469C30.2108 32.3984 29.9259 32.6837 29.5741 32.6837H19.3871C19.0356 32.6837 18.7507 32.3984 18.7507 32.0469V25.6803C18.7507 25.3286 19.0356 25.0437 19.3871 25.0437ZM20.0238 26.317V31.4102H28.9375V26.317H20.0238ZM19.3871 37.7773C19.0356 37.7773 18.7507 37.4924 18.7507 37.1406C18.7507 36.7891 19.0356 36.5039 19.3871 36.5039H29.5741C29.9259 36.5039 30.2108 36.7891 30.2108 37.1406C30.2108 37.4924 29.9259 37.7773 29.5741 37.7773H19.3871ZM21.9338 42.8705C21.5824 42.8705 21.2971 42.5856 21.2971 42.2341C21.2971 41.8824 21.5824 41.5975 21.9338 41.5975H27.0274C27.3789 41.5975 27.6638 41.8824 27.6638 42.2341C27.6638 42.5856 27.3789 42.8705 27.0274 42.8705H21.9338Z" fill="#222222"/>
</g>
</g>
<defs>
<filter id="filter0_f_1102_715" x="0.799988" y="0.0900269" width="55" height="55" filterUnits="userSpaceOnUse" color-interpolation-filters="sRGB">
<feFlood flood-opacity="0" result="BackgroundImageFix"/>
<feBlend mode="normal" in="SourceGraphic" in2="BackgroundImageFix" result="shape"/>
<feGaussianBlur stdDeviation="2.5" result="effect1_foregroundBlur_1102_715"/>
</filter>
<clipPath id="clip0_1102_715">
<rect width="45" height="45" fill="white" transform="translate(5.79999 5.09003)"/>
</clipPath>
<clipPath id="clip1_1102_715">
<rect width="45" height="45" fill="white" transform="translate(5.79999 5.09003)"/>
</clipPath>
</defs>
</svg>
