<svg width="35" height="36" viewBox="0 0 35 36" fill="none" xmlns="http://www.w3.org/2000/svg">
<g clip-path="url(#clip0_1102_290)" filter="url(#filter0_f_1102_290)">
<g clip-path="url(#clip1_1102_290)">
<g clip-path="url(#clip2_1102_290)">
<path fill-rule="evenodd" clip-rule="evenodd" d="M24.9281 29.6723H10.0724C9.87719 29.6723 9.71871 29.5138 9.71871 29.3185V13.7733C9.7164 13.7276 9.72295 13.6804 9.74008 13.6344C9.74547 13.6194 9.75202 13.605 9.75934 13.5911L11.841 9.42769V6.68148C11.841 6.48604 11.9993 6.32776 12.1947 6.32776H22.8057C23.0012 6.32776 23.1594 6.48604 23.1594 6.68148V9.42769L25.2444 13.5975C25.2689 13.6466 25.2818 13.7007 25.2818 13.7555V29.3186C25.2818 29.5139 25.1234 29.6723 24.9281 29.6723ZM12.5485 7.03507V9.15722H22.4521V7.03507H12.5485ZM20.465 13.4019L22.2337 9.86483H12.4133L10.6447 13.4019H20.465ZM22.8059 10.3021L21.0375 13.8392V28.965H24.5745V13.8392L22.8059 10.3021ZM10.4263 14.1093V28.965H20.3299V14.1093H10.4263ZM12.5484 16.5853H18.2079C18.4033 16.5853 18.5616 16.7436 18.5616 16.939V20.476C18.5616 20.6713 18.4033 20.8298 18.2079 20.8298H12.5484C12.3532 20.8298 12.1949 20.6713 12.1949 20.476V16.939C12.1949 16.7436 12.3532 16.5853 12.5484 16.5853ZM12.9021 17.2928V20.1223H17.8542V17.2928H12.9021ZM12.5484 23.6596C12.3532 23.6596 12.1949 23.5013 12.1949 23.3059C12.1949 23.1106 12.3532 22.9522 12.5484 22.9522H18.2079C18.4033 22.9522 18.5616 23.1106 18.5616 23.3059C18.5616 23.5013 18.4033 23.6596 18.2079 23.6596H12.5484ZM13.9633 26.4891C13.7681 26.4891 13.6096 26.3309 13.6096 26.1356C13.6096 25.9402 13.768 25.7819 13.9633 25.7819H16.7931C16.9883 25.7819 17.1466 25.9402 17.1466 26.1356C17.1466 26.3309 16.9883 26.4891 16.7931 26.4891H13.9633Z" fill="#222222"/>
</g>
</g>
</g>
<defs>
<filter id="filter0_f_1102_290" x="0" y="0.5" width="35" height="35" filterUnits="userSpaceOnUse" color-interpolation-filters="sRGB">
<feFlood flood-opacity="0" result="BackgroundImageFix"/>
<feBlend mode="normal" in="SourceGraphic" in2="BackgroundImageFix" result="shape"/>
<feGaussianBlur stdDeviation="2.5" result="effect1_foregroundBlur_1102_290"/>
</filter>
<clipPath id="clip0_1102_290">
<rect width="25" height="25" fill="white" transform="translate(5 5.5)"/>
</clipPath>
<clipPath id="clip1_1102_290">
<rect width="25" height="25" fill="white" transform="translate(5 5.5)"/>
</clipPath>
<clipPath id="clip2_1102_290">
<rect width="16.3793" height="25" fill="white" transform="translate(9.31036 5.5)"/>
</clipPath>
</defs>
</svg>
