<svg width="56" height="56" viewBox="0 0 56 56" fill="none" xmlns="http://www.w3.org/2000/svg">
<g clip-path="url(#clip0_1102_722)" filter="url(#filter0_f_1102_722)">
<g clip-path="url(#clip1_1102_722)">
<path d="M48.4799 35.1176H47.2288L43.6863 19.1777C43.6424 18.9842 43.5246 18.8183 43.356 18.7165C43.1886 18.6132 42.9865 18.5813 42.7945 18.6305C41.9028 18.859 40.9236 19.0744 39.6797 19.3156L36.3653 17.1113L36.3648 15.6666C36.3648 15.265 36.0389 14.9393 35.6376 14.9393H30.4348L28.8154 13.3172C28.5316 13.0334 28.0703 13.0334 27.7865 13.3172L26.1655 14.9381H22.7973C22.6038 14.9381 22.4191 15.0153 22.2824 15.1505L20.6618 16.7726H19.1284C18.9348 16.7726 18.7501 16.8498 18.6134 16.985L16.4003 19.1981C15.5186 19.0295 14.6426 18.846 13.8078 18.6294C13.6158 18.5795 13.4134 18.6117 13.2444 18.7135C13.0758 18.8168 12.9564 18.9842 12.9126 19.1762L9.37153 35.1181H8.12033C7.71866 35.1181 7.39301 35.4442 7.39301 35.8453V41.348C7.39301 41.7498 7.71904 42.0754 8.12033 42.0754H48.4802C48.8819 42.0754 49.2075 41.7493 49.2075 41.348V35.8453C49.2075 35.4425 48.8815 35.1176 48.4799 35.1176ZM19.4296 18.2271H20.963C21.1566 18.2271 21.3413 18.1499 21.478 18.0147L23.099 16.3938H26.4672C26.6607 16.3938 26.8455 16.3166 26.9821 16.1814L28.3001 14.8603L29.6196 16.1798C29.7564 16.3165 29.941 16.3922 30.1345 16.3922H34.911V17.4994C34.911 17.7425 35.0331 17.9694 35.2356 18.1046L37.5822 19.6656C37.3829 19.6964 37.1852 19.734 36.9843 19.7632C36.6687 19.8096 36.3515 19.8503 36.0344 19.8911C35.4306 19.9698 34.8253 20.0381 34.2186 20.0977C33.9259 20.1268 33.6322 20.156 33.34 20.1791C32.6925 20.2328 32.0451 20.2735 31.3961 20.307C31.14 20.32 30.8827 20.3377 30.6265 20.3476C29.8554 20.3784 29.0843 20.3899 28.3146 20.3914C28.1838 20.3914 28.0528 20.3972 27.9234 20.3957C27.0114 20.3914 26.1005 20.3649 25.1926 20.3185C25.0325 20.3096 24.8739 20.295 24.7153 20.2851C23.9906 20.2428 23.2675 20.1906 22.549 20.1207C22.2552 20.093 21.9641 20.0566 21.6731 20.0247C21.0867 19.9594 20.5003 19.8895 19.92 19.8066C19.5998 19.7616 19.2814 19.7106 18.9642 19.6595C18.6877 19.6157 18.4158 19.5635 18.1409 19.5155L19.4296 18.2271ZM14.1731 20.2221C14.9327 20.4041 15.7112 20.5669 16.4895 20.7094C17.4177 20.8956 18.3589 21.0585 19.3078 21.1998C20.0513 21.3104 20.805 21.396 21.5586 21.4789C21.7621 21.5008 21.963 21.5327 22.1668 21.5531C23.0152 21.6376 23.8707 21.6971 24.7291 21.7466C24.8411 21.7524 24.9517 21.7654 25.0635 21.7712C25.9494 21.8177 26.8415 21.838 27.7364 21.8469C27.8207 21.8469 27.9038 21.8526 27.9879 21.8526C28.0927 21.8526 28.196 21.8599 28.2993 21.8599C31.0826 21.8599 33.8718 21.6648 36.6287 21.2881C36.6767 21.2823 36.7248 21.2777 36.7727 21.2708C37.6545 21.1487 38.5304 21.0032 39.4033 20.843C39.4894 20.8269 39.5765 20.8169 39.6622 20.8008C40.7447 20.5942 41.6275 20.4079 42.4263 20.2201L45.7362 35.1169L10.8629 35.1173L14.1731 20.2221ZM47.7525 40.6193H8.84769V36.5717H47.7516L47.7525 40.6193Z" fill="#222222"/>
<path d="M34.0757 23.346C33.0296 23.346 32.0943 23.9439 31.6372 24.8533H24.9607C24.5038 23.9439 23.5682 23.346 22.5221 23.346C21.0133 23.346 19.7856 24.5741 19.7856 26.0826C19.7856 26.6225 19.9484 27.1448 20.2453 27.5898C19.9484 28.0349 19.7856 28.5572 19.7856 29.097C19.7856 30.606 21.0137 31.8337 22.5221 31.8337C23.5682 31.8337 24.5036 31.2357 24.9607 30.3263H31.6372C32.0943 31.2357 33.0296 31.8337 34.0757 31.8337C35.5847 31.8337 36.8124 30.6055 36.8124 29.097C36.8124 28.5572 36.6496 28.0349 36.3527 27.5898C36.6496 27.1447 36.8124 26.6225 36.8124 26.0826C36.8127 24.5737 35.5847 23.346 34.0757 23.346ZM34.9142 28.1385C35.2006 28.3889 35.3581 28.7277 35.3581 29.0975C35.3581 29.8029 34.7832 30.3794 34.0762 30.3794C33.4972 30.3794 32.9895 29.985 32.8423 29.4178C32.7593 29.0964 32.4699 28.872 32.138 28.872H24.4618C24.1301 28.872 23.8405 29.0959 23.7576 29.4178C23.6105 29.9853 23.1028 30.3794 22.5236 30.3794C21.8167 30.3794 21.2418 29.8034 21.2418 29.0975C21.2418 28.7292 21.3989 28.3889 21.6869 28.1385C21.8439 27.9989 21.9357 27.801 21.9357 27.5902C21.9357 27.3794 21.8439 27.1812 21.6869 27.0418C21.4004 26.7914 21.2418 26.4512 21.2418 26.0829C21.2418 25.3775 21.8167 24.8011 22.5236 24.8011C23.1028 24.8011 23.6105 25.1955 23.7576 25.7627C23.8405 26.0841 24.1301 26.3084 24.4618 26.3084H32.138C32.4699 26.3084 32.7593 26.0845 32.8423 25.7627C32.9895 25.1951 33.497 24.8011 34.0762 24.8011C34.7832 24.8011 35.3581 25.3771 35.3581 26.0829C35.3581 26.4524 35.2011 26.7914 34.9142 27.0418C34.757 27.1816 34.6652 27.3794 34.6652 27.5902C34.6652 27.801 34.7567 27.9989 34.9142 28.1385Z" fill="#222222"/>
</g>
</g>
<defs>
<filter id="filter0_f_1102_722" x="0.799988" y="0.0900269" width="55" height="55" filterUnits="userSpaceOnUse" color-interpolation-filters="sRGB">
<feFlood flood-opacity="0" result="BackgroundImageFix"/>
<feBlend mode="normal" in="SourceGraphic" in2="BackgroundImageFix" result="shape"/>
<feGaussianBlur stdDeviation="2.5" result="effect1_foregroundBlur_1102_722"/>
</filter>
<clipPath id="clip0_1102_722">
<rect width="45" height="45" fill="white" transform="translate(5.79999 5.09003)"/>
</clipPath>
<clipPath id="clip1_1102_722">
<rect width="45" height="45" fill="white" transform="translate(5.79999 5.09003)"/>
</clipPath>
</defs>
</svg>
