<svg width="35" height="36" viewBox="0 0 35 36" fill="none" xmlns="http://www.w3.org/2000/svg">
<g clip-path="url(#clip0_1102_297)" filter="url(#filter0_f_1102_297)">
<g clip-path="url(#clip1_1102_297)">
<path d="M28.7111 22.182H28.016L26.0479 13.3265C26.0236 13.2189 25.9581 13.1268 25.8645 13.0702C25.7714 13.0129 25.6592 12.9951 25.5525 13.0225C25.0571 13.1494 24.5131 13.2691 23.8221 13.4031L21.9807 12.1785L21.9804 11.3759C21.9804 11.1527 21.7994 10.9718 21.5764 10.9718H18.686L17.7863 10.0706C17.6287 9.91298 17.3724 9.91298 17.2147 10.0706L16.3142 10.9711H14.4429C14.3354 10.9711 14.2329 11.014 14.1569 11.0891L13.2566 11.9903H12.4047C12.2971 11.9903 12.1945 12.0332 12.1186 12.1083L10.8891 13.3378C10.3992 13.2441 9.91257 13.1422 9.44877 13.0218C9.3421 12.9941 9.22966 13.012 9.13579 13.0686C9.04213 13.126 8.97578 13.219 8.95146 13.3256L6.98419 22.1822H6.28908C6.06593 22.1822 5.88501 22.3634 5.88501 22.5862V25.6433C5.88501 25.8665 6.06614 26.0474 6.28908 26.0474H28.7113C28.9344 26.0474 29.1153 25.8662 29.1153 25.6433V22.5862C29.1153 22.3625 28.9342 22.182 28.7111 22.182ZM12.572 12.7983H13.4239C13.5314 12.7983 13.6341 12.7555 13.71 12.6804L14.6105 11.7798H16.4818C16.5893 11.7798 16.692 11.737 16.7679 11.6619L17.5001 10.9279L18.2331 11.661C18.3091 11.7369 18.4117 11.779 18.5192 11.779H21.1728V12.3941C21.1728 12.5291 21.2406 12.6552 21.3531 12.7303L22.6568 13.5975C22.5461 13.6146 22.4363 13.6355 22.3246 13.6517C22.1493 13.6775 21.973 13.7002 21.7969 13.7228C21.4614 13.7665 21.1252 13.8045 20.7881 13.8376C20.6255 13.8538 20.4623 13.87 20.3 13.8828C19.9403 13.9127 19.5806 13.9353 19.2201 13.9538C19.0778 13.9611 18.9348 13.9709 18.7925 13.9764C18.3641 13.9935 17.9357 13.9999 17.5081 14.0008C17.4354 14.0008 17.3627 14.004 17.2908 14.0031C16.7841 14.0008 16.278 13.986 15.7737 13.9602C15.6847 13.9553 15.5966 13.9472 15.5085 13.9417C15.1059 13.9182 14.7042 13.8892 14.305 13.8504C14.1418 13.835 13.9801 13.8147 13.8184 13.797C13.4926 13.7607 13.1668 13.7219 12.8445 13.6758C12.6665 13.6509 12.4897 13.6225 12.3135 13.5941C12.1598 13.5698 12.0088 13.5408 11.8561 13.5141L12.572 12.7983ZM9.65173 13.9067C10.0737 14.0078 10.5062 14.0982 10.9386 14.1774C11.4543 14.2809 11.9772 14.3713 12.5043 14.4498C12.9174 14.5113 13.3361 14.5589 13.7548 14.6049C13.8678 14.6171 13.9795 14.6348 14.0927 14.6461C14.564 14.6931 15.0393 14.7261 15.5162 14.7536C15.5784 14.7568 15.6398 14.7641 15.702 14.7673C16.1941 14.7931 16.6897 14.8044 17.1869 14.8093C17.2338 14.8093 17.2799 14.8125 17.3266 14.8125C17.3848 14.8125 17.4422 14.8166 17.4996 14.8166C19.0459 14.8166 20.5954 14.7082 22.1271 14.4989C22.1538 14.4957 22.1804 14.4931 22.2071 14.4893C22.697 14.4215 23.1836 14.3406 23.6685 14.2516C23.7163 14.2427 23.7647 14.2371 23.8123 14.2282C24.4138 14.1134 24.9042 14.0099 25.3479 13.9056L27.1868 22.1816L7.81275 22.1818L9.65173 13.9067ZM28.307 25.2385H6.69317V22.9898H28.3064L28.307 25.2385Z" fill="#222222"/>
<path d="M20.7087 15.6422C20.1276 15.6422 19.6079 15.9744 19.354 16.4796H15.6448C15.391 15.9744 14.8712 15.6422 14.2901 15.6422C13.4518 15.6422 12.7698 16.3245 12.7698 17.1625C12.7698 17.4625 12.8602 17.7526 13.0251 17.9999C12.8602 18.2471 12.7698 18.5373 12.7698 18.8372C12.7698 19.6755 13.452 20.3576 14.2901 20.3576C14.8712 20.3576 15.3909 20.0254 15.6448 19.5202H19.354C19.6079 20.0254 20.1276 20.3576 20.7087 20.3576C21.5471 20.3576 22.2291 19.6753 22.2291 18.8372C22.2291 18.5373 22.1387 18.2471 21.9737 17.9999C22.1387 17.7526 22.2291 17.4625 22.2291 17.1625C22.2293 16.3243 21.5471 15.6422 20.7087 15.6422ZM21.1746 18.3047C21.3337 18.4438 21.4212 18.6321 21.4212 18.8375C21.4212 19.2294 21.1018 19.5496 20.709 19.5496C20.3873 19.5496 20.1053 19.3305 20.0235 19.0154C19.9774 18.8369 19.8166 18.7122 19.6322 18.7122H15.3677C15.1834 18.7122 15.0225 18.8366 14.9764 19.0154C14.8947 19.3307 14.6127 19.5496 14.2909 19.5496C13.8982 19.5496 13.5788 19.2296 13.5788 18.8375C13.5788 18.6329 13.6661 18.4438 13.8261 18.3047C13.9133 18.2271 13.9643 18.1172 13.9643 18.0001C13.9643 17.883 13.9133 17.7729 13.8261 17.6954C13.6669 17.5563 13.5788 17.3673 13.5788 17.1627C13.5788 16.7708 13.8982 16.4506 14.2909 16.4506C14.6127 16.4506 14.8947 16.6697 14.9764 16.9848C15.0225 17.1634 15.1834 17.288 15.3677 17.288H19.6322C19.8166 17.288 19.9774 17.1636 20.0235 16.9848C20.1053 16.6695 20.3872 16.4506 20.709 16.4506C21.1018 16.4506 21.4212 16.7706 21.4212 17.1627C21.4212 17.368 21.3339 17.5563 21.1746 17.6954C21.0872 17.7731 21.0362 17.883 21.0362 18.0001C21.0362 18.1172 21.0871 18.2271 21.1746 18.3047Z" fill="#222222"/>
</g>
</g>
<defs>
<filter id="filter0_f_1102_297" x="0" y="0.5" width="35" height="35" filterUnits="userSpaceOnUse" color-interpolation-filters="sRGB">
<feFlood flood-opacity="0" result="BackgroundImageFix"/>
<feBlend mode="normal" in="SourceGraphic" in2="BackgroundImageFix" result="shape"/>
<feGaussianBlur stdDeviation="2.5" result="effect1_foregroundBlur_1102_297"/>
</filter>
<clipPath id="clip0_1102_297">
<rect width="25" height="25" fill="white" transform="translate(5 5.5)"/>
</clipPath>
<clipPath id="clip1_1102_297">
<rect width="25" height="17.8571" fill="white" transform="translate(5 9.07141)"/>
</clipPath>
</defs>
</svg>
