<svg width="50" height="51" viewBox="0 0 50 51" fill="none" xmlns="http://www.w3.org/2000/svg">
<g clip-path="url(#clip0_1102_818)" filter="url(#filter0_f_1102_818)">
<g clip-path="url(#clip1_1102_818)">
<g clip-path="url(#clip2_1102_818)">
<path d="M43.7373 29.4773C42.9628 27.7074 42.1937 25.9346 41.4159 24.1658C41.2017 23.6773 41.0488 23.1554 40.7284 22.7189C40.5703 22.5033 40.5088 22.2887 40.5098 22.0314C40.5152 20.8086 40.5226 19.5846 40.5098 18.3606C40.4929 16.5544 40.0112 14.8669 39.1306 13.2835C38.6787 12.4721 38.2542 11.6471 37.7906 10.8429C37.6813 10.6554 37.6654 10.4846 37.8139 10.3044C37.9868 10.0929 38.0442 9.84082 38.0442 9.57207C38.0463 8.42623 38.0452 7.28041 38.0442 6.13561C38.0442 5.66582 37.8489 5.33665 37.3716 5.2002H30.7669C30.2544 5.33249 30.1049 5.50957 30.1007 6.0554C30.0911 7.25332 30.0964 8.4502 30.0986 9.64811C30.0986 9.85957 30.1154 10.0742 30.2556 10.2419C30.4646 10.4887 30.3967 10.7137 30.2556 10.9575C29.7357 11.8502 29.2624 12.7679 28.7733 13.6773C28.6184 13.9648 28.4699 14.0304 28.1506 13.9356C25.4578 13.1387 23.1088 13.7627 21.0664 15.62C20.9721 15.7054 20.8946 15.8648 20.7513 15.82C20.6092 15.7762 20.6324 15.6023 20.6059 15.4804C20.3132 14.1439 20.0139 12.8096 19.7328 11.471C19.1874 8.87728 16.4735 6.70436 13.3765 7.11998C10.637 7.48666 8.46734 9.84707 8.44612 12.5554C8.43869 13.5346 8.70393 14.4617 8.90446 15.4012C9.37447 17.6054 9.86677 19.8043 10.341 22.0074C10.4238 22.3939 10.3962 22.4262 9.9771 22.4324C9.64608 22.4367 9.31399 22.4377 8.98297 22.4324C8.53312 22.4252 8.22225 22.6211 8.04719 23.0242C7.07534 25.2502 6.11091 27.4773 5.12951 29.6981C4.70406 30.6617 5.40218 31.1711 6.13107 31.1689C6.54273 31.1679 6.95333 31.1689 7.36392 31.1699C7.97398 31.1721 7.97504 31.1721 7.97504 31.7824C7.9761 35.3617 7.97504 38.9418 7.9761 42.5211C7.9761 42.7679 7.96868 43.0158 8.04507 43.2564C8.17557 43.6711 8.44718 43.9252 8.89492 43.9679C10.4365 44.1158 11.9813 44.2336 13.5239 44.3711C14.882 44.4929 16.2411 44.5961 17.6002 44.7148C19.0633 44.8418 20.5253 44.9804 21.9916 45.0856C22.5561 45.1262 23.1258 45.0908 23.6849 45.2002H25.1172C25.4663 45.1158 25.8259 45.1408 26.1782 45.1304C27.9012 45.0824 29.6094 44.8596 31.3261 44.7367C32.6724 44.6398 34.0167 44.5012 35.3621 44.3814C36.9057 44.2449 38.4516 44.1408 39.9932 43.9793C40.5724 43.9189 40.8684 43.6324 40.9651 43.0668C41.0001 42.8606 40.9894 42.6512 40.9894 42.4429C40.9904 38.9408 40.9904 35.4387 40.9904 31.9367C40.9904 31.8064 40.9958 31.6762 40.9904 31.5461C40.9788 31.2814 41.1029 31.1699 41.3714 31.1742C41.7819 31.1793 42.1937 31.1773 42.6042 31.1742C43.8562 31.1668 44.2297 30.6043 43.7373 29.4773ZM31.7781 7.02311C31.7738 6.82728 31.8194 6.75645 32.0369 6.75748C33.3876 6.76791 34.7392 6.76582 36.0909 6.75853C36.2777 6.75853 36.3413 6.80645 36.3371 6.99707C36.3254 7.56895 36.3212 8.14186 36.3381 8.71373C36.3444 8.93978 36.2448 8.96166 36.0581 8.95957C35.3822 8.95123 34.7063 8.95645 34.0316 8.95645C33.3684 8.95645 32.7064 8.94811 32.0443 8.96061C31.8364 8.96478 31.7727 8.90853 31.7781 8.70123C31.7918 8.14186 31.7908 7.58248 31.7781 7.02311ZM29.3272 17.7898C29.4184 16.5137 29.8036 15.321 30.4168 14.196C31.0343 13.0637 31.6549 11.9314 32.2629 10.7939C32.3658 10.6002 32.4729 10.5075 32.7128 10.5117C33.6146 10.5283 34.5164 10.52 35.4183 10.5179C35.5636 10.5179 35.6919 10.5075 35.7789 10.6752C36.5333 12.1189 37.3917 13.5096 38.0718 14.9898C38.5714 16.0794 38.8081 17.2377 38.8113 18.4367C38.8144 19.6867 38.8028 20.9367 38.8218 22.1867C38.8261 22.4836 38.7104 22.5168 38.4548 22.5148C36.9822 22.5043 35.5106 22.5096 34.0379 22.5096C32.5802 22.5096 31.1213 22.4992 29.6624 22.5179C29.3378 22.5221 29.2646 22.4242 29.2731 22.1242C29.3092 20.6793 29.2243 19.2336 29.3272 17.7898ZM10.2254 13.3721C9.79462 11.2794 11.1505 9.32623 13.3001 8.8377C15.3414 8.37416 17.4984 9.61166 18.0023 11.6335C18.5361 13.7762 18.9647 15.9439 19.4442 18.1002C19.4718 18.2273 19.4283 18.3293 19.3922 18.4387C18.9794 19.6804 18.9222 20.9398 19.2383 22.2064C19.3148 22.5148 19.1948 22.5148 18.9614 22.5127C17.8877 22.5054 16.814 22.5096 15.7403 22.5096C14.6677 22.5096 13.594 22.5074 12.5203 22.5117C12.3219 22.5127 12.1903 22.5086 12.1351 22.2502C11.506 19.2898 10.8354 16.3367 10.2254 13.3721ZM7.43713 29.4824C7.16234 29.4824 7.09019 29.4449 7.21327 29.1689C7.92518 27.5648 8.6286 25.9564 9.31612 24.3429C9.42222 24.0929 9.57288 24.0679 9.80204 24.0689C11.9749 24.0752 14.1478 24.0721 16.3207 24.0721C18.5063 24.0721 20.6929 24.0783 22.8786 24.0668C23.1989 24.0648 23.2658 24.1168 23.1301 24.4242C22.4266 26.0033 21.7391 27.5898 21.0569 29.1783C20.9624 29.4002 20.8478 29.4846 20.5932 29.4836C16.2072 29.4752 11.8221 29.4752 7.43713 29.4824ZM23.2859 43.5461C20.3174 43.2752 17.3466 43.0252 14.3759 42.7689C12.9107 42.6418 11.4466 42.5054 9.98029 42.3961C9.69807 42.3742 9.70549 42.2398 9.70549 42.0439C9.70868 40.1564 9.70762 38.2689 9.70762 36.3814C9.70762 34.7283 9.71504 33.0742 9.70019 31.4211C9.69701 31.1168 9.77446 31.0314 10.0917 31.0324C13.7775 31.0439 17.4644 31.0324 21.1503 31.0481C21.7359 31.0502 22.0828 30.8418 22.3003 30.3043C22.7131 29.2836 23.1724 28.2804 23.6128 27.2699C23.6372 27.2742 23.6606 27.2773 23.6849 27.2814V28.8377C23.6849 33.6158 23.6817 38.3929 23.6923 43.1711C23.6934 43.4961 23.6298 43.5783 23.2859 43.5461ZM24.3067 22.5096C23.3126 22.5096 22.3184 22.5033 21.3253 22.5148C21.0813 22.5179 20.9636 22.4648 20.8776 22.2106C19.7784 18.9543 22.3014 15.3856 25.7899 15.2721C26.4997 15.2481 27.1883 15.3262 27.8513 15.5887C28.0031 15.6481 28.1018 15.7012 28.0456 15.8939C27.6721 17.1731 27.6773 18.4867 27.6869 19.8012C27.6922 20.5824 27.6753 21.3627 27.6943 22.1429C27.7018 22.4262 27.6381 22.5242 27.3273 22.5179C26.3214 22.4971 25.3136 22.5096 24.3067 22.5096ZM41.5146 29.4846C40.5873 29.4648 39.6589 29.4742 38.7306 29.4793C38.1513 29.4814 37.7884 29.7877 37.7906 30.2574C37.7917 30.7252 38.1609 31.0293 38.7369 31.0398C39.2537 31.0492 39.2537 31.0492 39.2537 31.5637C39.2537 35.0262 39.2494 38.4898 39.2622 41.9523C39.2632 42.2814 39.1901 42.3793 38.8367 42.4086C34.7434 42.7481 30.6523 43.1096 26.5612 43.4648C26.2439 43.4918 25.9257 43.5064 25.6106 43.5481C25.3718 43.5793 25.2689 43.5502 25.2689 43.2637C25.2786 37.9398 25.2764 32.6158 25.2764 27.2908C25.2987 27.2824 25.3209 27.2742 25.3443 27.2648C25.7952 28.2949 26.2631 29.3189 26.6896 30.3586C26.8933 30.8543 27.2212 31.0533 27.7538 31.0449C28.9336 31.0283 30.1134 31.0471 31.2932 31.0367C31.9776 31.0304 32.3828 30.4554 32.1038 29.9106C31.9351 29.5814 31.6433 29.4731 31.2816 29.4752C30.3139 29.4814 29.3452 29.4689 28.3776 29.4836C28.1304 29.4877 28.0042 29.4168 27.9066 29.1877C27.2254 27.5971 26.5358 26.0106 25.8344 24.4283C25.7072 24.1398 25.7358 24.0648 26.0774 24.0658C30.4529 24.0762 34.8283 24.0742 39.2049 24.0679C39.4362 24.0668 39.5539 24.1304 39.6462 24.3481C40.3327 25.9502 41.0308 27.5471 41.7363 29.1408C41.8509 29.4012 41.8457 29.4918 41.5146 29.4846Z" fill="#4A5568"/>
<path d="M35.0234 29.4848C35.4648 29.4931 35.7884 29.8181 35.7894 30.2535C35.7894 30.691 35.4213 31.0494 34.9851 31.0379C34.5704 31.0264 34.2064 30.6608 34.2075 30.2545C34.2085 29.8191 34.5714 29.4764 35.0234 29.4848Z" fill="#4A5568"/>
<path d="M13.8199 16.545C13.2756 16.5461 12.9552 16.294 12.8777 15.9211C12.8035 15.5596 13.0061 15.1492 13.3838 15.0565C14.2018 14.8575 15.0283 14.6846 15.8591 14.5409C16.2315 14.4763 16.588 14.7836 16.6697 15.1461C16.7503 15.5044 16.5551 15.9325 16.1869 16.0252C15.3583 16.2336 14.517 16.395 13.8199 16.545Z" fill="#4A5568"/>
<path d="M16.7249 18.3938C17.126 18.3959 17.4326 18.6469 17.5057 19.0282C17.578 19.4063 17.3901 19.7876 16.9986 19.8834C16.1817 20.0844 15.3552 20.2574 14.5266 20.4032C14.1711 20.4657 13.8178 20.1668 13.7372 19.8272C13.647 19.4449 13.821 19.0856 14.1754 18.9241C14.3229 18.8574 16.5552 18.3928 16.7249 18.3938Z" fill="#4A5568"/>
</g>
</g>
</g>
<defs>
<filter id="filter0_f_1102_818" x="0" y="0.200195" width="50" height="50" filterUnits="userSpaceOnUse" color-interpolation-filters="sRGB">
<feFlood flood-opacity="0" result="BackgroundImageFix"/>
<feBlend mode="normal" in="SourceGraphic" in2="BackgroundImageFix" result="shape"/>
<feGaussianBlur stdDeviation="2.5" result="effect1_foregroundBlur_1102_818"/>
</filter>
<clipPath id="clip0_1102_818">
<rect width="40" height="40" fill="white" transform="translate(5 5.2002)"/>
</clipPath>
<clipPath id="clip1_1102_818">
<rect width="40" height="40" fill="white" transform="translate(5 5.2002)"/>
</clipPath>
<clipPath id="clip2_1102_818">
<rect width="40" height="40" fill="white" transform="translate(5 5.2002)"/>
</clipPath>
</defs>
</svg>
