<svg width="36" height="35" viewBox="0 0 36 35" fill="none" xmlns="http://www.w3.org/2000/svg">
<rect x="0.469971" width="35" height="35" rx="5" fill="#F3F5F9"/>
<g clip-path="url(#clip0_1102_65)">
<path d="M23.97 16.1667C23.97 20.8334 17.97 24.8334 17.97 24.8334C17.97 24.8334 11.97 20.8334 11.97 16.1667C11.97 14.5754 12.6021 13.0493 13.7273 11.9241C14.8525 10.7989 16.3787 10.1667 17.97 10.1667C19.5613 10.1667 21.0874 10.7989 22.2126 11.9241C23.3378 13.0493 23.97 14.5754 23.97 16.1667Z" stroke="#4A5568" stroke-width="1.33333" stroke-linecap="round" stroke-linejoin="round"/>
<path d="M17.97 18.1667C19.0745 18.1667 19.97 17.2713 19.97 16.1667C19.97 15.0622 19.0745 14.1667 17.97 14.1667C16.8654 14.1667 15.97 15.0622 15.97 16.1667C15.97 17.2713 16.8654 18.1667 17.97 18.1667Z" stroke="#4A5568" stroke-width="1.33333" stroke-linecap="round" stroke-linejoin="round"/>
</g>
<defs>
<clipPath id="clip0_1102_65">
<rect width="16" height="16" fill="white" transform="translate(9.96997 9.5)"/>
</clipPath>
</defs>
</svg>
