<svg width="46" height="26" viewBox="0 0 46 26" fill="none" xmlns="http://www.w3.org/2000/svg">
<g clip-path="url(#clip0_1102_753)">
<rect width="45" height="25" transform="translate(0.5 0.77002)" fill="white"/>
<path d="M20.5388 8.55682C18.5784 6.84651 16.7846 5.47003 14.9492 4.34374C14.6989 4.17682 14.3653 4.26028 14.2402 4.51064C14.0733 4.76101 14.1567 5.09459 14.4071 5.21968C16.159 6.30416 17.9527 7.68085 19.8716 9.30751C22.1659 11.3098 23.584 13.1452 24.5018 15.3562C25.5863 17.984 26.2537 20.9041 26.5458 24.5328C26.5874 24.8249 26.7961 24.9917 27.0462 24.9917H27.0878C27.3799 24.9501 27.5884 24.6998 27.5467 24.4495C27.2548 20.7371 26.5458 17.7334 25.4195 14.9808C24.4598 12.6448 22.9163 10.6422 20.5388 8.55682Z" fill="#0DA487"/>
<path d="M35.2218 4.26019C35.0134 4.26019 34.7629 4.30181 34.5544 4.30181L34.2625 4.34365C33.0944 4.46873 31.8847 4.63564 30.7168 5.09452C29.4654 5.55341 28.506 6.3459 27.8386 7.47226C26.8375 9.14075 26.2951 10.9761 26.1701 12.8949V13.2704V13.604C26.0866 13.8959 26.2535 14.1879 26.5037 14.2713C26.7956 14.3548 27.0876 14.188 27.1711 13.9378C27.2546 13.6874 27.2546 13.4373 27.2127 13.2287V12.9784C27.2962 11.2265 27.8384 9.558 28.7561 8.05626C29.2985 7.13848 30.0491 6.51287 31.0921 6.13743C32.093 5.76199 33.136 5.59507 34.3458 5.47L34.6377 5.42838C34.8047 5.42838 34.9297 5.38676 35.0966 5.38676C35.055 5.72037 35.055 6.05419 35.0131 6.3878C34.9297 7.26376 34.8463 8.13971 34.7628 9.01567C34.5959 10.4756 34.3039 11.6019 33.845 12.5613C33.4279 13.4791 32.844 14.0631 32.0931 14.355C31.5926 14.5636 31.0502 14.6886 30.4663 14.7305C30.1327 14.7721 29.7573 14.7721 29.3818 14.7305C29.0064 14.6888 28.6727 14.647 28.3389 14.6055C28.0469 14.5638 27.7966 14.7305 27.7134 15.0224C27.6717 15.3145 27.8384 15.5648 28.1304 15.6481C28.5059 15.7316 28.8813 15.7732 29.3402 15.815H29.9241C30.1744 15.815 30.383 15.815 30.5915 15.7734C31.259 15.6899 31.9264 15.5648 32.5104 15.3145C33.5114 14.8974 34.2623 14.1466 34.8463 13.0203C35.3887 11.9358 35.6806 10.6843 35.8474 9.14098C35.9308 8.26502 36.0142 7.38906 36.0977 6.51311C36.1393 6.13766 36.1812 5.72057 36.2228 5.34515C36.2645 5.05316 36.1812 4.80279 36.0142 4.63611C35.7643 4.34368 35.5139 4.26019 35.2218 4.26019Z" fill="#0DA487"/>
<path d="M13.8232 12.1437C14.1152 12.4773 14.4488 12.8112 14.7827 13.1032C15.2832 13.5202 15.8255 13.854 16.3677 14.1461C17.8694 14.897 19.496 15.022 20.9978 15.0638H21.7903H22.0824C22.3743 15.0638 22.5828 14.8135 22.5828 14.5214C22.5828 14.2295 22.3325 14.021 22.0405 14.021H20.9976C19.5793 13.9794 18.1194 13.854 16.7846 13.1867C16.284 12.9362 15.8251 12.6443 15.4081 12.2688C15.1161 12.0185 14.8241 11.7264 14.5737 11.4345C13.4893 10.1831 12.6549 8.76478 12.0293 7.1379C11.4869 5.76142 11.1115 4.25964 10.8613 2.50773C10.9448 2.50773 11.0699 2.50773 11.1949 2.54935H11.32C12.6972 2.67486 14.2822 2.84155 15.8672 3.17535C16.1175 3.21697 16.3677 3.30042 16.618 3.34226L17.1604 3.50896C18.6622 3.92601 20.2472 4.3433 21.6237 5.09395C22.7081 5.6779 23.584 6.47042 24.1264 7.38821C24.5018 8.01382 24.7103 8.72308 24.7103 9.47395C24.7103 9.76594 24.7103 10.183 24.6688 10.6003C24.6272 10.8922 24.8356 11.1426 25.1276 11.1842C25.4197 11.2258 25.67 11.0173 25.7116 10.7253C25.7533 10.2664 25.7533 9.76586 25.7533 9.47391C25.7533 8.51447 25.5028 7.63852 25.0024 6.84604C24.3349 5.76158 23.3339 4.84374 22.0825 4.17636C20.6226 3.38383 18.9957 2.96657 17.4107 2.50787L16.8684 2.34097C16.618 2.2575 16.326 2.21589 16.0758 2.13244C14.449 1.79861 12.8221 1.63192 11.4038 1.54848L11.3204 1.50665C11.1534 1.50665 10.9868 1.46503 10.8198 1.46503C10.4862 1.50665 10.2359 1.63194 10.0273 1.84047C9.86041 2.049 9.81879 2.34099 9.81879 2.59134C10.0692 4.42674 10.4862 6.05356 11.0702 7.51347C11.7792 9.26537 12.6553 10.7671 13.8232 12.1437Z" fill="#0DA487"/>
</g>
<defs>
<clipPath id="clip0_1102_753">
<rect width="45" height="25" fill="white" transform="translate(0.5 0.77002)"/>
</clipPath>
</defs>
</svg>
