<svg width="46" height="26" viewBox="0 0 46 26" fill="none" xmlns="http://www.w3.org/2000/svg">
<g clip-path="url(#clip0_1102_762)">
<rect width="45" height="25" transform="translate(0.5 0.560059)" fill="white"/>
<path d="M20.5388 8.34692C18.5784 6.63661 16.7846 5.26013 14.9492 4.13384C14.6989 3.96692 14.3653 4.05038 14.2402 4.30074C14.0733 4.55111 14.1567 4.88469 14.4071 5.00978C16.159 6.09426 17.9527 7.47095 19.8716 9.09761C22.1659 11.0999 23.584 12.9353 24.5018 15.1463C25.5863 17.7741 26.2537 20.6942 26.5458 24.3229C26.5874 24.615 26.7961 24.7818 27.0462 24.7818H27.0878C27.3799 24.7402 27.5884 24.4899 27.5467 24.2396C27.2548 20.5272 26.5458 17.5235 25.4195 14.7709C24.4598 12.4349 22.9163 10.4323 20.5388 8.34692Z" fill="#0DA487"/>
<path d="M35.2218 4.05017C35.0134 4.05017 34.7629 4.09179 34.5544 4.09179L34.2625 4.13363C33.0944 4.2587 31.8847 4.42562 30.7168 4.8845C29.4654 5.34339 28.506 6.13588 27.8386 7.26224C26.8375 8.93073 26.2951 10.7661 26.1701 12.6849V13.0603V13.3939C26.0866 13.6859 26.2535 13.9778 26.5037 14.0613C26.7956 14.1448 27.0876 13.978 27.1711 13.7277C27.2546 13.4774 27.2546 13.2273 27.2127 13.0187V12.7684C27.2962 11.0165 27.8384 9.34798 28.7561 7.84624C29.2985 6.92845 30.0491 6.30285 31.0921 5.92741C32.093 5.55196 33.136 5.38505 34.3458 5.25998L34.6377 5.21836C34.8047 5.21836 34.9297 5.17674 35.0966 5.17674C35.055 5.51034 35.055 5.84417 35.0131 6.17778C34.9297 7.05374 34.8463 7.92969 34.7628 8.80565C34.5959 10.2656 34.3039 11.3919 33.845 12.3513C33.4279 13.269 32.844 13.8531 32.0931 14.145C31.5926 14.3536 31.0502 14.4786 30.4663 14.5205C30.1327 14.5621 29.7573 14.5621 29.3818 14.5205C29.0064 14.4788 28.6727 14.437 28.3389 14.3955C28.0469 14.3538 27.7966 14.5205 27.7134 14.8124C27.6717 15.1045 27.8384 15.3548 28.1304 15.4381C28.5059 15.5215 28.8813 15.5632 29.3402 15.605H29.9241C30.1744 15.605 30.383 15.605 30.5915 15.5634C31.259 15.4799 31.9264 15.3548 32.5104 15.1045C33.5114 14.6874 34.2623 13.9365 34.8463 12.8102C35.3887 11.7258 35.6806 10.4743 35.8474 8.93095C35.9308 8.055 36.0142 7.17904 36.0977 6.30308C36.1393 5.92764 36.1812 5.51055 36.2228 5.13513C36.2645 4.84314 36.1812 4.59277 36.0142 4.42608C35.7643 4.13366 35.5139 4.05017 35.2218 4.05017Z" fill="#0DA487"/>
<path d="M13.8232 11.9337C14.1152 12.2673 14.4488 12.6012 14.7827 12.8932C15.2832 13.3102 15.8255 13.644 16.3677 13.9361C17.8694 14.687 19.496 14.812 20.9978 14.8538H21.7903H22.0824C22.3743 14.8538 22.5828 14.6035 22.5828 14.3114C22.5828 14.0195 22.3325 13.811 22.0405 13.811H20.9976C19.5793 13.7693 18.1194 13.644 16.7846 12.9766C16.284 12.7262 15.8251 12.4342 15.4081 12.0588C15.1161 11.8085 14.8241 11.5164 14.5737 11.2245C13.4893 9.97307 12.6549 8.55476 12.0293 6.92788C11.4869 5.5514 11.1115 4.04962 10.8613 2.29771C10.9448 2.29771 11.0699 2.29771 11.1949 2.33933H11.32C12.6972 2.46484 14.2822 2.63153 15.8672 2.96533C16.1175 3.00695 16.3677 3.0904 16.618 3.13224L17.1604 3.29894C18.6622 3.71599 20.2472 4.13328 21.6237 4.88392C22.7081 5.46788 23.584 6.2604 24.1264 7.17819C24.5018 7.80379 24.7103 8.51306 24.7103 9.26392C24.7103 9.55591 24.7103 9.97297 24.6688 10.3902C24.6272 10.6822 24.8356 10.9326 25.1276 10.9742C25.4197 11.0158 25.67 10.8073 25.7116 10.5153C25.7533 10.0564 25.7533 9.55584 25.7533 9.26389C25.7533 8.30445 25.5028 7.4285 25.0024 6.63602C24.3349 5.55156 23.3339 4.63372 22.0825 3.96634C20.6226 3.1738 18.9957 2.75654 17.4107 2.29785L16.8684 2.13095C16.618 2.04748 16.326 2.00587 16.0758 1.92241C14.449 1.58859 12.8221 1.4219 11.4038 1.33846L11.3204 1.29662C11.1534 1.29662 10.9868 1.255 10.8198 1.255C10.4862 1.29662 10.2359 1.42192 10.0273 1.63045C9.86041 1.83898 9.81879 2.13097 9.81879 2.38132C10.0692 4.21672 10.4862 5.84353 11.0702 7.30345C11.7792 9.05535 12.6553 10.557 13.8232 11.9337Z" fill="#0DA487"/>
</g>
<defs>
<clipPath id="clip0_1102_762">
<rect width="45" height="25" fill="white" transform="translate(0.5 0.560059)"/>
</clipPath>
</defs>
</svg>
