<svg width="46" height="26" viewBox="0 0 46 26" fill="none" xmlns="http://www.w3.org/2000/svg">
<g clip-path="url(#clip0_1102_376)">
<rect width="45" height="25" transform="translate(0.5 0.5)" fill="white"/>
<path d="M20.5388 8.28686C18.5784 6.57655 16.7846 5.20007 14.9492 4.07378C14.6989 3.90686 14.3653 3.99032 14.2402 4.24068C14.0733 4.49105 14.1567 4.82464 14.4071 4.94972C16.159 6.0342 17.9527 7.4109 19.8716 9.03755C22.1659 11.0399 23.584 12.8753 24.5018 15.0862C25.5863 17.7141 26.2537 20.6342 26.5458 24.2629C26.5874 24.5549 26.7961 24.7218 27.0462 24.7218H27.0878C27.3799 24.6801 27.5884 24.4298 27.5467 24.1795C27.2548 20.4671 26.5458 17.4634 25.4195 14.7108C24.4598 12.3748 22.9163 10.3722 20.5388 8.28686Z" fill="#0DA487"/>
<path d="M35.2218 3.99011C35.0134 3.99011 34.7629 4.03173 34.5544 4.03173L34.2625 4.07357C33.0944 4.19864 31.8847 4.36556 30.7168 4.82444C29.4654 5.28333 28.506 6.07582 27.8386 7.20218C26.8375 8.87067 26.2951 10.706 26.1701 12.6249V13.0003V13.3339C26.0866 13.6258 26.2535 13.9178 26.5037 14.0013C26.7956 14.0847 27.0876 13.9179 27.1711 13.6677C27.2546 13.4174 27.2546 13.1672 27.2127 12.9587V12.7083C27.2962 10.9564 27.8384 9.28792 28.7561 7.78618C29.2985 6.8684 30.0491 6.24279 31.0921 5.86735C32.093 5.49191 33.136 5.32499 34.3458 5.19992L34.6377 5.1583C34.8047 5.1583 34.9297 5.11668 35.0966 5.11668C35.055 5.45029 35.055 5.78411 35.0131 6.11772C34.9297 6.99368 34.8463 7.86963 34.7628 8.74559C34.5959 10.2055 34.3039 11.3319 33.845 12.2913C33.4279 13.209 32.844 13.793 32.0931 14.085C31.5926 14.2935 31.0502 14.4185 30.4663 14.4604C30.1327 14.502 29.7573 14.502 29.3818 14.4604C29.0064 14.4188 28.6727 14.3769 28.3389 14.3354C28.0469 14.2938 27.7966 14.4604 27.7134 14.7524C27.6717 15.0444 27.8384 15.2947 28.1304 15.378C28.5059 15.4615 28.8813 15.5031 29.3402 15.545H29.9241C30.1744 15.545 30.383 15.545 30.5915 15.5033C31.259 15.4199 31.9264 15.2947 32.5104 15.0444C33.5114 14.6274 34.2623 13.8765 34.8463 12.7502C35.3887 11.6657 35.6806 10.4142 35.8474 8.8709C35.9308 7.99494 36.0142 7.11898 36.0977 6.24303C36.1393 5.86758 36.1812 5.45049 36.2228 5.07507C36.2645 4.78308 36.1812 4.53271 36.0142 4.36603C35.7643 4.0736 35.5139 3.99011 35.2218 3.99011Z" fill="#0DA487"/>
<path d="M13.8232 11.8736C14.1152 12.2072 14.4488 12.5411 14.7827 12.8331C15.2832 13.2502 15.8255 13.584 16.3677 13.876C17.8694 14.6269 19.496 14.7519 20.9978 14.7937H21.7903H22.0824C22.3743 14.7937 22.5828 14.5434 22.5828 14.2514C22.5828 13.9594 22.3325 13.7509 22.0405 13.7509H20.9976C19.5793 13.7093 18.1194 13.584 16.7846 12.9166C16.284 12.6661 15.8251 12.3742 15.4081 11.9987C15.1161 11.7484 14.8241 11.4564 14.5737 11.1644C13.4893 9.91301 12.6549 8.4947 12.0293 6.86782C11.4869 5.49134 11.1115 3.98956 10.8613 2.23765C10.9448 2.23765 11.0699 2.23765 11.1949 2.27927H11.32C12.6972 2.40478 14.2822 2.57147 15.8672 2.90527C16.1175 2.94689 16.3677 3.03034 16.618 3.07218L17.1604 3.23888C18.6622 3.65593 20.2472 4.07322 21.6237 4.82387C22.7081 5.40782 23.584 6.20034 24.1264 7.11813C24.5018 7.74374 24.7103 8.453 24.7103 9.20387C24.7103 9.49586 24.7103 9.91291 24.6688 10.3302C24.6272 10.6222 24.8356 10.8725 25.1276 10.9141C25.4197 10.9557 25.67 10.7472 25.7116 10.4552C25.7533 9.99632 25.7533 9.49578 25.7533 9.20383C25.7533 8.24439 25.5028 7.36844 25.0024 6.57596C24.3349 5.4915 23.3339 4.57366 22.0825 3.90628C20.6226 3.11375 18.9957 2.69649 17.4107 2.23779L16.8684 2.07089C16.618 1.98742 16.326 1.94581 16.0758 1.86235C14.449 1.52853 12.8221 1.36184 11.4038 1.2784L11.3204 1.23656C11.1534 1.23656 10.9868 1.19495 10.8198 1.19495C10.4862 1.23656 10.2359 1.36186 10.0273 1.57039C9.86041 1.77892 9.81879 2.07091 9.81879 2.32126C10.0692 4.15666 10.4862 5.78347 11.0702 7.24339C11.7792 8.99529 12.6553 10.497 13.8232 11.8736Z" fill="#0DA487"/>
</g>
<defs>
<clipPath id="clip0_1102_376">
<rect width="45" height="25" fill="white" transform="translate(0.5 0.5)"/>
</clipPath>
</defs>
</svg>
