<svg width="46" height="26" viewBox="0 0 46 26" fill="none" xmlns="http://www.w3.org/2000/svg">
<g clip-path="url(#clip0_1102_744)">
<rect width="45" height="25" transform="translate(0.5 0.670044)" fill="white"/>
<path d="M20.5388 8.45688C18.5784 6.74656 16.7846 5.37008 14.9492 4.24379C14.6989 4.07688 14.3653 4.16033 14.2402 4.41069C14.0733 4.66106 14.1567 4.99465 14.4071 5.11974C16.159 6.20421 17.9527 7.58091 19.8716 9.20756C22.1659 11.2099 23.584 13.0453 24.5018 15.2562C25.5863 17.8841 26.2537 20.8042 26.5458 24.4329C26.5874 24.7249 26.7961 24.8918 27.0462 24.8918H27.0878C27.3799 24.8502 27.5884 24.5998 27.5467 24.3495C27.2548 20.6371 26.5458 17.6334 25.4195 14.8808C24.4598 12.5448 22.9163 10.5422 20.5388 8.45688Z" fill="#0DA487"/>
<path d="M35.2218 4.16019C35.0134 4.16019 34.7629 4.20181 34.5544 4.20181L34.2625 4.24364C33.0944 4.36872 31.8847 4.53563 30.7168 4.99451C29.4654 5.4534 28.506 6.24589 27.8386 7.37225C26.8375 9.04074 26.2951 10.8761 26.1701 12.7949V13.1704V13.5039C26.0866 13.7959 26.2535 14.0879 26.5037 14.1713C26.7956 14.2548 27.0876 14.088 27.1711 13.8378C27.2546 13.5874 27.2546 13.3373 27.2127 13.1287V12.8784C27.2962 11.1265 27.8384 9.45799 28.7561 7.95625C29.2985 7.03847 30.0491 6.41286 31.0921 6.03743C32.093 5.66198 33.136 5.49507 34.3458 5.36999L34.6377 5.32837C34.8047 5.32837 34.9297 5.28675 35.0966 5.28675C35.055 5.62036 35.055 5.95419 35.0131 6.2878C34.9297 7.16375 34.8463 8.03971 34.7628 8.91566C34.5959 10.3756 34.3039 11.5019 33.845 12.4613C33.4279 13.3791 32.844 13.9631 32.0931 14.255C31.5926 14.4636 31.0502 14.5886 30.4663 14.6305C30.1327 14.6721 29.7573 14.6721 29.3818 14.6305C29.0064 14.5888 28.6727 14.547 28.3389 14.5055C28.0469 14.4638 27.7966 14.6305 27.7134 14.9224C27.6717 15.2145 27.8384 15.4648 28.1304 15.5481C28.5059 15.6316 28.8813 15.6732 29.3402 15.715H29.9241C30.1744 15.715 30.383 15.715 30.5915 15.6734C31.259 15.5899 31.9264 15.4648 32.5104 15.2145C33.5114 14.7974 34.2623 14.0466 34.8463 12.9203C35.3887 11.8358 35.6806 10.5843 35.8474 9.04097C35.9308 8.16501 36.0142 7.28906 36.0977 6.4131C36.1393 6.03765 36.1812 5.62057 36.2228 5.24514C36.2645 4.95315 36.1812 4.70278 36.0142 4.5361C35.7643 4.24368 35.5139 4.16019 35.2218 4.16019Z" fill="#0DA487"/>
<path d="M13.8232 12.0437C14.1152 12.3773 14.4488 12.7112 14.7827 13.0032C15.2832 13.4203 15.8255 13.7541 16.3677 14.0461C17.8694 14.797 19.496 14.922 20.9978 14.9639H21.7903H22.0824C22.3743 14.9639 22.5828 14.7135 22.5828 14.4215C22.5828 14.1295 22.3325 13.921 22.0405 13.921H20.9976C19.5793 13.8794 18.1194 13.7541 16.7846 13.0867C16.284 12.8362 15.8251 12.5443 15.4081 12.1689C15.1161 11.9185 14.8241 11.6265 14.5737 11.3345C13.4893 10.0831 12.6549 8.66481 12.0293 7.03793C11.4869 5.66145 11.1115 4.15967 10.8613 2.40775C10.9448 2.40775 11.0699 2.40775 11.1949 2.44937H11.32C12.6972 2.57488 14.2822 2.74158 15.8672 3.07537C16.1175 3.11699 16.3677 3.20045 16.618 3.24229L17.1604 3.40898C18.6622 3.82604 20.2472 4.24333 21.6237 4.99397C22.7081 5.57793 23.584 6.37045 24.1264 7.28823C24.5018 7.91384 24.7103 8.6231 24.7103 9.37397C24.7103 9.66596 24.7103 10.083 24.6688 10.5003C24.6272 10.7923 24.8356 11.0426 25.1276 11.0842C25.4197 11.1258 25.67 10.9173 25.7116 10.6253C25.7533 10.1664 25.7533 9.66588 25.7533 9.37394C25.7533 8.41449 25.5028 7.53855 25.0024 6.74607C24.3349 5.6616 23.3339 4.74376 22.0825 4.07638C20.6226 3.28385 18.9957 2.86659 17.4107 2.40789L16.8684 2.24099C16.618 2.15753 16.326 2.11592 16.0758 2.03246C14.449 1.69863 12.8221 1.53194 11.4038 1.44851L11.3204 1.40667C11.1534 1.40667 10.9868 1.36505 10.8198 1.36505C10.4862 1.40667 10.2359 1.53196 10.0273 1.7405C9.86041 1.94903 9.81879 2.24101 9.81879 2.49136C10.0692 4.32676 10.4862 5.95358 11.0702 7.41349C11.7792 9.16539 12.6553 10.6671 13.8232 12.0437Z" fill="#0DA487"/>
</g>
<defs>
<clipPath id="clip0_1102_744">
<rect width="45" height="25" fill="white" transform="translate(0.5 0.670044)"/>
</clipPath>
</defs>
</svg>
