<svg width="18" height="19" viewBox="0 0 18 19" fill="none" xmlns="http://www.w3.org/2000/svg">
<g clip-path="url(#clip0_1102_898)">
<path d="M16.5 12.8903V15.1403C16.5009 15.3491 16.4581 15.5559 16.3744 15.7473C16.2907 15.9387 16.168 16.1105 16.0141 16.2517C15.8602 16.3929 15.6784 16.5004 15.4806 16.5673C15.2827 16.6342 15.073 16.6591 14.865 16.6403C12.5571 16.3895 10.3403 15.6009 8.39251 14.3378C6.58038 13.1863 5.04401 11.6499 3.89251 9.83777C2.62499 7.88117 1.83619 5.65351 1.59001 3.33527C1.57127 3.12787 1.59592 2.91884 1.66239 2.72149C1.72886 2.52413 1.83569 2.34278 1.97609 2.18898C2.11648 2.03518 2.28736 1.9123 2.47785 1.82816C2.66834 1.74402 2.87427 1.70046 3.08251 1.70027H5.33251C5.69649 1.69669 6.04935 1.82558 6.32533 2.06292C6.60131 2.30026 6.78157 2.62985 6.83251 2.99027C6.92748 3.71032 7.1036 4.41731 7.35751 5.09777C7.45842 5.36621 7.48026 5.65795 7.42044 5.93843C7.36062 6.2189 7.22166 6.47635 7.02001 6.68027L6.06751 7.63277C7.13518 9.51043 8.68985 11.0651 10.5675 12.1328L11.52 11.1803C11.7239 10.9786 11.9814 10.8397 12.2619 10.7798C12.5423 10.72 12.8341 10.7419 13.1025 10.8428C13.783 11.0967 14.49 11.2728 15.21 11.3678C15.5743 11.4192 15.9071 11.6027 16.1449 11.8834C16.3828 12.1641 16.5091 12.5224 16.5 12.8903Z" stroke="#4A5568" stroke-width="1.5" stroke-linecap="round" stroke-linejoin="round"/>
</g>
<defs>
<clipPath id="clip0_1102_898">
<rect width="18" height="18" fill="white" transform="translate(0 0.200195)"/>
</clipPath>
</defs>
</svg>
