<svg width="46" height="26" viewBox="0 0 46 26" fill="none" xmlns="http://www.w3.org/2000/svg">
<g clip-path="url(#clip0_1102_656)">
<rect width="45" height="25" transform="translate(0.5 0.0900269)" fill="white"/>
<g clip-path="url(#clip1_1102_656)">
<path d="M20.5388 7.87683C18.5784 6.16651 16.7846 4.79004 14.9492 3.66374C14.6989 3.49683 14.3653 3.58029 14.2402 3.83065C14.0733 4.08101 14.1567 4.4146 14.4071 4.53969C16.159 5.62417 17.9527 7.00086 19.8716 8.62751C22.1659 10.6298 23.584 12.4652 24.5018 14.6762C25.5863 17.304 26.2537 20.2241 26.5458 23.8528C26.5874 24.1449 26.7961 24.3117 27.0462 24.3117H27.0878C27.3799 24.2701 27.5884 24.0198 27.5467 23.7695C27.2548 20.0571 26.5458 17.0534 25.4195 14.3008C24.4598 11.9648 22.9163 9.96218 20.5388 7.87683Z" fill="#0DA487"/>
<path d="M35.2218 3.5802C35.0134 3.5802 34.7629 3.62182 34.5544 3.62182L34.2625 3.66366C33.0944 3.78873 31.8847 3.95565 30.7168 4.41453C29.4654 4.87342 28.506 5.66591 27.8386 6.79227C26.8375 8.46075 26.2951 10.2961 26.1701 12.2149V12.5904V12.924C26.0866 13.2159 26.2535 13.5079 26.5037 13.5914C26.7956 13.6748 27.0876 13.508 27.1711 13.2578C27.2546 13.0074 27.2546 12.7573 27.2127 12.5487V12.2984C27.2962 10.5465 27.8384 8.878 28.7561 7.37627C29.2985 6.45848 30.0491 5.83287 31.0921 5.45744C32.093 5.08199 33.136 4.91508 34.3458 4.79L34.6377 4.74838C34.8047 4.74838 34.9297 4.70677 35.0966 4.70677C35.055 5.04037 35.055 5.3742 35.0131 5.70781C34.9297 6.58377 34.8463 7.45972 34.7628 8.33568C34.5959 9.79558 34.3039 10.9219 33.845 11.8814C33.4279 12.7991 32.844 13.3831 32.0931 13.675C31.5926 13.8836 31.0502 14.0086 30.4663 14.0505C30.1327 14.0921 29.7573 14.0921 29.3818 14.0505C29.0064 14.0089 28.6727 13.967 28.3389 13.9255C28.0469 13.8839 27.7966 14.0505 27.7134 14.3424C27.6717 14.6345 27.8384 14.8848 28.1304 14.9681C28.5059 15.0516 28.8813 15.0932 29.3402 15.135H29.9241C30.1744 15.135 30.383 15.135 30.5915 15.0934C31.259 15.0099 31.9264 14.8848 32.5104 14.6345C33.5114 14.2174 34.2623 13.4666 34.8463 12.3403C35.3887 11.2558 35.6806 10.0043 35.8474 8.46098C35.9308 7.58503 36.0142 6.70907 36.0977 5.83311C36.1393 5.45767 36.1812 5.04058 36.2228 4.66516C36.2645 4.37317 36.1812 4.1228 36.0142 3.95611C35.7643 3.66369 35.5139 3.5802 35.2218 3.5802Z" fill="#0DA487"/>
<path d="M13.8232 11.4637C14.1152 11.7973 14.4488 12.1312 14.7827 12.4232C15.2832 12.8402 15.8255 13.1741 16.3677 13.4661C17.8694 14.217 19.496 14.342 20.9978 14.3838H21.7903H22.0824C22.3743 14.3838 22.5828 14.1335 22.5828 13.8414C22.5828 13.5495 22.3325 13.341 22.0405 13.341H20.9976C19.5793 13.2994 18.1194 13.1741 16.7846 12.5067C16.284 12.2562 15.8251 11.9643 15.4081 11.5888C15.1161 11.3385 14.8241 11.0464 14.5737 10.7545C13.4893 9.50309 12.6549 8.08479 12.0293 6.45791C11.4869 5.08143 11.1115 3.57965 10.8613 1.82774C10.9448 1.82774 11.0699 1.82774 11.1949 1.86936H11.32C12.6972 1.99487 14.2822 2.16156 15.8672 2.49536C16.1175 2.53698 16.3677 2.62043 16.618 2.66227L17.1604 2.82896C18.6622 3.24602 20.2472 3.66331 21.6237 4.41395C22.7081 4.99791 23.584 5.79043 24.1264 6.70821C24.5018 7.33382 24.7103 8.04308 24.7103 8.79395C24.7103 9.08594 24.7103 9.503 24.6688 9.92026C24.6272 10.2122 24.8356 10.4626 25.1276 10.5042C25.4197 10.5458 25.67 10.3373 25.7116 10.0453C25.7533 9.58641 25.7533 9.08587 25.7533 8.79392C25.7533 7.83448 25.5028 6.95853 25.0024 6.16605C24.3349 5.08158 23.3339 4.16375 22.0825 3.49637C20.6226 2.70383 18.9957 2.28657 17.4107 1.82788L16.8684 1.66098C16.618 1.57751 16.326 1.5359 16.0758 1.45244C14.449 1.11862 12.8221 0.951926 11.4038 0.868491L11.3204 0.826653C11.1534 0.826653 10.9868 0.785034 10.8198 0.785034C10.4862 0.826653 10.2359 0.951945 10.0273 1.16048C9.86041 1.36901 9.81879 1.661 9.81879 1.91135C10.0692 3.74675 10.4862 5.37356 11.0702 6.83348C11.7792 8.58538 12.6553 10.0871 13.8232 11.4637Z" fill="#0DA487"/>
</g>
</g>
<defs>
<clipPath id="clip0_1102_656">
<rect width="45" height="25" fill="white" transform="translate(0.5 0.0900269)"/>
</clipPath>
<clipPath id="clip1_1102_656">
<rect width="45" height="25" fill="white" transform="translate(0.5 0.0900269)"/>
</clipPath>
</defs>
</svg>
