<svg width="25" height="25" viewBox="0 0 25 25" fill="none" xmlns="http://www.w3.org/2000/svg">
<g clip-path="url(#clip0_1102_81)">
<path d="M15.8601 5.47998C16.8368 5.67055 17.7344 6.14824 18.4381 6.85192C19.1418 7.55559 19.6195 8.45325 19.8101 9.42998M15.8601 1.47998C17.8893 1.70542 19.7816 2.61416 21.2263 4.05699C22.6709 5.49982 23.5821 7.39099 23.8101 9.41998M22.8101 17.4V20.4C22.8112 20.6785 22.7541 20.9541 22.6426 21.2093C22.531 21.4645 22.3674 21.6936 22.1621 21.8818C21.9569 22.0701 21.7146 22.2135 21.4508 22.3027C21.187 22.3919 20.9074 22.425 20.6301 22.4C17.5529 22.0656 14.5971 21.0141 12.0001 19.33C9.58388 17.7946 7.53539 15.7462 6.00005 13.33C4.31003 10.7212 3.2583 7.75097 2.93005 4.65998C2.90506 4.38345 2.93793 4.10474 3.02655 3.8416C3.11518 3.57847 3.25762 3.33667 3.44482 3.1316C3.63201 2.92653 3.85986 2.76269 4.11384 2.6505C4.36783 2.53832 4.64239 2.48024 4.92005 2.47998H7.92005C8.40536 2.4752 8.87584 2.64706 9.24381 2.96351C9.61178 3.27997 9.85213 3.71943 9.92005 4.19998C10.0467 5.16005 10.2815 6.10271 10.6201 7.00998C10.7546 7.3679 10.7837 7.7569 10.704 8.13086C10.6242 8.50483 10.4389 8.84809 10.1701 9.11998L8.90005 10.39C10.3236 12.8935 12.3965 14.9664 14.9001 16.39L16.1701 15.12C16.4419 14.8511 16.7852 14.6658 17.1592 14.5861C17.5331 14.5063 17.9221 14.5354 18.2801 14.67C19.1873 15.0085 20.13 15.2434 21.0901 15.37C21.5758 15.4385 22.0195 15.6832 22.3366 16.0575C22.6537 16.4318 22.8222 16.9096 22.8101 17.4Z" stroke="#222222" stroke-width="1.5" stroke-linecap="round" stroke-linejoin="round"/>
</g>
<defs>
<clipPath id="clip0_1102_81">
<rect width="24" height="24" fill="white" transform="translate(0.810059 0.47998)"/>
</clipPath>
</defs>
</svg>
