<svg width="25" height="26" viewBox="0 0 25 26" fill="none" xmlns="http://www.w3.org/2000/svg">
<g clip-path="url(#clip0_1102_214)">
<g clip-path="url(#clip1_1102_214)">
<g clip-path="url(#clip2_1102_214)">
<path d="M19.6002 8.46463L16.8397 7.32164C15.3222 6.69226 13.7769 7.488 13.4065 9.08852L10.3182 22.4256C10.1327 23.2263 10.6019 24.1371 11.3614 24.4519C12.1204 24.7662 13.0972 24.4533 13.5316 23.7569L20.7789 12.1421C21.6481 10.748 21.1182 9.0934 19.6002 8.46463Z" stroke="#222222" stroke-width="0.925926" stroke-miterlimit="10" stroke-linecap="round" stroke-linejoin="round"/>
<path d="M18.2206 1.4259C19.1132 3.58231 19.0471 5.89561 18.2201 7.89333" stroke="#222222" stroke-width="0.925926" stroke-miterlimit="10" stroke-linecap="round" stroke-linejoin="round"/>
<path d="M24.0745 5.46765C21.7874 4.51988 19.1674 5.60631 18.22 7.89301C18.8511 6.36812 18.1278 4.62038 16.603 3.989C15.8412 3.67371 15.0235 3.69614 14.317 3.989" stroke="#222222" stroke-width="0.925926" stroke-miterlimit="10" stroke-linecap="round" stroke-linejoin="round"/>
<path d="M13.0555 10.6034L16.5055 12.0324" stroke="#222222" stroke-width="0.925926" stroke-miterlimit="10" stroke-linecap="round" stroke-linejoin="round"/>
<path d="M18.3525 16.0313L15.3626 14.7931" stroke="#222222" stroke-width="0.925926" stroke-miterlimit="10" stroke-linecap="round" stroke-linejoin="round"/>
<path d="M11.6896 16.5044L14.2195 17.5524" stroke="#222222" stroke-width="0.925926" stroke-miterlimit="10" stroke-linecap="round" stroke-linejoin="round"/>
<path d="M15.1455 21.1688L13.0767 20.3116" stroke="#222222" stroke-width="0.925926" stroke-miterlimit="10" stroke-linecap="round" stroke-linejoin="round"/>
<path d="M9.1304 5.69107L6.97926 7.39876L4.77846 5.04285L4.88778 8.26571L2.15881 8.57886C3.00325 8.92898 3.67293 9.52016 4.1276 10.2381C5.09732 9.94623 6.10452 10.0171 6.99021 10.383L6.98998 10.3818C7.35682 9.49509 8.01986 8.73326 8.91247 8.25519C8.71508 7.37901 8.80199 6.48512 9.1304 5.69107Z" stroke="#222222" stroke-width="0.925926" stroke-miterlimit="10" stroke-linecap="round" stroke-linejoin="round"/>
<path d="M13.4065 9.08837C13.4523 8.88813 13.5177 8.70029 13.5981 8.52653C12.3768 7.68759 10.7705 7.4623 9.29942 8.07137C8.21059 8.52221 7.40794 9.37143 6.99002 10.3817L6.99026 10.3829C5.98069 9.96572 4.81166 9.93091 3.72284 10.3824C1.41202 11.3388 0.314785 13.9872 1.27169 16.2975C2.8159 20.025 7.00097 21.8474 10.7603 20.5134L13.4065 9.08837Z" stroke="#222222" stroke-width="0.925926" stroke-miterlimit="10" stroke-linecap="round" stroke-linejoin="round"/>
</g>
</g>
</g>
<defs>
<clipPath id="clip0_1102_214">
<rect width="25" height="25" fill="white" transform="translate(0 0.5)"/>
</clipPath>
<clipPath id="clip1_1102_214">
<rect width="25" height="25" fill="white" transform="translate(0 0.5)"/>
</clipPath>
<clipPath id="clip2_1102_214">
<rect width="25" height="25" fill="white" transform="translate(0 0.5)"/>
</clipPath>
</defs>
</svg>
